<svg width="569" height="521" viewBox="0 0 569 521" fill="none" xmlns="http://www.w3.org/2000/svg">
<g filter="url(#filter0_d_429_176)">
<path d="M70.0902 40.2L44.4902 110H27.4902L1.89023 40.2H16.8902L36.0902 95.7L55.1902 40.2H70.0902ZM90.584 48C88.1173 48 86.0507 47.2333 84.384 45.7C82.784 44.1 81.984 42.1333 81.984 39.8C81.984 37.4667 82.784 35.5333 84.384 34C86.0507 32.4 88.1173 31.6 90.584 31.6C93.0507 31.6 95.084 32.4 96.684 34C98.3507 35.5333 99.184 37.4667 99.184 39.8C99.184 42.1333 98.3507 44.1 96.684 45.7C95.084 47.2333 93.0507 48 90.584 48ZM97.484 54.6V110H83.484V54.6H97.484ZM167.816 81.1C167.816 83.1 167.683 84.9 167.416 86.5H126.916C127.249 90.5 128.649 93.6333 131.116 95.9C133.583 98.1667 136.616 99.3 140.216 99.3C145.416 99.3 149.116 97.0667 151.316 92.6H166.416C164.816 97.9333 161.749 102.333 157.216 105.8C152.683 109.2 147.116 110.9 140.516 110.9C135.183 110.9 130.383 109.733 126.116 107.4C121.916 105 118.616 101.633 116.216 97.3C113.883 92.9667 112.716 87.9667 112.716 82.3C112.716 76.5667 113.883 71.5333 116.216 67.2C118.549 62.8667 121.816 59.5333 126.016 57.2C130.216 54.8667 135.049 53.7 140.516 53.7C145.783 53.7 150.483 54.8333 154.616 57.1C158.816 59.3667 162.049 62.6 164.316 66.8C166.649 70.9333 167.816 75.7 167.816 81.1ZM153.316 77.1C153.249 73.5 151.949 70.6333 149.416 68.5C146.883 66.3 143.783 65.2 140.116 65.2C136.649 65.2 133.716 66.2667 131.316 68.4C128.983 70.4667 127.549 73.3667 127.016 77.1H153.316ZM259.835 54.6L243.635 110H228.535L218.435 71.3L208.335 110H193.135L176.835 54.6H191.035L200.835 96.8L211.435 54.6H226.235L236.635 96.7L246.435 54.6H259.835Z" fill="#2563EB"/>
</g>
<g filter="url(#filter1_d_429_176)">
<path d="M49.9012 266.7H22.1012L17.5012 280H2.80117L27.9012 210.1H44.2012L69.3012 280H54.5012L49.9012 266.7ZM46.1012 255.5L36.0012 226.3L25.9012 255.5H46.1012ZM114.383 223.8C120.983 223.8 126.317 225.9 130.383 230.1C134.45 234.233 136.483 240.033 136.483 247.5V280H122.483V249.4C122.483 245 121.383 241.633 119.183 239.3C116.983 236.9 113.983 235.7 110.183 235.7C106.317 235.7 103.25 236.9 100.983 239.3C98.7832 241.633 97.6832 245 97.6832 249.4V280H83.6832V224.6H97.6832V231.5C99.5499 229.1 101.917 227.233 104.783 225.9C107.717 224.5 110.917 223.8 114.383 223.8ZM207.796 224.6L173.496 306.2H158.596L170.596 278.6L148.396 224.6H164.096L178.396 263.3L192.896 224.6H207.796ZM297.143 224.6L280.943 280H265.843L255.743 241.3L245.643 280H230.443L214.143 224.6H228.343L238.143 266.8L248.743 224.6H263.543L273.943 266.7L283.743 224.6H297.143ZM340.918 223.8C345.118 223.8 348.852 224.733 352.118 226.6C355.385 228.4 357.918 231.1 359.718 234.7C361.585 238.233 362.518 242.5 362.518 247.5V280H348.518V249.4C348.518 245 347.418 241.633 345.218 239.3C343.018 236.9 340.018 235.7 336.218 235.7C332.352 235.7 329.285 236.9 327.018 239.3C324.818 241.633 323.718 245 323.718 249.4V280H309.718V206H323.718V231.5C325.518 229.1 327.918 227.233 330.918 225.9C333.918 224.5 337.252 223.8 340.918 223.8ZM432.332 251.1C432.332 253.1 432.198 254.9 431.932 256.5H391.432C391.765 260.5 393.165 263.633 395.632 265.9C398.098 268.167 401.132 269.3 404.732 269.3C409.932 269.3 413.632 267.067 415.832 262.6H430.932C429.332 267.933 426.265 272.333 421.732 275.8C417.198 279.2 411.632 280.9 405.032 280.9C399.698 280.9 394.898 279.733 390.632 277.4C386.432 275 383.132 271.633 380.732 267.3C378.398 262.967 377.232 257.967 377.232 252.3C377.232 246.567 378.398 241.533 380.732 237.2C383.065 232.867 386.332 229.533 390.532 227.2C394.732 224.867 399.565 223.7 405.032 223.7C410.298 223.7 414.998 224.833 419.132 227.1C423.332 229.367 426.565 232.6 428.832 236.8C431.165 240.933 432.332 245.7 432.332 251.1ZM417.832 247.1C417.765 243.5 416.465 240.633 413.932 238.5C411.398 236.3 408.298 235.2 404.632 235.2C401.165 235.2 398.232 236.267 395.832 238.4C393.498 240.467 392.065 243.367 391.532 247.1H417.832ZM461.55 233.2C463.35 230.267 465.684 227.967 468.55 226.3C471.484 224.633 474.817 223.8 478.55 223.8V238.5H474.85C470.45 238.5 467.117 239.533 464.85 241.6C462.65 243.667 461.55 247.267 461.55 252.4V280H447.55V224.6H461.55V233.2ZM544.48 251.1C544.48 253.1 544.347 254.9 544.08 256.5H503.58C503.913 260.5 505.313 263.633 507.78 265.9C510.247 268.167 513.28 269.3 516.88 269.3C522.08 269.3 525.78 267.067 527.98 262.6H543.08C541.48 267.933 538.413 272.333 533.88 275.8C529.347 279.2 523.78 280.9 517.18 280.9C511.847 280.9 507.047 279.733 502.78 277.4C498.58 275 495.28 271.633 492.88 267.3C490.547 262.967 489.38 257.967 489.38 252.3C489.38 246.567 490.547 241.533 492.88 237.2C495.213 232.867 498.48 229.533 502.68 227.2C506.88 224.867 511.713 223.7 517.18 223.7C522.447 223.7 527.147 224.833 531.28 227.1C535.48 229.367 538.713 232.6 540.98 236.8C543.313 240.933 544.48 245.7 544.48 251.1ZM529.98 247.1C529.913 243.5 528.613 240.633 526.08 238.5C523.547 236.3 520.447 235.2 516.78 235.2C513.313 235.2 510.38 236.267 507.98 238.4C505.647 240.467 504.213 243.367 503.68 247.1H529.98Z" fill="black"/>
</g>
<g filter="url(#filter2_d_429_176)">
<path d="M50.0262 436.7H22.2262L17.6262 450H2.92617L28.0262 380.1H44.3262L69.4262 450H54.6262L50.0262 436.7ZM46.2262 425.5L36.1262 396.3L26.0262 425.5H46.2262ZM114.508 393.8C121.108 393.8 126.442 395.9 130.508 400.1C134.575 404.233 136.608 410.033 136.608 417.5V450H122.608V419.4C122.608 415 121.508 411.633 119.308 409.3C117.108 406.9 114.108 405.7 110.308 405.7C106.442 405.7 103.375 406.9 101.108 409.3C98.9082 411.633 97.8082 415 97.8082 419.4V450H83.8082V394.6H97.8082V401.5C99.6749 399.1 102.042 397.233 104.908 395.9C107.842 394.5 111.042 393.8 114.508 393.8ZM207.921 394.6L173.621 476.2H158.721L170.721 448.6L148.521 394.6H164.221L178.521 433.3L193.021 394.6H207.921ZM236.768 406.1V432.9C236.768 434.767 237.202 436.133 238.068 437C239.002 437.8 240.535 438.2 242.668 438.2H249.168V450H240.368C228.568 450 222.668 444.267 222.668 432.8V406.1H216.068V394.6H222.668V380.9H236.768V394.6H249.168V406.1H236.768ZM271.338 388C268.871 388 266.805 387.233 265.138 385.7C263.538 384.1 262.738 382.133 262.738 379.8C262.738 377.467 263.538 375.533 265.138 374C266.805 372.4 268.871 371.6 271.338 371.6C273.805 371.6 275.838 372.4 277.438 374C279.105 375.533 279.938 377.467 279.938 379.8C279.938 382.133 279.105 384.1 277.438 385.7C275.838 387.233 273.805 388 271.338 388ZM278.238 394.6V450H264.238V394.6H278.238ZM365.87 393.8C372.67 393.8 378.137 395.9 382.27 400.1C386.47 404.233 388.57 410.033 388.57 417.5V450H374.57V419.4C374.57 415.067 373.47 411.767 371.27 409.5C369.07 407.167 366.07 406 362.27 406C358.47 406 355.437 407.167 353.17 409.5C350.97 411.767 349.87 415.067 349.87 419.4V450H335.87V419.4C335.87 415.067 334.77 411.767 332.57 409.5C330.37 407.167 327.37 406 323.57 406C319.703 406 316.637 407.167 314.37 409.5C312.17 411.767 311.07 415.067 311.07 419.4V450H297.07V394.6H311.07V401.3C312.87 398.967 315.17 397.133 317.97 395.8C320.837 394.467 323.97 393.8 327.37 393.8C331.703 393.8 335.57 394.733 338.97 396.6C342.37 398.4 345.003 401 346.87 404.4C348.67 401.2 351.27 398.633 354.67 396.7C358.137 394.767 361.87 393.8 365.87 393.8ZM458.355 421.1C458.355 423.1 458.222 424.9 457.955 426.5H417.455C417.788 430.5 419.188 433.633 421.655 435.9C424.122 438.167 427.155 439.3 430.755 439.3C435.955 439.3 439.655 437.067 441.855 432.6H456.955C455.355 437.933 452.288 442.333 447.755 445.8C443.222 449.2 437.655 450.9 431.055 450.9C425.722 450.9 420.922 449.733 416.655 447.4C412.455 445 409.155 441.633 406.755 437.3C404.422 432.967 403.255 427.967 403.255 422.3C403.255 416.567 404.422 411.533 406.755 407.2C409.088 402.867 412.355 399.533 416.555 397.2C420.755 394.867 425.588 393.7 431.055 393.7C436.322 393.7 441.022 394.833 445.155 397.1C449.355 399.367 452.588 402.6 454.855 406.8C457.188 410.933 458.355 415.7 458.355 421.1ZM443.855 417.1C443.788 413.5 442.488 410.633 439.955 408.5C437.422 406.3 434.322 405.2 430.655 405.2C427.188 405.2 424.255 406.267 421.855 408.4C419.522 410.467 418.088 413.367 417.555 417.1H443.855Z" fill="black"/>
</g>
<defs>
<filter id="filter0_d_429_176" x="1.89062" y="31.6001" width="281.943" height="123.3" filterUnits="userSpaceOnUse" color-interpolation-filters="sRGB">
<feFlood flood-opacity="0" result="BackgroundImageFix"/>
<feColorMatrix in="SourceAlpha" type="matrix" values="0 0 0 0 0 0 0 0 0 0 0 0 0 0 0 0 0 0 127 0" result="hardAlpha"/>
<feOffset dx="20" dy="40"/>
<feGaussianBlur stdDeviation="2"/>
<feComposite in2="hardAlpha" operator="out"/>
<feColorMatrix type="matrix" values="0 0 0 0 0 0 0 0 0 0 0 0 0 0 0 0 0 0 0.25 0"/>
<feBlend mode="normal" in2="BackgroundImageFix" result="effect1_dropShadow_429_176"/>
<feBlend mode="normal" in="SourceGraphic" in2="effect1_dropShadow_429_176" result="shape"/>
</filter>
<filter id="filter1_d_429_176" x="2.80078" y="206" width="565.68" height="144.2" filterUnits="userSpaceOnUse" color-interpolation-filters="sRGB">
<feFlood flood-opacity="0" result="BackgroundImageFix"/>
<feColorMatrix in="SourceAlpha" type="matrix" values="0 0 0 0 0 0 0 0 0 0 0 0 0 0 0 0 0 0 127 0" result="hardAlpha"/>
<feOffset dx="20" dy="40"/>
<feGaussianBlur stdDeviation="2"/>
<feComposite in2="hardAlpha" operator="out"/>
<feColorMatrix type="matrix" values="0 0 0 0 0 0 0 0 0 0 0 0 0 0 0 0 0 0 0.25 0"/>
<feBlend mode="normal" in2="BackgroundImageFix" result="effect1_dropShadow_429_176"/>
<feBlend mode="normal" in="SourceGraphic" in2="effect1_dropShadow_429_176" result="shape"/>
</filter>
<filter id="filter2_d_429_176" x="2.92578" y="371.6" width="479.43" height="148.6" filterUnits="userSpaceOnUse" color-interpolation-filters="sRGB">
<feFlood flood-opacity="0" result="BackgroundImageFix"/>
<feColorMatrix in="SourceAlpha" type="matrix" values="0 0 0 0 0 0 0 0 0 0 0 0 0 0 0 0 0 0 127 0" result="hardAlpha"/>
<feOffset dx="20" dy="40"/>
<feGaussianBlur stdDeviation="2"/>
<feComposite in2="hardAlpha" operator="out"/>
<feColorMatrix type="matrix" values="0 0 0 0 0 0 0 0 0 0 0 0 0 0 0 0 0 0 0.25 0"/>
<feBlend mode="normal" in2="BackgroundImageFix" result="effect1_dropShadow_429_176"/>
<feBlend mode="normal" in="SourceGraphic" in2="effect1_dropShadow_429_176" result="shape"/>
</filter>
</defs>
</svg>
