<svg width="1333" height="773" viewBox="0 0 1333 773" fill="none" xmlns="http://www.w3.org/2000/svg">
<path d="M223.102 18.24L175.582 186H156.862L114.622 42.96L71.4216 186L53.1816 186.24L6.62164 18.24H24.6216L63.0216 165.36L105.982 18.24H124.702L166.462 165.36L205.102 18.24H223.102ZM282 108.16C287.787 108.16 292.967 109.373 297.54 111.8C302.207 114.227 305.847 117.96 308.46 123C311.167 127.947 312.52 134.013 312.52 141.2V186H302.86V142.32C302.86 134.013 300.76 127.667 296.56 123.28C292.454 118.893 286.807 116.7 279.62 116.7C272.247 116.7 266.367 119.033 261.98 123.7C257.594 128.367 255.4 135.227 255.4 144.28V186H245.6V82.4H255.4V122.58C257.827 118.007 261.374 114.46 266.04 111.94C270.8 109.42 276.12 108.16 282 108.16ZM370.454 187.12C363.267 187.12 356.781 185.533 350.994 182.36C345.301 179.093 340.774 174.52 337.414 168.64C334.147 162.667 332.514 155.713 332.514 147.78C332.514 139.847 334.194 132.94 337.554 127.06C340.914 121.087 345.487 116.513 351.274 113.34C357.061 110.073 363.547 108.44 370.734 108.44C377.921 108.44 384.407 110.073 390.194 113.34C396.074 116.513 400.647 121.087 403.914 127.06C407.274 132.94 408.954 139.847 408.954 147.78C408.954 155.62 407.274 162.527 403.914 168.5C400.554 174.473 395.934 179.093 390.054 182.36C384.174 185.533 377.641 187.12 370.454 187.12ZM370.454 178.58C375.494 178.58 380.161 177.46 384.454 175.22C388.747 172.887 392.201 169.433 394.814 164.86C397.521 160.193 398.874 154.5 398.874 147.78C398.874 141.06 397.567 135.413 394.954 130.84C392.341 126.173 388.887 122.72 384.594 120.48C380.301 118.147 375.634 116.98 370.594 116.98C365.554 116.98 360.887 118.147 356.594 120.48C352.301 122.72 348.847 126.173 346.234 130.84C343.714 135.413 342.454 141.06 342.454 147.78C342.454 154.5 343.714 160.193 346.234 164.86C348.847 169.433 352.254 172.887 356.454 175.22C360.747 177.46 365.414 178.58 370.454 178.58Z" fill="black"/>
<path d="M11.6087 342C11.6087 325.52 15.2087 310.8 22.4087 297.84C29.6087 284.72 39.4487 274.56 51.9287 267.36C64.4087 260 78.3287 256.32 93.6887 256.32C112.409 256.32 128.409 260.8 141.689 269.76C155.129 278.56 164.889 291.04 170.969 307.2H151.289C146.489 295.84 139.129 286.96 129.209 280.56C119.449 274.16 107.609 270.96 93.6887 270.96C81.3687 270.96 70.2487 273.84 60.3287 279.6C50.5687 285.36 42.8887 293.68 37.2887 304.56C31.6887 315.28 28.8887 327.76 28.8887 342C28.8887 356.24 31.6887 368.72 37.2887 379.44C42.8887 390.16 50.5687 398.4 60.3287 404.16C70.2487 409.92 81.3687 412.8 93.6887 412.8C107.609 412.8 119.449 409.68 129.209 403.44C139.129 397.04 146.489 388.24 151.289 377.04H170.969C164.889 393.04 155.129 405.44 141.689 414.24C128.249 423.04 112.249 427.44 93.6887 427.44C78.3287 427.44 64.4087 423.84 51.9287 416.64C39.4487 409.28 29.6087 399.12 22.4087 386.16C15.2087 373.2 11.6087 358.48 11.6087 342ZM196.765 387.64C196.765 379.8 198.305 372.94 201.385 367.06C204.558 361.087 208.898 356.513 214.405 353.34C220.005 350.073 226.305 348.44 233.305 348.44C240.585 348.44 246.838 350.12 252.065 353.48C257.385 356.84 261.212 361.133 263.545 366.36V349.56H273.345V426H263.545V409.06C261.118 414.287 257.245 418.627 251.925 422.08C246.698 425.44 240.445 427.12 233.165 427.12C226.258 427.12 220.005 425.487 214.405 422.22C208.898 418.953 204.558 414.333 201.385 408.36C198.305 402.387 196.765 395.48 196.765 387.64ZM263.545 387.78C263.545 381.62 262.285 376.207 259.765 371.54C257.245 366.873 253.792 363.28 249.405 360.76C245.112 358.24 240.352 356.98 235.125 356.98C229.712 356.98 224.858 358.193 220.565 360.62C216.272 363.047 212.865 366.593 210.345 371.26C207.918 375.833 206.705 381.293 206.705 387.64C206.705 393.893 207.918 399.4 210.345 404.16C212.865 408.827 216.272 412.42 220.565 414.94C224.858 417.367 229.712 418.58 235.125 418.58C240.352 418.58 245.112 417.32 249.405 414.8C253.792 412.28 257.245 408.687 259.765 404.02C262.285 399.353 263.545 393.94 263.545 387.78ZM334.358 348.16C343.504 348.16 350.971 351.007 356.758 356.7C362.544 362.3 365.438 370.467 365.438 381.2V426H355.778V382.32C355.778 374.013 353.678 367.667 349.478 363.28C345.371 358.893 339.724 356.7 332.538 356.7C325.164 356.7 319.284 359.033 314.898 363.7C310.511 368.367 308.318 375.227 308.318 384.28V426H298.518V349.56H308.318V362.58C310.744 357.913 314.244 354.367 318.818 351.94C323.391 349.42 328.571 348.16 334.358 348.16Z" fill="black"/>
<path d="M35.6312 531.24V636.84C35.6312 653.48 39.5512 665.8 47.3912 673.8C55.3912 681.8 66.2712 685.8 80.0312 685.8C93.7912 685.8 104.511 681.88 112.191 674.04C120.031 666.04 123.951 653.64 123.951 636.84V531.24H140.751V636.6C140.751 657.88 135.071 673.88 123.711 684.6C112.511 695.32 97.8712 700.68 79.7912 700.68C61.7112 700.68 46.9912 695.32 35.6312 684.6C24.4312 673.88 18.8312 657.88 18.8312 636.6V531.24H35.6312ZM201.343 700.12C192.57 700.12 185.383 698.113 179.783 694.1C174.276 689.993 171.196 684.44 170.543 677.44H180.623C181.09 681.733 183.096 685.233 186.643 687.94C190.283 690.553 195.136 691.86 201.203 691.86C206.523 691.86 210.676 690.6 213.663 688.08C216.743 685.56 218.283 682.433 218.283 678.7C218.283 676.087 217.443 673.94 215.763 672.26C214.083 670.58 211.936 669.273 209.323 668.34C206.803 667.313 203.35 666.24 198.963 665.12C193.27 663.627 188.65 662.133 185.103 660.64C181.556 659.147 178.523 656.953 176.003 654.06C173.576 651.073 172.363 647.107 172.363 642.16C172.363 638.427 173.483 634.973 175.723 631.8C177.963 628.627 181.136 626.107 185.243 624.24C189.35 622.373 194.016 621.44 199.243 621.44C207.456 621.44 214.083 623.54 219.123 627.74C224.163 631.847 226.87 637.54 227.243 644.82H217.443C217.163 640.34 215.39 636.747 212.123 634.04C208.95 631.24 204.563 629.84 198.963 629.84C194.016 629.84 190.003 631.007 186.923 633.34C183.843 635.673 182.303 638.567 182.303 642.02C182.303 645.007 183.19 647.48 184.963 649.44C186.83 651.307 189.116 652.8 191.823 653.92C194.53 654.947 198.17 656.113 202.743 657.42C208.25 658.913 212.636 660.36 215.903 661.76C219.17 663.16 221.97 665.213 224.303 667.92C226.636 670.627 227.85 674.22 227.943 678.7C227.943 682.807 226.823 686.493 224.583 689.76C222.343 692.933 219.216 695.453 215.203 697.32C211.19 699.187 206.57 700.12 201.343 700.12ZM254.09 608.14C252.13 608.14 250.45 607.44 249.05 606.04C247.65 604.64 246.95 602.913 246.95 600.86C246.95 598.807 247.65 597.127 249.05 595.82C250.45 594.42 252.13 593.72 254.09 593.72C256.05 593.72 257.73 594.42 259.13 595.82C260.53 597.127 261.23 598.807 261.23 600.86C261.23 602.913 260.53 604.64 259.13 606.04C257.73 607.44 256.05 608.14 254.09 608.14ZM258.99 622.56V699H249.19V622.56H258.99ZM319.822 621.16C328.969 621.16 336.436 624.007 342.222 629.7C348.009 635.3 350.902 643.467 350.902 654.2V699H341.242V655.32C341.242 647.013 339.142 640.667 334.942 636.28C330.836 631.893 325.189 629.7 318.002 629.7C310.629 629.7 304.749 632.033 300.362 636.7C295.976 641.367 293.782 648.227 293.782 657.28V699H283.982V622.56H293.782V635.58C296.209 630.913 299.709 627.367 304.282 624.94C308.856 622.42 314.036 621.16 319.822 621.16ZM407.436 621.44C414.623 621.44 420.876 623.12 426.196 626.48C431.516 629.84 435.343 634.087 437.676 639.22V622.56H447.476V700.96C447.476 707.96 445.936 714.167 442.856 719.58C439.87 724.993 435.67 729.147 430.256 732.04C424.843 735.027 418.683 736.52 411.776 736.52C401.976 736.52 393.81 734.187 387.276 729.52C380.836 724.853 376.823 718.507 375.236 710.48H384.896C386.576 715.8 389.75 720.047 394.416 723.22C399.176 726.393 404.963 727.98 411.776 727.98C416.723 727.98 421.156 726.907 425.076 724.76C428.996 722.707 432.076 719.627 434.316 715.52C436.556 711.413 437.676 706.56 437.676 700.96V682.06C435.25 687.287 431.376 691.627 426.056 695.08C420.83 698.44 414.623 700.12 407.436 700.12C400.436 700.12 394.136 698.487 388.536 695.22C383.03 691.953 378.69 687.333 375.516 681.36C372.436 675.387 370.896 668.48 370.896 660.64C370.896 652.8 372.436 645.94 375.516 640.06C378.69 634.087 383.03 629.513 388.536 626.34C394.136 623.073 400.436 621.44 407.436 621.44ZM437.676 660.78C437.676 654.62 436.416 649.207 433.896 644.54C431.376 639.873 427.923 636.28 423.536 633.76C419.243 631.24 414.483 629.98 409.256 629.98C403.843 629.98 398.99 631.193 394.696 633.62C390.403 636.047 386.996 639.593 384.476 644.26C382.05 648.833 380.836 654.293 380.836 660.64C380.836 666.893 382.05 672.4 384.476 677.16C386.996 681.827 390.403 685.42 394.696 687.94C398.99 690.367 403.843 691.58 409.256 691.58C414.483 691.58 419.243 690.32 423.536 687.8C427.923 685.28 431.376 681.687 433.896 677.02C436.416 672.353 437.676 666.94 437.676 660.78Z" fill="black"/>
<path d="M532.021 716V538.88H605.221C616.741 538.88 626.341 540.96 634.021 545.12C641.861 549.12 648.101 555.04 652.741 562.88C657.381 570.56 660.661 579.84 662.581 590.72C664.661 601.6 665.701 613.84 665.701 627.44C665.701 646.96 663.461 663.28 658.981 676.4C654.501 689.36 647.781 699.2 638.821 705.92C629.861 712.64 618.661 716 605.221 716H532.021ZM561.541 689.36H602.341C610.501 689.36 616.981 686.96 621.781 682.16C626.741 677.36 630.341 670.32 632.581 661.04C634.981 651.76 636.181 640.56 636.181 627.44C636.181 615.28 635.461 605.2 634.021 597.2C632.581 589.2 630.501 582.88 627.781 578.24C625.061 573.6 621.541 570.32 617.221 568.4C613.061 566.48 608.101 565.52 602.341 565.52H561.541V689.36ZM697.568 716V587.36H720.608L727.328 608C732.448 601.76 738.128 596.48 744.368 592.16C750.608 587.84 758.048 585.68 766.688 585.68C768.448 585.68 770.288 585.84 772.208 586.16C774.128 586.32 775.888 586.64 777.488 587.12V617.36C775.248 617.04 772.848 616.8 770.288 616.64C767.728 616.48 765.248 616.4 762.848 616.4C757.888 616.4 753.328 616.96 749.168 618.08C745.168 619.2 741.408 620.96 737.888 623.36C734.368 625.6 730.848 628.48 727.328 632V716H697.568ZM806.755 566.96C803.715 566.96 802.195 565.52 802.195 562.64V540.8C802.195 537.6 803.715 536 806.755 536H829.315C830.755 536 831.795 536.48 832.435 537.44C833.235 538.4 833.635 539.52 833.635 540.8V562.64C833.635 565.52 832.195 566.96 829.315 566.96H806.755ZM802.915 716V587.36H832.675V716H802.915ZM874.91 716V611.36H856.19V592.16L874.91 587.36V575.12C874.91 564.4 876.67 555.84 880.19 549.44C883.87 543.04 889.39 538.48 896.75 535.76C904.27 532.88 913.87 531.44 925.55 531.44C934.51 531.44 943.07 531.76 951.23 532.4C959.55 533.04 967.15 533.84 974.03 534.8C980.91 535.6 986.75 536.48 991.55 537.44V557.84C986.43 557.36 980.27 556.96 973.07 556.64C966.03 556.32 958.75 556.08 951.23 555.92C943.71 555.76 936.59 555.68 929.87 555.68C923.47 555.68 918.35 556.48 914.51 558.08C910.83 559.68 908.27 562 906.83 565.04C905.39 568.08 904.67 571.92 904.67 576.56V587.36H939.95V611.36H904.67V716H874.91ZM999.95 716C991.47 716 984.35 714.64 978.59 711.92C972.99 709.04 968.75 704.48 965.87 698.24C963.15 692 961.79 684 961.79 674.24V542.24H991.55V669.92C991.55 675.68 992.11 680.16 993.23 683.36C994.51 686.56 996.27 688.88 998.51 690.32C1000.75 691.76 1003.47 692.72 1006.67 693.2L1017.47 694.64V716H999.95ZM1078.49 772.88L1093.37 716C1087.13 716 1081.45 714.8 1076.33 712.4C1071.37 710 1067.13 706.4 1063.61 701.6C1060.09 696.8 1057.21 690.64 1054.97 683.12L1028.57 587.36H1059.29L1082.57 677.12C1083.69 680.8 1085.05 683.6 1086.65 685.52C1088.25 687.44 1089.85 688.88 1091.45 689.84C1093.05 690.64 1094.49 691.12 1095.77 691.28C1097.21 691.44 1098.17 691.52 1098.65 691.52L1125.29 587.36H1155.53L1114.25 749.12L1102.73 772.88H1078.49ZM1225.04 717.44C1221.36 717.44 1217.12 717.28 1212.32 716.96C1207.68 716.8 1202.96 716.48 1198.16 716C1193.52 715.68 1189.2 715.2 1185.2 714.56C1181.2 713.92 1177.92 713.2 1175.36 712.4V694.88H1230.8C1234.8 694.88 1238.16 694.56 1240.88 693.92C1243.76 693.28 1245.92 692 1247.36 690.08C1248.8 688.16 1249.52 685.28 1249.52 681.44V676.88C1249.52 672.88 1248.16 669.76 1245.44 667.52C1242.88 665.12 1238.32 663.92 1231.76 663.92H1212.32C1204.8 663.92 1198.08 662.88 1192.16 660.8C1186.4 658.72 1181.84 655.2 1178.48 650.24C1175.12 645.28 1173.44 638.56 1173.44 630.08V622.88C1173.44 614.72 1174.96 608 1178 602.72C1181.2 597.28 1186.4 593.2 1193.6 590.48C1200.96 587.6 1210.72 586.16 1222.88 586.16C1228 586.16 1233.52 586.4 1239.44 586.88C1245.36 587.36 1251.04 588 1256.48 588.8C1261.92 589.44 1266.24 590.24 1269.44 591.2V608.72H1217.12C1211.2 608.72 1206.64 609.76 1203.44 611.84C1200.4 613.76 1198.88 617.44 1198.88 622.88V627.44C1198.88 630.96 1199.6 633.6 1201.04 635.36C1202.48 637.12 1204.64 638.32 1207.52 638.96C1210.4 639.6 1213.84 639.92 1217.84 639.92H1237.76C1250.4 639.92 1259.76 642.8 1265.84 648.56C1271.92 654.32 1274.96 662.48 1274.96 673.04V683.6C1274.96 692.24 1272.96 699.04 1268.96 704C1264.96 708.96 1259.2 712.48 1251.68 714.56C1244.32 716.48 1235.44 717.44 1225.04 717.44Z" fill="black"/>
<path d="M553.239 417.2H709.839V440H526.239V18.8H553.239V417.2Z" fill="black"/>
<path d="M818.71 412.86C818.71 416.22 818.617 418.787 818.43 420.56H755.01C755.29 426.347 756.69 431.293 759.21 435.4C761.73 439.507 765.043 442.633 769.15 444.78C773.257 446.833 777.737 447.86 782.59 447.86C788.937 447.86 794.257 446.32 798.55 443.24C802.937 440.16 805.83 436.007 807.23 430.78H817.59C815.723 438.247 811.71 444.36 805.55 449.12C799.483 453.787 791.83 456.12 782.59 456.12C775.403 456.12 768.963 454.533 763.27 451.36C757.577 448.093 753.097 443.52 749.83 437.64C746.657 431.667 745.07 424.713 745.07 416.78C745.07 408.847 746.657 401.893 749.83 395.92C753.003 389.947 757.437 385.373 763.13 382.2C768.823 379.027 775.31 377.44 782.59 377.44C789.87 377.44 796.217 379.027 801.63 382.2C807.137 385.373 811.337 389.667 814.23 395.08C817.217 400.4 818.71 406.327 818.71 412.86ZM808.77 412.58C808.863 406.887 807.697 402.033 805.27 398.02C802.937 394.007 799.717 390.973 795.61 388.92C791.503 386.867 787.023 385.84 782.17 385.84C774.89 385.84 768.683 388.173 763.55 392.84C758.417 397.507 755.57 404.087 755.01 412.58H808.77ZM866.6 445.48L892.36 378.56H902.72L872.06 455H861L830.34 378.56H840.84L866.6 445.48ZM987.962 412.86C987.962 416.22 987.869 418.787 987.682 420.56H924.262C924.542 426.347 925.942 431.293 928.462 435.4C930.982 439.507 934.296 442.633 938.402 444.78C942.509 446.833 946.989 447.86 951.842 447.86C958.189 447.86 963.509 446.32 967.802 443.24C972.189 440.16 975.082 436.007 976.482 430.78H986.842C984.976 438.247 980.962 444.36 974.802 449.12C968.736 453.787 961.082 456.12 951.842 456.12C944.656 456.12 938.216 454.533 932.522 451.36C926.829 448.093 922.349 443.52 919.082 437.64C915.909 431.667 914.322 424.713 914.322 416.78C914.322 408.847 915.909 401.893 919.082 395.92C922.256 389.947 926.689 385.373 932.382 382.2C938.076 379.027 944.562 377.44 951.842 377.44C959.122 377.44 965.469 379.027 970.882 382.2C976.389 385.373 980.589 389.667 983.482 395.08C986.469 400.4 987.962 406.327 987.962 412.86ZM978.022 412.58C978.116 406.887 976.949 402.033 974.522 398.02C972.189 394.007 968.969 390.973 964.862 388.92C960.756 386.867 956.276 385.84 951.422 385.84C944.142 385.84 937.936 388.173 932.802 392.84C927.669 397.507 924.822 404.087 924.262 412.58H978.022ZM1018.49 392.14C1020.64 387.38 1023.91 383.693 1028.29 381.08C1032.77 378.467 1038.23 377.16 1044.67 377.16V387.38H1042.01C1034.92 387.38 1029.23 389.293 1024.93 393.12C1020.64 396.947 1018.49 403.34 1018.49 412.3V455H1008.69V378.56H1018.49V392.14ZM1057.73 416.64C1057.73 408.8 1059.27 401.94 1062.35 396.06C1065.53 390.087 1069.87 385.513 1075.37 382.34C1080.97 379.073 1087.27 377.44 1094.27 377.44C1101.55 377.44 1107.81 379.12 1113.03 382.48C1118.35 385.84 1122.18 390.133 1124.51 395.36V378.56H1134.31V455H1124.51V438.06C1122.09 443.287 1118.21 447.627 1112.89 451.08C1107.67 454.44 1101.41 456.12 1094.13 456.12C1087.23 456.12 1080.97 454.487 1075.37 451.22C1069.87 447.953 1065.53 443.333 1062.35 437.36C1059.27 431.387 1057.73 424.48 1057.73 416.64ZM1124.51 416.78C1124.51 410.62 1123.25 405.207 1120.73 400.54C1118.21 395.873 1114.76 392.28 1110.37 389.76C1106.08 387.24 1101.32 385.98 1096.09 385.98C1090.68 385.98 1085.83 387.193 1081.53 389.62C1077.24 392.047 1073.83 395.593 1071.31 400.26C1068.89 404.833 1067.67 410.293 1067.67 416.64C1067.67 422.893 1068.89 428.4 1071.31 433.16C1073.83 437.827 1077.24 441.42 1081.53 443.94C1085.83 446.367 1090.68 447.58 1096.09 447.58C1101.32 447.58 1106.08 446.32 1110.37 443.8C1114.76 441.28 1118.21 437.687 1120.73 433.02C1123.25 428.353 1124.51 422.94 1124.51 416.78ZM1191.55 377.44C1198.73 377.44 1204.99 379.12 1210.31 382.48C1215.63 385.84 1219.45 390.087 1221.79 395.22V378.56H1231.59V456.96C1231.59 463.96 1230.05 470.167 1226.97 475.58C1223.98 480.993 1219.78 485.147 1214.37 488.04C1208.95 491.027 1202.79 492.52 1195.89 492.52C1186.09 492.52 1177.92 490.187 1171.39 485.52C1164.95 480.853 1160.93 474.507 1159.35 466.48H1169.01C1170.69 471.8 1173.86 476.047 1178.53 479.22C1183.29 482.393 1189.07 483.98 1195.89 483.98C1200.83 483.98 1205.27 482.907 1209.19 480.76C1213.11 478.707 1216.19 475.627 1218.43 471.52C1220.67 467.413 1221.79 462.56 1221.79 456.96V438.06C1219.36 443.287 1215.49 447.627 1210.17 451.08C1204.94 454.44 1198.73 456.12 1191.55 456.12C1184.55 456.12 1178.25 454.487 1172.65 451.22C1167.14 447.953 1162.8 443.333 1159.63 437.36C1156.55 431.387 1155.01 424.48 1155.01 416.64C1155.01 408.8 1156.55 401.94 1159.63 396.06C1162.8 390.087 1167.14 385.513 1172.65 382.34C1178.25 379.073 1184.55 377.44 1191.55 377.44ZM1221.79 416.78C1221.79 410.62 1220.53 405.207 1218.01 400.54C1215.49 395.873 1212.03 392.28 1207.65 389.76C1203.35 387.24 1198.59 385.98 1193.37 385.98C1187.95 385.98 1183.1 387.193 1178.81 389.62C1174.51 392.047 1171.11 395.593 1168.59 400.26C1166.16 404.833 1164.95 410.293 1164.95 416.64C1164.95 422.893 1166.16 428.4 1168.59 433.16C1171.11 437.827 1174.51 441.42 1178.81 443.94C1183.1 446.367 1187.95 447.58 1193.37 447.58C1198.59 447.58 1203.35 446.32 1207.65 443.8C1212.03 441.28 1215.49 437.687 1218.01 433.02C1220.53 428.353 1221.79 422.94 1221.79 416.78ZM1325.92 412.86C1325.92 416.22 1325.83 418.787 1325.64 420.56H1262.22C1262.5 426.347 1263.9 431.293 1266.42 435.4C1268.94 439.507 1272.25 442.633 1276.36 444.78C1280.47 446.833 1284.95 447.86 1289.8 447.86C1296.15 447.86 1301.47 446.32 1305.76 443.24C1310.15 440.16 1313.04 436.007 1314.44 430.78H1324.8C1322.93 438.247 1318.92 444.36 1312.76 449.12C1306.69 453.787 1299.04 456.12 1289.8 456.12C1282.61 456.12 1276.17 454.533 1270.48 451.36C1264.79 448.093 1260.31 443.52 1257.04 437.64C1253.87 431.667 1252.28 424.713 1252.28 416.78C1252.28 408.847 1253.87 401.893 1257.04 395.92C1260.21 389.947 1264.65 385.373 1270.34 382.2C1276.03 379.027 1282.52 377.44 1289.8 377.44C1297.08 377.44 1303.43 379.027 1308.84 382.2C1314.35 385.373 1318.55 389.667 1321.44 395.08C1324.43 400.4 1325.92 406.327 1325.92 412.86ZM1315.98 412.58C1316.07 406.887 1314.91 402.033 1312.48 398.02C1310.15 394.007 1306.93 390.973 1302.82 388.92C1298.71 386.867 1294.23 385.84 1289.38 385.84C1282.1 385.84 1275.89 388.173 1270.76 392.84C1265.63 397.507 1262.78 404.087 1262.22 412.58H1315.98Z" fill="black"/>
</svg>
