<svg width="706" height="655" viewBox="0 0 706 655" fill="none" xmlns="http://www.w3.org/2000/svg">
<path d="M74 433.5C74 414.446 89.4462 399 108.5 399C127.554 399 143 414.446 143 433.5V566H74V433.5Z" fill="#EAEAEA"/>
<path d="M211.75 308.5C211.75 289.446 227.196 274 246.25 274C265.304 274 280.75 289.446 280.75 308.5V566H211.75V308.5Z" fill="#EAEAEA"/>
<path d="M349.5 241.5C349.5 222.446 364.946 207 384 207C403.054 207 418.5 222.446 418.5 241.5V566H349.5V241.5Z" fill="#EAEAEA"/>
<path d="M487.25 159.5C487.25 140.446 502.696 125 521.75 125C540.804 125 556.25 140.446 556.25 159.5V566H487.25V159.5Z" fill="#EAEAEA"/>
<path d="M625 34.5C625 15.4462 640.446 0 659.5 0C678.554 0 694 15.4462 694 34.5V566H625V34.5Z" fill="#2563EB"/>
<path d="M55 588H706" stroke="#B5B5B5" stroke-width="2"/>
<path d="M55 588H706" stroke="#B5B5B5" stroke-width="2"/>
<line x1="56" y1="4.54925e-08" x2="56" y2="589" stroke="#B5B5B5" stroke-width="2"/>
<path d="M315.18 622.09V624.31H309.48V643H306.75V624.31H301.02V622.09H315.18ZM325.95 623.89C325.43 623.89 324.99 623.71 324.63 623.35C324.27 622.99 324.09 622.55 324.09 622.03C324.09 621.51 324.27 621.07 324.63 620.71C324.99 620.35 325.43 620.17 325.95 620.17C326.45 620.17 326.87 620.35 327.21 620.71C327.57 621.07 327.75 621.51 327.75 622.03C327.75 622.55 327.57 622.99 327.21 623.35C326.87 623.71 326.45 623.89 325.95 623.89ZM327.27 626.56V643H324.54V626.56H327.27ZM357.693 626.26C358.973 626.26 360.113 626.53 361.113 627.07C362.113 627.59 362.903 628.38 363.483 629.44C364.063 630.5 364.353 631.79 364.353 633.31V643H361.653V633.7C361.653 632.06 361.243 630.81 360.423 629.95C359.623 629.07 358.533 628.63 357.153 628.63C355.733 628.63 354.603 629.09 353.763 630.01C352.923 630.91 352.503 632.22 352.503 633.94V643H349.803V633.7C349.803 632.06 349.393 630.81 348.573 629.95C347.773 629.07 346.683 628.63 345.303 628.63C343.883 628.63 342.753 629.09 341.913 630.01C341.073 630.91 340.653 632.22 340.653 633.94V643H337.923V626.56H340.653V628.93C341.193 628.07 341.913 627.41 342.813 626.95C343.733 626.49 344.743 626.26 345.843 626.26C347.223 626.26 348.443 626.57 349.503 627.19C350.563 627.81 351.353 628.72 351.873 629.92C352.333 628.76 353.093 627.86 354.153 627.22C355.213 626.58 356.393 626.26 357.693 626.26ZM389.831 634.15C389.831 634.67 389.801 635.22 389.741 635.8H376.601C376.701 637.42 377.251 638.69 378.251 639.61C379.271 640.51 380.501 640.96 381.941 640.96C383.121 640.96 384.101 640.69 384.881 640.15C385.681 639.59 386.241 638.85 386.561 637.93H389.501C389.061 639.51 388.181 640.8 386.861 641.8C385.541 642.78 383.901 643.27 381.941 643.27C380.381 643.27 378.981 642.92 377.741 642.22C376.521 641.52 375.561 640.53 374.861 639.25C374.161 637.95 373.811 636.45 373.811 634.75C373.811 633.05 374.151 631.56 374.831 630.28C375.511 629 376.461 628.02 377.681 627.34C378.921 626.64 380.341 626.29 381.941 626.29C383.501 626.29 384.881 626.63 386.081 627.31C387.281 627.99 388.201 628.93 388.841 630.13C389.501 631.31 389.831 632.65 389.831 634.15ZM387.011 633.58C387.011 632.54 386.781 631.65 386.321 630.91C385.861 630.15 385.231 629.58 384.431 629.2C383.651 628.8 382.781 628.6 381.821 628.6C380.441 628.6 379.261 629.04 378.281 629.92C377.321 630.8 376.771 632.02 376.631 633.58H387.011ZM402.165 620.8V643H399.435V620.8H402.165ZM414.228 623.89C413.708 623.89 413.268 623.71 412.908 623.35C412.548 622.99 412.368 622.55 412.368 622.03C412.368 621.51 412.548 621.07 412.908 620.71C413.268 620.35 413.708 620.17 414.228 620.17C414.728 620.17 415.148 620.35 415.488 620.71C415.848 621.07 416.028 621.51 416.028 622.03C416.028 622.55 415.848 622.99 415.488 623.35C415.148 623.71 414.728 623.89 414.228 623.89ZM415.548 626.56V643H412.818V626.56H415.548ZM434.211 626.26C436.211 626.26 437.831 626.87 439.071 628.09C440.311 629.29 440.931 631.03 440.931 633.31V643H438.231V633.7C438.231 632.06 437.821 630.81 437.001 629.95C436.181 629.07 435.061 628.63 433.641 628.63C432.201 628.63 431.051 629.08 430.191 629.98C429.351 630.88 428.931 632.19 428.931 633.91V643H426.201V626.56H428.931V628.9C429.471 628.06 430.201 627.41 431.121 626.95C432.061 626.49 433.091 626.26 434.211 626.26ZM466.39 634.15C466.39 634.67 466.36 635.22 466.3 635.8H453.16C453.26 637.42 453.81 638.69 454.81 639.61C455.83 640.51 457.06 640.96 458.5 640.96C459.68 640.96 460.66 640.69 461.44 640.15C462.24 639.59 462.8 638.85 463.12 637.93H466.06C465.62 639.51 464.74 640.8 463.42 641.8C462.1 642.78 460.46 643.27 458.5 643.27C456.94 643.27 455.54 642.92 454.3 642.22C453.08 641.52 452.12 640.53 451.42 639.25C450.72 637.95 450.37 636.45 450.37 634.75C450.37 633.05 450.71 631.56 451.39 630.28C452.07 629 453.02 628.02 454.24 627.34C455.48 626.64 456.9 626.29 458.5 626.29C460.06 626.29 461.44 626.63 462.64 627.31C463.84 627.99 464.76 628.93 465.4 630.13C466.06 631.31 466.39 632.65 466.39 634.15ZM463.57 633.58C463.57 632.54 463.34 631.65 462.88 630.91C462.42 630.15 461.79 629.58 460.99 629.2C460.21 628.8 459.34 628.6 458.38 628.6C457 628.6 455.82 629.04 454.84 629.92C453.88 630.8 453.33 632.02 453.19 633.58H463.57Z" fill="#7D7D7D"/>
<path d="M18.21 355.71C19.95 355.71 21.4 356.31 22.56 357.51C23.7 358.69 24.27 360.5 24.27 362.94V366.96H33V369.69H12.09V362.94C12.09 360.58 12.66 358.79 13.8 357.57C14.94 356.33 16.41 355.71 18.21 355.71ZM22.02 362.94C22.02 361.42 21.69 360.3 21.03 359.58C20.37 358.86 19.43 358.5 18.21 358.5C15.63 358.5 14.34 359.98 14.34 362.94V366.96H22.02V362.94ZM33.27 339.147C33.27 340.687 32.92 342.087 32.22 343.347C31.52 344.587 30.53 345.567 29.25 346.287C27.95 346.987 26.45 347.337 24.75 347.337C23.07 347.337 21.59 346.977 20.31 346.257C19.01 345.517 18.02 344.517 17.34 343.257C16.64 341.997 16.29 340.587 16.29 339.027C16.29 337.467 16.64 336.057 17.34 334.797C18.02 333.537 19 332.547 20.28 331.827C21.56 331.087 23.05 330.717 24.75 330.717C26.45 330.717 27.95 331.097 29.25 331.857C30.53 332.597 31.52 333.607 32.22 334.887C32.92 336.167 33.27 337.587 33.27 339.147ZM30.87 339.147C30.87 338.167 30.64 337.247 30.18 336.387C29.72 335.527 29.03 334.837 28.11 334.317C27.19 333.777 26.07 333.507 24.75 333.507C23.43 333.507 22.31 333.767 21.39 334.287C20.47 334.807 19.79 335.487 19.35 336.327C18.89 337.167 18.66 338.077 18.66 339.057C18.66 340.057 18.89 340.977 19.35 341.817C19.79 342.637 20.47 343.297 21.39 343.797C22.31 344.297 23.43 344.547 24.75 344.547C26.09 344.547 27.22 344.307 28.14 343.827C29.06 343.327 29.75 342.667 30.21 341.847C30.65 341.027 30.87 340.127 30.87 339.147ZM19.59 318.397C18.65 317.857 17.87 317.057 17.25 315.997C16.61 314.917 16.29 313.667 16.29 312.247C16.29 310.787 16.64 309.467 17.34 308.288C18.04 307.088 19.03 306.147 20.31 305.467C21.57 304.787 23.04 304.447 24.72 304.447C26.38 304.447 27.86 304.787 29.16 305.467C30.46 306.147 31.47 307.088 32.19 308.288C32.91 309.467 33.27 310.787 33.27 312.247C33.27 313.647 32.96 314.887 32.34 315.967C31.7 317.027 30.91 317.837 29.97 318.397H40.8V321.127H16.56V318.397H19.59ZM24.72 307.237C23.48 307.237 22.4 307.487 21.48 307.987C20.56 308.487 19.86 309.167 19.38 310.027C18.9 310.867 18.66 311.797 18.66 312.817C18.66 313.817 18.91 314.747 19.41 315.607C19.89 316.447 20.6 317.127 21.54 317.647C22.46 318.147 23.53 318.397 24.75 318.397C25.99 318.397 27.08 318.147 28.02 317.647C28.94 317.127 29.65 316.447 30.15 315.607C30.63 314.747 30.87 313.817 30.87 312.817C30.87 311.797 30.63 310.867 30.15 310.027C29.65 309.167 28.94 308.487 28.02 307.987C27.08 307.487 25.98 307.237 24.72 307.237ZM16.56 280.274H33V283.004H30.57C31.41 283.524 32.07 284.254 32.55 285.194C33.01 286.114 33.24 287.134 33.24 288.254C33.24 289.534 32.98 290.684 32.46 291.704C31.92 292.724 31.12 293.534 30.06 294.134C29 294.714 27.71 295.004 26.19 295.004H16.56V292.304H25.83C27.45 292.304 28.7 291.894 29.58 291.074C30.44 290.254 30.87 289.134 30.87 287.714C30.87 286.254 30.42 285.104 29.52 284.264C28.62 283.424 27.31 283.004 25.59 283.004H16.56V280.274ZM10.8 266.935H33V269.665H10.8V266.935ZM24.72 257.302C23.04 257.302 21.57 256.962 20.31 256.282C19.03 255.602 18.04 254.672 17.34 253.492C16.64 252.292 16.29 250.962 16.29 249.502C16.29 248.062 16.6 246.812 17.22 245.752C17.84 244.692 18.62 243.902 19.56 243.382H16.56V240.622H33V243.382H29.94C30.9 243.922 31.7 244.732 32.34 245.812C32.96 246.872 33.27 248.112 33.27 249.532C33.27 250.992 32.91 252.312 32.19 253.492C31.47 254.672 30.46 255.602 29.16 256.282C27.86 256.962 26.38 257.302 24.72 257.302ZM24.75 243.382C23.51 243.382 22.43 243.632 21.51 244.132C20.59 244.632 19.89 245.312 19.41 246.172C18.91 247.012 18.66 247.942 18.66 248.962C18.66 249.982 18.9 250.912 19.38 251.752C19.86 252.592 20.56 253.262 21.48 253.762C22.4 254.262 23.48 254.512 24.72 254.512C25.98 254.512 27.08 254.262 28.02 253.762C28.94 253.262 29.65 252.592 30.15 251.752C30.63 250.912 30.87 249.982 30.87 248.962C30.87 247.942 30.63 247.012 30.15 246.172C29.65 245.312 28.94 244.632 28.02 244.132C27.08 243.632 25.99 243.382 24.75 243.382ZM19.23 227.278C18.29 226.798 17.56 226.118 17.04 225.238C16.52 224.338 16.26 223.248 16.26 221.968H19.08V222.688C19.08 225.748 20.74 227.278 24.06 227.278H33V230.008H16.56V227.278H19.23ZM13.89 211.407C13.89 211.927 13.71 212.367 13.35 212.727C12.99 213.087 12.55 213.267 12.03 213.267C11.51 213.267 11.07 213.087 10.71 212.727C10.35 212.367 10.17 211.927 10.17 211.407C10.17 210.907 10.35 210.487 10.71 210.147C11.07 209.787 11.51 209.607 12.03 209.607C12.55 209.607 12.99 209.787 13.35 210.147C13.71 210.487 13.89 210.907 13.89 211.407ZM16.56 210.087H33V212.817H16.56V210.087ZM18.81 196.104H28.5C29.3 196.104 29.87 195.934 30.21 195.594C30.53 195.254 30.69 194.664 30.69 193.824V191.814H33V194.274C33 195.794 32.65 196.934 31.95 197.694C31.25 198.454 30.1 198.834 28.5 198.834H18.81V200.964H16.56V198.834H12.42V196.104H16.56V191.814H18.81V196.104ZM16.56 168.346L40.74 178.246V181.066L32.82 177.826L16.56 184.456V181.426L29.88 176.266L16.56 171.166V168.346Z" fill="#7D7D7D"/>
</svg>
