<svg xmlns="http://www.w3.org/2000/svg" width="800" height="500" fill="none" xmlns:v="https://vecta.io/nano"><path fill="#fcfcfc" d="M0 0h800v500H0z"/><g fill="#353535"><path d="M68.231 87.473l5.605 1.777c-.859 3.125-2.292 5.449-4.297 6.973-1.992 1.51-4.525 2.266-7.598 2.266-3.802 0-6.927-1.296-9.375-3.887-2.448-2.604-3.672-6.159-3.672-10.664 0-4.766 1.23-8.463 3.691-11.094 2.461-2.643 5.697-3.965 9.707-3.965 3.503 0 6.348 1.035 8.535 3.105 1.302 1.224 2.279 2.982 2.93 5.273l-5.723 1.367c-.339-1.484-1.048-2.656-2.129-3.516-1.068-.859-2.37-1.289-3.906-1.289-2.122 0-3.848.762-5.176 2.285-1.315 1.523-1.973 3.991-1.973 7.402 0 3.62.651 6.198 1.953 7.734s2.995 2.305 5.078 2.305c1.536 0 2.858-.488 3.965-1.465s1.901-2.513 2.383-4.609zM78.816 98V69.367h21.231v4.844H84.598v6.348h14.375v4.824H84.598v7.793h15.996V98H78.816zm26.7 0V69.367h12.168c3.059 0 5.28.26 6.66.781 1.393.508 2.506 1.419 3.34 2.734s1.25 2.819 1.25 4.512c0 2.149-.632 3.926-1.895 5.332-1.263 1.393-3.151 2.272-5.664 2.637 1.25.729 2.279 1.53 3.086 2.402.82.872 1.921 2.422 3.301 4.648L131.258 98h-6.914l-4.18-6.231c-1.484-2.226-2.5-3.626-3.047-4.199-.547-.586-1.126-.983-1.738-1.191-.612-.221-1.582-.332-2.91-.332h-1.172V98h-5.781zm5.781-16.523h4.277c2.774 0 4.505-.117 5.196-.352s1.23-.638 1.621-1.211.586-1.289.586-2.148c0-.964-.261-1.738-.782-2.324-.507-.599-1.23-.977-2.168-1.133-.468-.065-1.875-.098-4.218-.098h-4.512v7.266zM140.848 98V74.211h-8.496v-4.844h22.753v4.844h-8.476V98h-5.781zm17.832 0V69.367h5.781V98h-5.781zm11.347 0V69.367h19.629v4.844h-13.847v6.777h11.953v4.844h-11.953V98h-5.782zm24.239 0V69.367h5.781V98h-5.781zm29.629-10.527l5.605 1.777c-.859 3.125-2.292 5.449-4.297 6.973-1.992 1.51-4.525 2.266-7.598 2.266-3.802 0-6.927-1.296-9.375-3.887-2.447-2.604-3.671-6.159-3.671-10.664 0-4.766 1.23-8.463 3.691-11.094 2.461-2.643 5.697-3.965 9.707-3.965 3.503 0 6.348 1.035 8.535 3.105 1.302 1.224 2.279 2.982 2.93 5.273l-5.723 1.367c-.338-1.484-1.048-2.656-2.129-3.516-1.067-.859-2.369-1.289-3.906-1.289-2.122 0-3.848.762-5.176 2.285-1.315 1.523-1.972 3.991-1.972 7.402 0 3.62.651 6.198 1.953 7.734s2.995 2.305 5.078 2.305c1.536 0 2.858-.488 3.965-1.465s1.901-2.513 2.383-4.609zM260.301 98h-6.289l-2.5-6.504h-11.446L237.703 98h-6.133l11.153-28.633h6.113L260.301 98zm-10.645-11.328l-3.945-10.625-3.867 10.625h7.812zM266.863 98V74.211h-8.496v-4.844h22.754v4.844h-8.476V98h-5.782zm18.008 0V69.367h21.231v4.844h-15.45v6.348h14.375v4.824h-14.375v7.793h15.996V98h-21.777zM48.738 140.859c0-2.916.436-5.364 1.309-7.343a13.56 13.56 0 0 1 2.656-3.926c1.133-1.159 2.37-2.018 3.711-2.578 1.784-.755 3.841-1.133 6.172-1.133 4.219 0 7.591 1.309 10.117 3.926 2.539 2.617 3.809 6.256 3.809 10.918 0 4.622-1.257 8.242-3.77 10.859-2.513 2.604-5.872 3.906-10.078 3.906-4.258 0-7.643-1.295-10.156-3.886-2.513-2.605-3.77-6.185-3.77-10.743zm5.957-.195c0 3.242.749 5.703 2.246 7.383 1.497 1.667 3.398 2.5 5.703 2.5s4.193-.827 5.664-2.481c1.484-1.666 2.227-4.16 2.227-7.48 0-3.281-.723-5.729-2.168-7.344-1.432-1.614-3.34-2.422-5.723-2.422s-4.303.821-5.762 2.461c-1.458 1.628-2.187 4.089-2.187 7.383zM81.082 155v-28.633h19.629v4.844H86.863v6.777h11.953v4.844H86.863V155h-5.781zm59.883 0h-6.289l-2.5-6.504H120.73L118.367 155h-6.133l11.153-28.633h6.113L140.965 155zm-10.645-11.328l-3.945-10.625-3.867 10.625h7.812zM144.051 155v-28.633h9.277c3.516 0 5.807.143 6.875.43 1.641.43 3.014 1.367 4.121 2.812 1.107 1.433 1.66 3.288 1.66 5.567 0 1.758-.319 3.235-.957 4.433s-1.451 2.142-2.441 2.832c-.977.677-1.973 1.127-2.988 1.348-1.381.273-3.379.41-5.996.41h-3.77V155h-5.781zm5.781-23.789v8.125h3.164c2.279 0 3.802-.15 4.57-.449s1.368-.769 1.797-1.407c.443-.638.664-1.38.664-2.226 0-1.042-.306-1.901-.918-2.578a4 4 0 0 0-2.324-1.27c-.69-.13-2.077-.195-4.16-.195h-2.793zM170.73 155v-28.633h9.278c3.515 0 5.807.143 6.875.43 1.64.43 3.014 1.367 4.121 2.812 1.107 1.433 1.66 3.288 1.66 5.567 0 1.758-.319 3.235-.957 4.433s-1.452 2.142-2.441 2.832c-.977.677-1.973 1.127-2.989 1.348-1.38.273-3.379.41-5.996.41h-3.769V155h-5.782zm5.782-23.789v8.125h3.164c2.278 0 3.802-.15 4.57-.449s1.367-.769 1.797-1.407c.443-.638.664-1.38.664-2.226 0-1.042-.306-1.901-.918-2.578s-1.387-1.1-2.324-1.27c-.69-.13-2.077-.195-4.16-.195h-2.793zM197.43 155v-28.633h12.168c3.06 0 5.28.261 6.66.781 1.393.508 2.506 1.42 3.34 2.735s1.25 2.819 1.25 4.512c0 2.148-.632 3.925-1.895 5.332-1.263 1.393-3.151 2.272-5.664 2.636 1.25.729 2.279 1.53 3.086 2.403.82.872 1.921 2.422 3.301 4.648l3.496 5.586h-6.914l-4.18-6.23c-1.484-2.227-2.5-3.627-3.047-4.2-.547-.586-1.126-.983-1.738-1.191-.612-.221-1.582-.332-2.91-.332h-1.172V155h-5.781zm5.781-16.523h4.277c2.774 0 4.505-.118 5.196-.352s1.23-.638 1.621-1.211.586-1.289.586-2.148c0-.964-.261-1.739-.782-2.325-.507-.599-1.23-.976-2.168-1.132-.468-.066-1.875-.098-4.218-.098h-4.512v7.266zM226.316 155v-28.633h21.231v4.844h-15.449v6.348h14.375v4.824h-14.375v7.793h15.996V155h-21.778zm45-10.527l5.606 1.777c-.86 3.125-2.292 5.449-4.297 6.973-1.992 1.51-4.525 2.265-7.598 2.265-3.802 0-6.927-1.295-9.375-3.886-2.448-2.605-3.672-6.159-3.672-10.664 0-4.766 1.231-8.464 3.692-11.094 2.461-2.643 5.696-3.965 9.707-3.965 3.503 0 6.348 1.035 8.535 3.105 1.302 1.224 2.279 2.982 2.93 5.274l-5.723 1.367c-.338-1.484-1.048-2.656-2.129-3.516-1.068-.859-2.37-1.289-3.906-1.289-2.122 0-3.848.762-5.176 2.285-1.315 1.524-1.972 3.991-1.972 7.403 0 3.62.651 6.198 1.953 7.734s2.994 2.305 5.078 2.305c1.536 0 2.858-.488 3.965-1.465s1.901-2.513 2.382-4.609zM281.727 155v-28.633h5.781V155h-5.781zm37.128 0h-6.289l-2.5-6.504h-11.445L296.258 155h-6.133l11.152-28.633h6.114L318.855 155zm-10.644-11.328l-3.945-10.625-3.868 10.625h7.813zM325.418 155v-23.789h-8.496v-4.844h22.754v4.844h-8.477V155h-5.781zm17.832 0v-28.633h5.781V155h-5.781zm10.137-14.141c0-2.916.436-5.364 1.308-7.343.651-1.459 1.537-2.767 2.657-3.926 1.132-1.159 2.369-2.018 3.71-2.578 1.784-.755 3.842-1.133 6.172-1.133 4.219 0 7.592 1.309 10.118 3.926 2.539 2.617 3.808 6.256 3.808 10.918 0 4.622-1.256 8.242-3.769 10.859-2.513 2.604-5.873 3.906-10.079 3.906-4.257 0-7.643-1.295-10.156-3.886-2.513-2.605-3.769-6.185-3.769-10.743zm5.957-.195c0 3.242.748 5.703 2.246 7.383 1.497 1.667 3.398 2.5 5.703 2.5s4.193-.827 5.664-2.481c1.484-1.666 2.227-4.16 2.227-7.48 0-3.281-.723-5.729-2.168-7.344-1.433-1.614-3.34-2.422-5.723-2.422s-4.303.821-5.762 2.461c-1.458 1.628-2.187 4.089-2.187 7.383zM385.75 155v-28.633h5.625l11.719 19.121v-19.121h5.371V155h-5.801l-11.543-18.672V155h-5.371z"/><path d="M50.639 195l-3.419-12.885h1.749l1.96 8.447.545 2.636.58-2.382 2.452-8.701h2.057l1.846 6.522c.463 1.617.797 3.137 1.002 4.561l.642-2.803 2.021-8.28h1.714L60.254 195H58.61l-2.716-9.817-.404-1.512-.378 1.512L52.379 195h-1.74zm20.602-3.006l1.635.202c-.258.955-.735 1.697-1.433 2.224s-1.588.791-2.672.791c-1.365 0-2.449-.419-3.252-1.257-.797-.844-1.195-2.024-1.195-3.542 0-1.57.404-2.789 1.213-3.656s1.858-1.301 3.146-1.301c1.248 0 2.268.425 3.059 1.274s1.186 2.045 1.186 3.586l-.009.422h-6.961c.059 1.026.349 1.811.87 2.356s1.172.817 1.951.817c.58 0 1.075-.152 1.485-.457s.735-.791.976-1.459zm-5.194-2.557h5.212c-.07-.786-.27-1.375-.598-1.767-.504-.609-1.157-.914-1.96-.914-.727 0-1.339.243-1.837.729-.492.487-.765 1.137-.817 1.952zM79.88 195v-12.885h1.582v4.623c.738-.855 1.67-1.283 2.795-1.283.691 0 1.292.138 1.802.413s.873.645 1.09 1.125c.223.481.334 1.178.334 2.092V195H85.9v-5.915c0-.791-.173-1.365-.519-1.723-.34-.363-.823-.545-1.45-.545-.469 0-.911.123-1.327.37a2.04 2.04 0 0 0-.879.984c-.176.416-.264.99-.264 1.723V195H79.88zm16.409-3.006l1.635.202c-.258.955-.735 1.697-1.433 2.224s-1.588.791-2.672.791c-1.365 0-2.449-.419-3.252-1.257-.797-.844-1.195-2.024-1.195-3.542 0-1.57.404-2.789 1.213-3.656s1.857-1.301 3.146-1.301c1.248 0 2.268.425 3.059 1.274s1.187 2.045 1.187 3.586l-.009.422h-6.961c.059 1.026.349 1.811.87 2.356s1.172.817 1.951.817c.58 0 1.075-.152 1.485-.457s.735-.791.976-1.459zm-5.194-2.557h5.212c-.07-.786-.27-1.375-.598-1.767-.504-.609-1.157-.914-1.96-.914-.727 0-1.339.243-1.837.729-.492.487-.765 1.137-.817 1.952zM99.901 195v-9.334h1.424v1.415c.363-.662.697-1.099 1.002-1.31.311-.21.651-.316 1.02-.316.533 0 1.075.17 1.626.51l-.545 1.468c-.387-.229-.774-.343-1.16-.343a1.49 1.49 0 0 0-.932.316c-.275.205-.472.492-.589.862-.176.562-.264 1.177-.264 1.845V195h-1.582zm12.402-3.006l1.635.202c-.258.955-.736 1.697-1.433 2.224s-1.588.791-2.672.791c-1.365 0-2.449-.419-3.252-1.257-.797-.844-1.195-2.024-1.195-3.542 0-1.57.404-2.789 1.213-3.656s1.857-1.301 3.146-1.301c1.248 0 2.268.425 3.059 1.274s1.186 2.045 1.186 3.586l-.009.422h-6.96c.058 1.026.348 1.811.87 2.356s1.171.817 1.951.817c.58 0 1.075-.152 1.485-.457s.735-.791.976-1.459zm-5.195-2.557h5.212c-.07-.786-.269-1.375-.597-1.767-.504-.609-1.158-.914-1.96-.914-.727 0-1.339.243-1.837.729-.492.487-.765 1.137-.818 1.952zM117.392 195h-1.468v-12.885h1.582v4.597c.668-.838 1.52-1.257 2.557-1.257a3.83 3.83 0 0 1 1.626.352 3.22 3.22 0 0 1 1.266.975c.334.416.595.92.782 1.512s.282 1.225.282 1.898c0 1.6-.396 2.836-1.187 3.709s-1.74 1.31-2.848 1.31c-1.101 0-1.965-.46-2.592-1.38V195zm-.018-4.737c0 1.119.152 1.927.457 2.425.498.815 1.172 1.222 2.022 1.222.691 0 1.289-.299 1.793-.896.503-.604.755-1.5.755-2.69 0-1.219-.243-2.118-.729-2.698-.481-.58-1.064-.87-1.749-.87-.692 0-1.289.302-1.793.905-.504.598-.756 1.465-.756 2.602zm8.508 8.332l-.176-1.486c.346.094.648.141.905.141.352 0 .633-.059.844-.176s.384-.281.519-.492c.099-.158.26-.551.483-1.178l.141-.386-3.542-9.352h1.705l1.942 5.405.677 2.162a21.46 21.46 0 0 1 .65-2.127l1.995-5.44h1.582l-3.55 9.492-.888 2.118c-.281.522-.604.903-.967 1.143-.363.246-.797.369-1.301.369-.304 0-.644-.064-1.019-.193zm14.08-.018v-12.911h1.441v1.213c.34-.475.724-.829 1.152-1.064s.946-.36 1.555-.36c.797 0 1.5.205 2.11.615s1.069.991 1.38 1.741c.31.744.465 1.561.465 2.452 0 .955-.172 1.816-.518 2.584-.34.761-.838 1.347-1.494 1.757a3.83 3.83 0 0 1-2.057.607c-.527 0-1.002-.111-1.424-.334-.416-.223-.759-.504-1.028-.844v4.544h-1.582zm1.433-8.191c0 1.201.243 2.089.729 2.663s1.075.861 1.767.861c.703 0 1.303-.296 1.801-.888.504-.597.756-1.52.756-2.768 0-1.19-.246-2.08-.738-2.672-.486-.592-1.069-.888-1.749-.888-.674 0-1.272.317-1.793.95-.516.627-.773 1.541-.773 2.742zm8.569 4.614v-9.334h1.424v1.415c.363-.662.697-1.099 1.002-1.31a1.78 1.78 0 0 1 1.019-.316c.533 0 1.075.17 1.626.51l-.545 1.468c-.386-.229-.773-.343-1.16-.343-.346 0-.656.105-.932.316-.275.205-.471.492-.588.862-.176.562-.264 1.177-.264 1.845V195h-1.582zm12.401-3.006l1.635.202c-.258.955-.735 1.697-1.433 2.224s-1.588.791-2.671.791c-1.366 0-2.45-.419-3.252-1.257-.797-.844-1.196-2.024-1.196-3.542 0-1.57.405-2.789 1.213-3.656s1.858-1.301 3.147-1.301c1.248 0 2.267.425 3.058 1.274s1.187 2.045 1.187 3.586l-.009.422h-6.961c.059 1.026.349 1.811.87 2.356s1.172.817 1.951.817c.58 0 1.075-.152 1.486-.457s.735-.791.975-1.459zm-5.194-2.557h5.212c-.071-.786-.27-1.375-.598-1.767-.504-.609-1.157-.914-1.96-.914-.726 0-1.339.243-1.837.729-.492.487-.764 1.137-.817 1.952zm8.191 2.777l1.565-.246c.088.627.331 1.107.729 1.441.405.334.967.501 1.688.501s1.265-.146 1.617-.439c.351-.299.527-.648.527-1.046 0-.358-.155-.639-.466-.844-.216-.141-.755-.319-1.617-.536-1.16-.293-1.966-.545-2.417-.756-.445-.217-.785-.513-1.019-.888-.229-.38-.343-.799-.343-1.256 0-.416.094-.8.281-1.152a2.61 2.61 0 0 1 .782-.888c.247-.181.581-.334 1.002-.457.428-.128.885-.193 1.371-.193.733 0 1.375.106 1.925.316.557.211.967.499 1.231.862.263.357.445.838.545 1.441l-1.547.211c-.07-.48-.276-.855-.615-1.125s-.809-.404-1.424-.404c-.727 0-1.245.12-1.556.36s-.466.522-.466.844c0 .205.065.39.194.554.129.17.331.31.606.422a26.24 26.24 0 0 0 1.398.404l2.337.738c.446.188.794.463 1.046.826s.378.815.378 1.354c0 .527-.155 1.025-.466 1.494-.304.463-.747.823-1.327 1.081-.58.252-1.236.378-1.968.378-1.213 0-2.139-.252-2.778-.756-.633-.504-1.037-1.251-1.213-2.241zm16.023-.22l1.635.202c-.258.955-.736 1.697-1.433 2.224s-1.588.791-2.672.791c-1.365 0-2.449-.419-3.252-1.257-.797-.844-1.195-2.024-1.195-3.542 0-1.57.404-2.789 1.213-3.656s1.857-1.301 3.146-1.301c1.248 0 2.268.425 3.059 1.274s1.186 2.045 1.186 3.586l-.009.422h-6.96c.058 1.026.348 1.811.87 2.356s1.172.817 1.951.817c.58 0 1.075-.152 1.485-.457s.736-.791.976-1.459zm-5.195-2.557h5.212c-.07-.786-.269-1.375-.597-1.767-.504-.609-1.158-.914-1.96-.914-.727 0-1.339.243-1.837.729-.492.487-.765 1.137-.818 1.952zm8.825 5.563v-9.334h1.423v1.327c.686-1.025 1.676-1.538 2.971-1.538.563 0 1.078.103 1.547.308.475.199.829.463 1.064.791s.398.717.492 1.169c.058.293.088.805.088 1.538V195h-1.582v-5.678c0-.644-.062-1.125-.185-1.441-.123-.322-.343-.577-.659-.765-.311-.193-.677-.29-1.099-.29-.674 0-1.257.214-1.749.642-.486.428-.729 1.239-.729 2.434V195h-1.582zm13.473-1.415l.229 1.397c-.446.094-.844.141-1.196.141-.574 0-1.019-.091-1.335-.272s-.54-.419-.668-.712c-.129-.299-.194-.923-.194-1.872v-5.371h-1.16v-1.23h1.16v-2.312l1.573-.949v3.261h1.591v1.23h-1.591v5.458c0 .452.027.742.08.871s.149.231.272.307c.129.076.311.114.545.114.176 0 .407-.02.694-.061zm10.02 0l.228 1.397c-.445.094-.843.141-1.195.141-.574 0-1.02-.091-1.336-.272s-.539-.419-.668-.712c-.129-.299-.193-.923-.193-1.872v-5.371h-1.16v-1.23h1.16v-2.312l1.573-.949v3.261h1.591v1.23h-1.591v5.458c0 .452.026.742.079.871.059.129.15.231.273.307s.31.114.544.114c.176 0 .408-.02.695-.061zm1.555 1.415v-12.885h1.583v4.623a3.53 3.53 0 0 1 2.794-1.283c.692 0 1.292.138 1.802.413s.873.645 1.09 1.125c.223.481.334 1.178.334 2.092V195h-1.582v-5.915c0-.791-.173-1.365-.519-1.723-.339-.363-.823-.545-1.45-.545-.469 0-.911.123-1.327.37-.41.24-.703.568-.879.984s-.263.99-.263 1.723V195h-1.583zm10.029-11.065v-1.82h1.582v1.82h-1.582zm0 11.065v-9.334h1.582V195h-1.582zm3.366-2.786l1.564-.246c.088.627.332 1.107.73 1.441.404.334.967.501 1.687.501.727 0 1.266-.146 1.618-.439.351-.299.527-.648.527-1.046 0-.358-.155-.639-.466-.844-.217-.141-.756-.319-1.617-.536-1.16-.293-1.966-.545-2.417-.756-.445-.217-.785-.513-1.02-.888-.228-.38-.342-.799-.342-1.256 0-.416.093-.8.281-1.152a2.6 2.6 0 0 1 .782-.888c.246-.181.58-.334 1.002-.457.428-.128.885-.193 1.371-.193.733 0 1.374.106 1.925.316.557.211.967.499 1.23.862.264.357.446.838.545 1.441l-1.546.211c-.071-.48-.276-.855-.616-1.125-.334-.269-.808-.404-1.424-.404-.726 0-1.245.12-1.555.36s-.466.522-.466.844c0 .205.064.39.193.554.129.17.331.31.607.422.158.058.624.193 1.397.404l2.338.738c.445.188.794.463 1.046.826s.378.815.378 1.354c0 .527-.155 1.025-.466 1.494-.305.463-.747.823-1.327 1.081-.58.252-1.236.378-1.969.378-1.213 0-2.138-.252-2.777-.756-.633-.504-1.037-1.251-1.213-2.241zm20.733-.633l1.556.202c-.17 1.072-.606 1.913-1.309 2.523-.698.603-1.556.905-2.576.905-1.277 0-2.305-.416-3.085-1.248-.773-.838-1.16-2.036-1.16-3.595 0-1.008.167-1.889.501-2.645s.841-1.322 1.521-1.697c.685-.38 1.429-.571 2.232-.571 1.014 0 1.843.258 2.487.774.645.509 1.058 1.236 1.24 2.179l-1.538.238c-.147-.627-.408-1.099-.783-1.416-.369-.316-.817-.474-1.344-.474-.797 0-1.445.287-1.943.861s-.747 1.471-.747 2.707c0 1.254.24 2.165.721 2.734s1.107.852 1.881.852c.621 0 1.139-.19 1.555-.571s.68-.967.791-1.758zm9.299.413l1.635.202c-.258.955-.735 1.697-1.433 2.224s-1.588.791-2.671.791c-1.366 0-2.45-.419-3.252-1.257-.797-.844-1.196-2.024-1.196-3.542 0-1.57.405-2.789 1.213-3.656s1.858-1.301 3.147-1.301c1.248 0 2.267.425 3.058 1.274s1.187 2.045 1.187 3.586l-.009.422h-6.961c.059 1.026.349 1.811.87 2.356s1.172.817 1.951.817c.58 0 1.075-.152 1.486-.457s.735-.791.975-1.459zm-5.194-2.557h5.212c-.07-.786-.27-1.375-.598-1.767-.504-.609-1.157-.914-1.96-.914-.726 0-1.339.243-1.837.729-.492.487-.764 1.137-.817 1.952zm8.807 5.563v-9.334h1.423v1.415c.364-.662.698-1.099 1.002-1.31.311-.21.651-.316 1.02-.316.533 0 1.075.17 1.626.51l-.545 1.468c-.387-.229-.774-.343-1.16-.343a1.49 1.49 0 0 0-.932.316c-.275.205-.472.492-.589.862-.176.562-.263 1.177-.263 1.845V195h-1.582zm9.465-1.415l.229 1.397c-.445.094-.844.141-1.195.141-.575 0-1.02-.091-1.336-.272s-.539-.419-.668-.712c-.129-.299-.194-.923-.194-1.872v-5.371h-1.16v-1.23h1.16v-2.312l1.574-.949v3.261h1.59v1.23h-1.59v5.458c0 .452.026.742.079.871s.149.231.272.307c.129.076.311.114.545.114.176 0 .407-.02.694-.061zm1.565-9.65v-1.82h1.582v1.82h-1.582zm0 11.065v-9.334h1.582V195h-1.582zm4.377 0v-8.104h-1.398v-1.23h1.398v-.993c0-.627.055-1.093.167-1.398.152-.41.419-.741.8-.993.386-.258.925-.386 1.617-.386.445 0 .937.052 1.476.158l-.237 1.38c-.328-.059-.639-.088-.932-.088-.48 0-.82.102-1.019.307s-.299.589-.299 1.152v.861h1.819v1.23h-1.819V195h-1.573zm4.64-11.065v-1.82h1.582v1.82h-1.582zm0 11.065v-9.334h1.582V195h-1.582zm10.09-3.419l1.556.202c-.17 1.072-.607 1.913-1.31 2.523-.697.603-1.555.905-2.575.905-1.277 0-2.306-.416-3.085-1.248-.773-.838-1.16-2.036-1.16-3.595 0-1.008.167-1.889.501-2.645s.841-1.322 1.521-1.697c.685-.38 1.429-.571 2.232-.571 1.014 0 1.843.258 2.487.774.645.509 1.058 1.236 1.239 2.179l-1.538.238c-.146-.627-.407-1.099-.782-1.416-.369-.316-.817-.474-1.345-.474-.796 0-1.444.287-1.942.861s-.747 1.471-.747 2.707c0 1.254.24 2.165.721 2.734s1.107.852 1.881.852c.621 0 1.139-.19 1.555-.571s.68-.967.791-1.758zm9 2.268c-.586.498-1.151.849-1.696 1.054-.539.205-1.119.308-1.74.308-1.026 0-1.814-.249-2.365-.747-.55-.504-.826-1.146-.826-1.925a2.56 2.56 0 0 1 .308-1.248c.211-.381.483-.686.817-.914.34-.229.721-.401 1.143-.519.31-.082.779-.161 1.406-.237 1.277-.152 2.218-.334 2.821-.545l.009-.413c0-.644-.149-1.099-.448-1.362-.404-.358-1.005-.536-1.802-.536-.744 0-1.295.131-1.652.395-.352.258-.612.718-.782 1.38l-1.547-.211c.14-.662.372-1.195.694-1.6.322-.41.788-.723 1.398-.94.609-.223 1.315-.334 2.118-.334.797 0 1.444.094 1.942.281s.864.425 1.099.712c.234.281.398.639.492 1.073.053.269.079.755.079 1.458v2.11l.097 2.795c.07.387.205.759.404 1.116h-1.652c-.164-.328-.27-.712-.317-1.151zm-.132-3.534c-.574.235-1.435.434-2.584.598-.65.094-1.11.199-1.379.316a1.37 1.37 0 0 0-.624.519c-.147.223-.22.472-.22.747a1.35 1.35 0 0 0 .474 1.055c.323.281.791.422 1.407.422a3.29 3.29 0 0 0 1.626-.396c.474-.269.823-.636 1.046-1.098.169-.358.254-.885.254-1.582v-.581zm7.515 3.27l.229 1.397c-.446.094-.844.141-1.196.141-.574 0-1.019-.091-1.336-.272s-.539-.419-.668-.712c-.129-.299-.193-.923-.193-1.872v-5.371h-1.16v-1.23h1.16v-2.312l1.573-.949v3.261h1.591v1.23h-1.591v5.458c0 .452.027.742.079.871.059.129.15.231.273.307.129.076.31.114.545.114a5.14 5.14 0 0 0 .694-.061zm7.945-1.591l1.635.202c-.258.955-.735 1.697-1.432 2.224s-1.588.791-2.672.791c-1.366 0-2.45-.419-3.252-1.257-.797-.844-1.196-2.024-1.196-3.542 0-1.57.405-2.789 1.213-3.656s1.858-1.301 3.147-1.301c1.248 0 2.267.425 3.058 1.274s1.187 2.045 1.187 3.586l-.009.422h-6.961c.059 1.026.349 1.811.87 2.356s1.172.817 1.951.817c.581 0 1.076-.152 1.486-.457s.735-.791.975-1.459zm-5.194-2.557h5.212c-.07-.786-.27-1.375-.598-1.767-.504-.609-1.157-.914-1.96-.914-.726 0-1.339.243-1.837.729-.492.487-.764 1.137-.817 1.952zm17.288 4.148l.229 1.397c-.446.094-.844.141-1.196.141-.574 0-1.019-.091-1.336-.272s-.539-.419-.668-.712c-.129-.299-.193-.923-.193-1.872v-5.371h-1.16v-1.23h1.16v-2.312l1.573-.949v3.261h1.591v1.23h-1.591v5.458c0 .452.027.742.079.871.059.129.15.231.273.307.129.076.31.114.545.114.176 0 .407-.02.694-.061zm.967-3.252c0-1.729.48-3.009 1.441-3.841.803-.691 1.782-1.037 2.936-1.037 1.283 0 2.332.422 3.146 1.266.815.838 1.222 1.998 1.222 3.48 0 1.201-.182 2.148-.545 2.839-.357.686-.882 1.219-1.573 1.6-.686.381-1.436.571-2.25.571-1.307 0-2.364-.419-3.173-1.257-.803-.838-1.204-2.045-1.204-3.621zm1.626 0c0 1.195.261 2.092.782 2.689a2.51 2.51 0 0 0 1.969.888c.785 0 1.438-.299 1.96-.896s.782-1.509.782-2.734c0-1.154-.264-2.027-.791-2.619a2.48 2.48 0 0 0-1.951-.896c-.791 0-1.447.296-1.969.887s-.782 1.486-.782 2.681z"/><path d="M48.565 340v-8.104h-1.398v-1.23h1.398v-.993c0-.627.056-1.093.167-1.398.152-.41.419-.741.8-.993.387-.258.926-.386 1.617-.386a7.7 7.7 0 0 1 1.477.158l-.237 1.38a5.27 5.27 0 0 0-.932-.088c-.48 0-.82.102-1.02.307s-.299.589-.299 1.152v.861h1.819v1.23h-1.819V340h-1.573zm4.043-4.667c0-1.729.48-3.009 1.441-3.841.803-.691 1.781-1.037 2.936-1.037 1.283 0 2.332.422 3.146 1.266.814.838 1.222 1.998 1.222 3.48 0 1.201-.182 2.148-.545 2.839-.357.686-.882 1.219-1.573 1.6-.686.381-1.436.571-2.25.571-1.307 0-2.364-.419-3.173-1.257-.803-.838-1.204-2.045-1.204-3.621zm1.626 0c0 1.195.261 2.092.782 2.689a2.51 2.51 0 0 0 1.969.888c.785 0 1.438-.299 1.96-.896s.782-1.509.782-2.734c0-1.154-.264-2.027-.791-2.619a2.48 2.48 0 0 0-1.951-.896c-.791 0-1.447.296-1.969.887s-.782 1.486-.782 2.681zM63.198 340v-9.334h1.424v1.415c.363-.662.697-1.099 1.002-1.31.311-.21.65-.316 1.02-.316.533 0 1.075.17 1.626.51l-.545 1.468c-.387-.229-.773-.343-1.16-.343a1.49 1.49 0 0 0-.932.316c-.275.205-.472.492-.589.862-.176.562-.264 1.177-.264 1.845V340h-1.582zm10.951 3.595l-.176-1.486c.346.094.647.141.905.141.352 0 .633-.059.844-.176s.384-.281.519-.492c.1-.158.261-.551.483-1.178l.141-.386-3.542-9.352h1.705l1.942 5.405.677 2.162c.182-.726.398-1.435.65-2.127l1.995-5.44h1.582l-3.551 9.492-.888 2.118c-.281.522-.603.903-.967 1.143-.363.246-.797.369-1.301.369-.305 0-.644-.064-1.019-.193zm8.481-8.262c0-1.729.48-3.009 1.441-3.841.803-.691 1.781-1.037 2.936-1.037 1.283 0 2.332.422 3.147 1.266.814.838 1.222 1.998 1.222 3.48 0 1.201-.182 2.148-.545 2.839-.358.686-.882 1.219-1.573 1.6-.686.381-1.436.571-2.25.571-1.307 0-2.364-.419-3.173-1.257-.803-.838-1.204-2.045-1.204-3.621zm1.626 0c0 1.195.261 2.092.782 2.689a2.51 2.51 0 0 0 1.969.888c.785 0 1.438-.299 1.96-.896s.782-1.509.782-2.734c0-1.154-.264-2.027-.791-2.619a2.48 2.48 0 0 0-1.951-.896 2.51 2.51 0 0 0-1.969.887c-.522.592-.782 1.486-.782 2.681zm15.1 4.667v-1.371c-.726 1.055-1.714 1.582-2.962 1.582a3.82 3.82 0 0 1-1.547-.316c-.475-.211-.829-.475-1.064-.791-.228-.323-.39-.715-.483-1.178-.064-.311-.097-.803-.097-1.477v-5.783h1.582v5.177c0 .826.032 1.383.097 1.67.1.416.311.744.633.984.322.234.721.352 1.195.352a2.62 2.62 0 0 0 1.336-.361c.416-.246.709-.577.879-.993.176-.422.264-1.031.264-1.828v-5.001h1.582V340h-1.415zm3.885 0v-9.334h1.424v1.415c.363-.662.697-1.099 1.002-1.31.311-.21.65-.316 1.02-.316.533 0 1.075.17 1.625.51l-.544 1.468c-.387-.229-.774-.343-1.161-.343a1.49 1.49 0 0 0-.931.316c-.276.205-.472.492-.589.862-.176.562-.264 1.177-.264 1.845V340h-1.582zm17.411-3.006l1.635.202c-.258.955-.735 1.697-1.433 2.224s-1.587.791-2.671.791c-1.366 0-2.45-.419-3.252-1.257-.797-.844-1.196-2.024-1.196-3.542 0-1.57.405-2.789 1.213-3.656s1.858-1.301 3.147-1.301c1.248 0 2.267.425 3.058 1.274s1.187 2.045 1.187 3.586l-.009.422h-6.961c.059 1.026.349 1.811.87 2.356s1.172.817 1.951.817c.58 0 1.076-.152 1.486-.457s.735-.791.975-1.459zm-5.194-2.557h5.212c-.07-.786-.27-1.375-.598-1.767-.504-.609-1.157-.914-1.96-.914-.726 0-1.339.243-1.837.729-.492.487-.764 1.137-.817 1.952zm7.77 5.563l3.41-4.852-3.156-4.482h1.978l1.433 2.188.65 1.046.712-1.028 1.573-2.206h1.89l-3.226 4.395 3.472 4.939h-1.943l-1.916-2.9-.509-.783-2.452 3.683h-1.916zm13.508-1.415l.229 1.397c-.445.094-.844.141-1.195.141-.575 0-1.02-.091-1.336-.272s-.539-.419-.668-.712c-.129-.299-.194-.923-.194-1.872v-5.371h-1.16v-1.23h1.16v-2.312l1.574-.949v3.261h1.59v1.23h-1.59v5.458c0 .452.026.742.079.871s.149.231.272.307c.129.076.311.114.545.114.176 0 .407-.02.694-.061zm1.538 1.415v-9.334h1.424v1.415c.364-.662.698-1.099 1.002-1.31.311-.21.651-.316 1.02-.316.533 0 1.075.17 1.626.51l-.545 1.468c-.387-.229-.774-.343-1.16-.343a1.49 1.49 0 0 0-.932.316c-.275.205-.472.492-.589.862-.176.562-.264 1.177-.264 1.845V340h-1.582zm12.103-1.151c-.586.498-1.151.849-1.696 1.054-.539.205-1.119.308-1.741.308-1.025 0-1.813-.249-2.364-.747-.551-.504-.826-1.146-.826-1.925a2.56 2.56 0 0 1 .308-1.248c.211-.381.483-.686.817-.914.34-.229.721-.401 1.143-.519.31-.082.779-.161 1.406-.237 1.277-.152 2.218-.334 2.821-.545l.009-.413c0-.644-.15-1.099-.448-1.362-.405-.358-1.005-.536-1.802-.536-.744 0-1.295.131-1.652.395-.352.258-.613.718-.783 1.38l-1.547-.211c.141-.662.373-1.195.695-1.6s.788-.723 1.397-.94c.61-.223 1.316-.334 2.118-.334s1.445.094 1.943.281.864.425 1.098.712c.235.281.399.639.493 1.073.052.269.079.755.079 1.458v2.11l.096 2.795c.071.387.205.759.405 1.116h-1.653c-.164-.328-.269-.712-.316-1.151zm-.132-3.534c-.574.235-1.435.434-2.584.598-.65.094-1.11.199-1.38.316a1.38 1.38 0 0 0-.624.519c-.146.223-.219.472-.219.747a1.35 1.35 0 0 0 .474 1.055c.322.281.791.422 1.406.422.61 0 1.152-.132 1.626-.396.475-.269.824-.636 1.046-1.098.17-.358.255-.885.255-1.582v-.581zm3.472.018c0-1.729.48-3.009 1.441-3.841.803-.691 1.781-1.037 2.936-1.037 1.283 0 2.332.422 3.146 1.266.815.838 1.222 1.998 1.222 3.48 0 1.201-.182 2.148-.545 2.839-.357.686-.882 1.219-1.573 1.6s-1.436.571-2.25.571c-1.307 0-2.365-.419-3.173-1.257-.803-.838-1.204-2.045-1.204-3.621zm1.626 0c0 1.195.261 2.092.782 2.689a2.51 2.51 0 0 0 1.969.888c.785 0 1.438-.299 1.96-.896s.782-1.509.782-2.734c0-1.154-.264-2.027-.791-2.619a2.48 2.48 0 0 0-1.951-.896 2.51 2.51 0 0 0-1.969.887c-.521.592-.782 1.486-.782 2.681zm8.965 4.667v-9.334h1.423v1.415c.364-.662.698-1.099 1.002-1.31.311-.21.651-.316 1.02-.316.533 0 1.075.17 1.626.51l-.545 1.468c-.387-.229-.773-.343-1.16-.343-.346 0-.656.105-.932.316-.275.205-.471.492-.589.862a6.18 6.18 0 0 0-.263 1.845V340h-1.582zm12.067 0v-1.178c-.592.926-1.462 1.389-2.61 1.389-.744 0-1.43-.205-2.057-.615-.621-.41-1.104-.982-1.45-1.714-.34-.738-.51-1.585-.51-2.54 0-.932.155-1.776.466-2.531.31-.762.776-1.345 1.397-1.749s1.316-.607 2.083-.607c.563 0 1.064.12 1.503.36s.797.542 1.073.923v-4.623h1.573V340h-1.468zm-5.001-4.658c0 1.195.252 2.089.756 2.68s1.099.888 1.784.888c.691 0 1.277-.281 1.758-.844s.729-1.432.729-2.592c0-1.278-.246-2.215-.738-2.813s-1.099-.896-1.819-.896c-.703 0-1.292.287-1.767.861-.469.574-.703 1.479-.703 2.716zm8.974-6.407v-1.82h1.582v1.82h-1.582zm0 11.065v-9.334h1.582V340h-1.582zm3.999 0v-9.334h1.424v1.327c.685-1.025 1.675-1.538 2.97-1.538.563 0 1.078.103 1.547.308.475.199.829.463 1.064.791s.398.717.492 1.169c.058.293.088.805.088 1.538V340h-1.582v-5.678c0-.644-.062-1.125-.185-1.441-.123-.322-.343-.577-.659-.765s-.677-.29-1.099-.29c-.674 0-1.257.214-1.749.642-.486.428-.729 1.239-.729 2.434V340h-1.582zm16.11-1.151c-.586.498-1.151.849-1.696 1.054-.539.205-1.119.308-1.74.308-1.026 0-1.814-.249-2.365-.747-.551-.504-.826-1.146-.826-1.925a2.56 2.56 0 0 1 .308-1.248c.211-.381.483-.686.817-.914.34-.229.721-.401 1.143-.519.31-.082.779-.161 1.406-.237 1.277-.152 2.218-.334 2.821-.545l.009-.413c0-.644-.149-1.099-.448-1.362-.405-.358-1.005-.536-1.802-.536-.744 0-1.295.131-1.652.395-.352.258-.613.718-.783 1.38l-1.546-.211c.14-.662.372-1.195.694-1.6s.788-.723 1.397-.94c.61-.223 1.316-.334 2.118-.334.797 0 1.445.094 1.943.281s.864.425 1.099.712c.234.281.398.639.492 1.073.052.269.079.755.079 1.458v2.11l.096 2.795c.071.387.206.759.405 1.116h-1.653c-.164-.328-.269-.712-.316-1.151zm-.132-3.534c-.574.235-1.435.434-2.584.598-.65.094-1.11.199-1.38.316a1.38 1.38 0 0 0-.624.519c-.146.223-.219.472-.219.747a1.35 1.35 0 0 0 .474 1.055c.322.281.791.422 1.406.422s1.152-.132 1.626-.396c.475-.269.824-.636 1.046-1.098.17-.358.255-.885.255-1.582v-.581zm4.043 4.685v-9.334h1.424v1.415c.363-.662.697-1.099 1.002-1.31a1.78 1.78 0 0 1 1.019-.316c.534 0 1.076.17 1.626.51l-.544 1.468c-.387-.229-.774-.343-1.161-.343a1.49 1.49 0 0 0-.931.316c-.276.205-.472.492-.589.862-.176.562-.264 1.177-.264 1.845V340h-1.582zm5.942 3.595l-.176-1.486c.345.094.647.141.905.141.352 0 .633-.059.844-.176s.384-.281.518-.492c.1-.158.261-.551.484-1.178l.14-.386-3.542-9.352h1.705l1.943 5.405.677 2.162a21.2 21.2 0 0 1 .65-2.127l1.995-5.44h1.582l-3.551 9.492-.887 2.118c-.282.522-.604.903-.967 1.143-.363.246-.797.369-1.301.369a3.16 3.16 0 0 1-1.019-.193zm20.17-7.014l1.556.202c-.17 1.072-.606 1.913-1.309 2.523-.698.603-1.556.905-2.576.905-1.277 0-2.305-.416-3.085-1.248-.773-.838-1.16-2.036-1.16-3.595 0-1.008.167-1.889.501-2.645s.841-1.322 1.521-1.697 1.429-.571 2.232-.571c1.014 0 1.843.258 2.487.774.645.509 1.058 1.236 1.24 2.179l-1.538.238c-.147-.627-.408-1.099-.783-1.416-.369-.316-.817-.474-1.344-.474-.797 0-1.445.287-1.943.861-.498.569-.747 1.471-.747 2.707 0 1.254.24 2.165.721 2.734s1.107.852 1.881.852c.621 0 1.139-.19 1.555-.571s.68-.967.791-1.758zm2.321-1.248c0-1.729.48-3.009 1.441-3.841.803-.691 1.781-1.037 2.936-1.037 1.283 0 2.332.422 3.146 1.266.815.838 1.222 1.998 1.222 3.48 0 1.201-.182 2.148-.545 2.839-.357.686-.882 1.219-1.573 1.6s-1.436.571-2.25.571c-1.307 0-2.365-.419-3.173-1.257s-1.204-2.045-1.204-3.621zm1.626 0c0 1.195.261 2.092.782 2.689a2.51 2.51 0 0 0 1.969.888c.785 0 1.438-.299 1.96-.896s.782-1.509.782-2.734c0-1.154-.264-2.027-.791-2.619a2.48 2.48 0 0 0-1.951-.896 2.51 2.51 0 0 0-1.969.887c-.521.592-.782 1.486-.782 2.681zm8.982 4.667v-9.334h1.424v1.327c.686-1.025 1.676-1.538 2.971-1.538.562 0 1.078.103 1.547.308.474.199.829.463 1.063.791s.398.717.492 1.169c.059.293.088.805.088 1.538V340h-1.582v-5.678c0-.644-.061-1.125-.184-1.441a1.5 1.5 0 0 0-.66-.765c-.31-.193-.676-.29-1.098-.29-.674 0-1.257.214-1.749.642s-.73 1.239-.73 2.434V340h-1.582zm13.474-1.415l.228 1.397c-.445.094-.843.141-1.195.141-.574 0-1.02-.091-1.336-.272s-.539-.419-.668-.712c-.129-.299-.193-.923-.193-1.872v-5.371h-1.16v-1.23h1.16v-2.312l1.573-.949v3.261h1.591v1.23h-1.591v5.458c0 .452.026.742.079.871.059.129.15.231.273.307s.31.114.544.114c.176 0 .408-.02.695-.061zm1.538 1.415v-9.334h1.424v1.415c.363-.662.697-1.099 1.002-1.31a1.78 1.78 0 0 1 1.019-.316c.533 0 1.075.17 1.626.51l-.545 1.468c-.386-.229-.773-.343-1.16-.343-.346 0-.656.105-.932.316-.275.205-.471.492-.588.862-.176.562-.264 1.177-.264 1.845V340h-1.582zm6.02-11.065v-1.82h1.582v1.82h-1.582zm0 11.065v-9.334h1.582V340h-1.582zm5.458 0h-1.467v-12.885h1.582v4.597c.668-.838 1.52-1.257 2.557-1.257a3.83 3.83 0 0 1 1.626.352 3.22 3.22 0 0 1 1.266.975c.334.416.595.92.782 1.512s.281 1.225.281 1.898c0 1.6-.395 2.836-1.186 3.709s-1.74 1.31-2.848 1.31a2.97 2.97 0 0 1-2.593-1.38V340zm-.017-4.737c0 1.119.152 1.927.457 2.425.498.815 1.172 1.222 2.021 1.222.692 0 1.289-.299 1.793-.896.504-.604.756-1.5.756-2.69 0-1.219-.243-2.118-.729-2.698s-1.064-.87-1.749-.87c-.692 0-1.289.302-1.793.905s-.756 1.465-.756 2.602zM284.577 340v-1.371c-.726 1.055-1.714 1.582-2.962 1.582-.551 0-1.066-.106-1.547-.316-.474-.211-.829-.475-1.063-.791-.229-.323-.39-.715-.484-1.178-.064-.311-.096-.803-.096-1.477v-5.783h1.582v5.177c0 .826.032 1.383.097 1.67.099.416.31.744.632.984.323.234.721.352 1.196.352s.92-.12 1.336-.361.709-.577.878-.993c.176-.422.264-1.031.264-1.828v-5.001h1.582V340h-1.415zm7.357-1.415l.228 1.397c-.445.094-.844.141-1.195.141-.574 0-1.02-.091-1.336-.272s-.539-.419-.668-.712c-.129-.299-.193-.923-.193-1.872v-5.371h-1.161v-1.23h1.161v-2.312l1.573-.949v3.261h1.591v1.23h-1.591v5.458c0 .452.026.742.079.871s.149.231.272.307c.129.076.311.114.545.114a5.15 5.15 0 0 0 .695-.061zm1.564-9.65v-1.82h1.582v1.82h-1.582zm0 11.065v-9.334h1.582V340h-1.582zm3.41-4.667c0-1.729.481-3.009 1.442-3.841.802-.691 1.781-1.037 2.935-1.037 1.283 0 2.332.422 3.147 1.266.814.838 1.221 1.998 1.221 3.48 0 1.201-.181 2.148-.545 2.839a3.79 3.79 0 0 1-1.573 1.6 4.55 4.55 0 0 1-2.25.571c-1.306 0-2.364-.419-3.173-1.257-.802-.838-1.204-2.045-1.204-3.621zm1.626 0c0 1.195.261 2.092.782 2.689a2.51 2.51 0 0 0 1.969.888 2.49 2.49 0 0 0 1.96-.896c.522-.598.782-1.509.782-2.734 0-1.154-.263-2.027-.791-2.619a2.48 2.48 0 0 0-1.951-.896c-.791 0-1.447.296-1.969.887s-.782 1.486-.782 2.681zm8.983 4.667v-9.334h1.423v1.327c.686-1.025 1.676-1.538 2.971-1.538.563 0 1.078.103 1.547.308.475.199.829.463 1.063.791s.399.717.493 1.169c.058.293.088.805.088 1.538V340h-1.582v-5.678c0-.644-.062-1.125-.185-1.441-.123-.322-.343-.577-.659-.765-.311-.193-.677-.29-1.099-.29-.674 0-1.257.214-1.749.642-.486.428-.729 1.239-.729 2.434V340h-1.582zm21.12-1.151c-.586.498-1.152.849-1.697 1.054-.539.205-1.119.308-1.74.308-1.025 0-1.813-.249-2.364-.747-.551-.504-.826-1.146-.826-1.925 0-.457.102-.873.307-1.248.211-.381.484-.686.818-.914a3.91 3.91 0 0 1 1.142-.519c.311-.082.78-.161 1.407-.237 1.277-.152 2.217-.334 2.821-.545l.009-.413c0-.644-.15-1.099-.449-1.362-.404-.358-1.004-.536-1.801-.536-.744 0-1.295.131-1.653.395-.351.258-.612.718-.782 1.38l-1.547-.211c.141-.662.372-1.195.695-1.6s.788-.723 1.397-.94c.609-.223 1.315-.334 2.118-.334.797 0 1.445.094 1.943.281s.864.425 1.098.712c.235.281.399.639.492 1.073.053.269.079.755.079 1.458v2.11l.097 2.795c.07.387.205.759.404 1.116h-1.652c-.164-.328-.269-.712-.316-1.151zm-.132-3.534c-.574.235-1.436.434-2.584.598-.65.094-1.11.199-1.38.316a1.37 1.37 0 0 0-.624.519c-.146.223-.22.472-.22.747a1.35 1.35 0 0 0 .475 1.055c.322.281.791.422 1.406.422s1.151-.132 1.626-.396c.475-.269.823-.636 1.046-1.098.17-.358.255-.885.255-1.582v-.581zm4.06 4.685v-9.334h1.424v1.327c.686-1.025 1.676-1.538 2.971-1.538.562 0 1.078.103 1.547.308.474.199.829.463 1.063.791s.399.717.492 1.169c.059.293.088.805.088 1.538V340h-1.582v-5.678c0-.644-.061-1.125-.184-1.441-.123-.322-.343-.577-.659-.765s-.677-.29-1.099-.29c-.674 0-1.257.214-1.749.642-.486.428-.73 1.239-.73 2.434V340h-1.582zm16.076 0v-1.178c-.592.926-1.462 1.389-2.611 1.389a3.68 3.68 0 0 1-2.056-.615c-.621-.41-1.105-.982-1.451-1.714-.339-.738-.509-1.585-.509-2.54 0-.932.155-1.776.465-2.531.311-.762.777-1.345 1.398-1.749a3.73 3.73 0 0 1 2.083-.607c.562 0 1.063.12 1.503.36s.797.542 1.072.923v-4.623h1.573V340h-1.467zm-5.001-4.658c0 1.195.252 2.089.756 2.68s1.098.888 1.784.888 1.277-.281 1.758-.844.729-1.432.729-2.592c0-1.278-.246-2.215-.738-2.813s-1.099-.896-1.82-.896c-.703 0-1.292.287-1.766.861s-.703 1.479-.703 2.716zm20.065 1.239l1.556.202c-.17 1.072-.607 1.913-1.31 2.523-.697.603-1.555.905-2.575.905-1.277 0-2.306-.416-3.085-1.248-.773-.838-1.16-2.036-1.16-3.595 0-1.008.167-1.889.501-2.645s.841-1.322 1.52-1.697c.686-.38 1.43-.571 2.233-.571 1.013 0 1.843.258 2.487.774.645.509 1.058 1.236 1.239 2.179l-1.538.238c-.146-.627-.407-1.099-.782-1.416-.369-.316-.817-.474-1.345-.474-.797 0-1.444.287-1.942.861-.498.569-.747 1.471-.747 2.707 0 1.254.24 2.165.721 2.734s1.107.852 1.88.852c.621 0 1.14-.19 1.556-.571s.68-.967.791-1.758zm2.32-1.248c0-1.729.481-3.009 1.442-3.841.803-.691 1.781-1.037 2.935-1.037 1.284 0 2.332.422 3.147 1.266.814.838 1.222 1.998 1.222 3.48 0 1.201-.182 2.148-.545 2.839a3.8 3.8 0 0 1-1.574 1.6 4.55 4.55 0 0 1-2.25.571c-1.306 0-2.364-.419-3.173-1.257-.802-.838-1.204-2.045-1.204-3.621zm1.626 0c0 1.195.261 2.092.783 2.689a2.51 2.51 0 0 0 1.968.888 2.49 2.49 0 0 0 1.96-.896c.522-.598.783-1.509.783-2.734 0-1.154-.264-2.027-.791-2.619a2.48 2.48 0 0 0-1.952-.896 2.51 2.51 0 0 0-1.968.887c-.522.592-.783 1.486-.783 2.681zm8.983 4.667v-9.334h1.415v1.31a3.28 3.28 0 0 1 1.169-1.099c.486-.281 1.04-.422 1.661-.422.691 0 1.257.144 1.696.431.446.287.759.688.941 1.204.738-1.09 1.699-1.635 2.882-1.635.926 0 1.638.258 2.136.774.498.509.747 1.297.747 2.364V340h-1.573v-5.88c0-.633-.053-1.087-.158-1.362a1.3 1.3 0 0 0-.554-.677 1.74 1.74 0 0 0-.949-.255c-.656 0-1.201.22-1.635.659-.433.434-.65 1.131-.65 2.092V340h-1.582v-6.064c0-.704-.129-1.231-.387-1.582s-.68-.528-1.266-.528c-.445 0-.858.117-1.239.352-.375.234-.647.577-.817 1.028s-.255 1.102-.255 1.951V340h-1.582zm14.994 0v-9.334h1.415v1.31a3.29 3.29 0 0 1 1.169-1.099c.486-.281 1.04-.422 1.661-.422.691 0 1.257.144 1.696.431.446.287.759.688.941 1.204.738-1.09 1.699-1.635 2.883-1.635.925 0 1.637.258 2.135.774.498.509.747 1.297.747 2.364V340h-1.573v-5.88c0-.633-.053-1.087-.158-1.362a1.3 1.3 0 0 0-.554-.677 1.74 1.74 0 0 0-.949-.255c-.656 0-1.201.22-1.635.659-.433.434-.65 1.131-.65 2.092V340h-1.582v-6.064c0-.704-.129-1.231-.387-1.582s-.68-.528-1.266-.528c-.445 0-.858.117-1.239.352-.375.234-.647.577-.817 1.028s-.255 1.102-.255 1.951V340h-1.582zm15.003-11.065v-1.82h1.582v1.82h-1.582zm0 11.065v-9.334h1.582V340h-1.582zm7.453-1.415l.228 1.397c-.445.094-.843.141-1.195.141-.574 0-1.019-.091-1.336-.272s-.539-.419-.668-.712c-.129-.299-.193-.923-.193-1.872v-5.371h-1.16v-1.23h1.16v-2.312l1.573-.949v3.261h1.591v1.23h-1.591v5.458c0 .452.027.742.079.871.059.129.15.231.273.307.129.076.31.114.545.114a5.14 5.14 0 0 0 .694-.061zM415.64 340v-9.334h1.415v1.31a3.28 3.28 0 0 1 1.169-1.099c.486-.281 1.04-.422 1.661-.422.691 0 1.257.144 1.696.431.445.287.759.688.94 1.204.739-1.09 1.7-1.635 2.883-1.635.926 0 1.638.258 2.136.774.498.509.747 1.297.747 2.364V340h-1.573v-5.88c0-.633-.053-1.087-.158-1.362-.1-.281-.285-.507-.554-.677s-.586-.255-.949-.255c-.657 0-1.201.22-1.635.659-.434.434-.65 1.131-.65 2.092V340h-1.582v-6.064c0-.704-.129-1.231-.387-1.582s-.68-.528-1.266-.528c-.445 0-.858.117-1.239.352-.375.234-.648.577-.817 1.028s-.255 1.102-.255 1.951V340h-1.582zm21.383-3.006l1.635.202c-.258.955-.735 1.697-1.432 2.224s-1.588.791-2.672.791c-1.366 0-2.45-.419-3.252-1.257-.797-.844-1.196-2.024-1.196-3.542 0-1.57.405-2.789 1.213-3.656s1.858-1.301 3.147-1.301c1.248 0 2.267.425 3.058 1.274s1.187 2.045 1.187 3.586l-.009.422h-6.961c.059 1.026.349 1.811.87 2.356s1.172.817 1.951.817c.581 0 1.076-.152 1.486-.457s.735-.791.975-1.459zm-5.194-2.557h5.212c-.07-.786-.27-1.375-.598-1.767-.504-.609-1.157-.914-1.96-.914a2.53 2.53 0 0 0-1.837.729c-.492.487-.764 1.137-.817 1.952zm8.824 5.563v-9.334h1.424v1.327c.686-1.025 1.676-1.538 2.971-1.538.562 0 1.078.103 1.547.308.474.199.829.463 1.063.791s.399.717.492 1.169c.059.293.088.805.088 1.538V340h-1.582v-5.678c0-.644-.061-1.125-.184-1.441-.123-.322-.343-.577-.66-.765-.31-.193-.676-.29-1.098-.29-.674 0-1.257.214-1.749.642-.486.428-.73 1.239-.73 2.434V340h-1.582zm13.474-1.415l.228 1.397c-.445.094-.843.141-1.195.141-.574 0-1.019-.091-1.336-.272s-.539-.419-.668-.712c-.129-.299-.193-.923-.193-1.872v-5.371h-1.16v-1.23h1.16v-2.312l1.573-.949v3.261h1.591v1.23h-1.591v5.458c0 .452.026.742.079.871.059.129.15.231.273.307.129.076.31.114.545.114a5.14 5.14 0 0 0 .694-.061zm10.019 0l.229 1.397c-.445.094-.844.141-1.195.141-.575 0-1.02-.091-1.336-.272s-.539-.419-.668-.712c-.129-.299-.194-.923-.194-1.872v-5.371h-1.16v-1.23h1.16v-2.312l1.574-.949v3.261h1.59v1.23h-1.59v5.458c0 .452.026.742.079.871s.149.231.272.307c.129.076.311.114.545.114.176 0 .407-.02.694-.061zm.967-3.252c0-1.729.481-3.009 1.442-3.841.802-.691 1.781-1.037 2.935-1.037 1.283 0 2.332.422 3.147 1.266.814.838 1.221 1.998 1.221 3.48 0 1.201-.181 2.148-.545 2.839a3.79 3.79 0 0 1-1.573 1.6 4.55 4.55 0 0 1-2.25.571c-1.306 0-2.364-.419-3.173-1.257-.802-.838-1.204-2.045-1.204-3.621zm1.626 0c0 1.195.261 2.092.782 2.689a2.51 2.51 0 0 0 1.969.888 2.49 2.49 0 0 0 1.96-.896c.522-.598.782-1.509.782-2.734 0-1.154-.263-2.027-.791-2.619-.521-.598-1.171-.896-1.951-.896-.791 0-1.447.296-1.969.887s-.782 1.486-.782 2.681zm13.922 8.262l-.176-1.486c.346.094.648.141.906.141.351 0 .632-.059.843-.176s.384-.281.519-.492c.1-.158.261-.551.483-1.178l.141-.386-3.542-9.352h1.705l1.942 5.405.677 2.162c.182-.726.399-1.435.651-2.127l1.995-5.44h1.582l-3.551 9.492-.888 2.118c-.281.522-.603.903-.967 1.143-.363.246-.796.369-1.3.369-.305 0-.645-.064-1.02-.193zm8.482-8.262c0-1.729.48-3.009 1.441-3.841.803-.691 1.781-1.037 2.936-1.037 1.283 0 2.332.422 3.146 1.266.814.838 1.222 1.998 1.222 3.48 0 1.201-.182 2.148-.545 2.839-.358.686-.882 1.219-1.573 1.6-.686.381-1.436.571-2.25.571-1.307 0-2.365-.419-3.173-1.257s-1.204-2.045-1.204-3.621zm1.626 0c0 1.195.26 2.092.782 2.689a2.51 2.51 0 0 0 1.969.888 2.49 2.49 0 0 0 1.959-.896c.522-.598.783-1.509.783-2.734 0-1.154-.264-2.027-.791-2.619a2.48 2.48 0 0 0-1.951-.896 2.51 2.51 0 0 0-1.969.887c-.522.592-.782 1.486-.782 2.681zM505.868 340v-1.371c-.726 1.055-1.714 1.582-2.962 1.582-.551 0-1.066-.106-1.547-.316-.474-.211-.829-.475-1.063-.791-.229-.323-.39-.715-.484-1.178-.064-.311-.096-.803-.096-1.477v-5.783h1.582v5.177c0 .826.032 1.383.097 1.67.099.416.31.744.632.984.323.234.721.352 1.196.352s.92-.12 1.336-.361.709-.577.879-.993c.175-.422.263-1.031.263-1.828v-5.001h1.582V340h-1.415zm3.885 0v-9.334h1.424v1.415c.363-.662.697-1.099 1.002-1.31a1.78 1.78 0 0 1 1.019-.316c.533 0 1.075.17 1.626.51l-.545 1.468c-.386-.229-.773-.343-1.16-.343a1.49 1.49 0 0 0-.931.316c-.276.205-.472.492-.589.862-.176.562-.264 1.177-.264 1.845V340h-1.582zm11.021 3.577v-12.911h1.442v1.213c.34-.475.723-.829 1.151-1.064s.946-.36 1.556-.36c.797 0 1.5.205 2.109.615s1.07.991 1.38 1.741c.311.744.466 1.561.466 2.452 0 .955-.173 1.816-.519 2.584-.339.761-.838 1.347-1.494 1.757-.65.405-1.336.607-2.056.607-.528 0-1.002-.111-1.424-.334-.416-.223-.759-.504-1.029-.844v4.544h-1.582zm1.433-8.191c0 1.201.243 2.089.73 2.663s1.075.861 1.766.861c.703 0 1.304-.296 1.802-.888.504-.597.756-1.52.756-2.768 0-1.19-.246-2.08-.739-2.672-.486-.592-1.069-.888-1.749-.888-.673 0-1.271.317-1.793.95-.515.627-.773 1.541-.773 2.742zm8.569 4.614v-9.334h1.424v1.415c.363-.662.697-1.099 1.002-1.31.311-.21.651-.316 1.02-.316.533 0 1.075.17 1.626.51l-.545 1.468c-.387-.229-.774-.343-1.16-.343a1.49 1.49 0 0 0-.932.316c-.275.205-.472.492-.589.862-.176.562-.264 1.177-.264 1.845V340h-1.582zm5.423-4.667c0-1.729.481-3.009 1.442-3.841.802-.691 1.781-1.037 2.935-1.037 1.283 0 2.332.422 3.147 1.266.814.838 1.221 1.998 1.221 3.48 0 1.201-.181 2.148-.545 2.839a3.79 3.79 0 0 1-1.573 1.6 4.55 4.55 0 0 1-2.25.571c-1.306 0-2.364-.419-3.173-1.257-.802-.838-1.204-2.045-1.204-3.621zm1.626 0c0 1.195.261 2.092.782 2.689a2.51 2.51 0 0 0 1.969.888 2.49 2.49 0 0 0 1.96-.896c.522-.598.782-1.509.782-2.734 0-1.154-.263-2.027-.791-2.619a2.48 2.48 0 0 0-1.951-.896c-.791 0-1.447.296-1.969.887s-.782 1.486-.782 2.681zm9.361 4.667v-8.104h-1.398v-1.23h1.398v-.993c0-.627.055-1.093.167-1.398.152-.41.418-.741.799-.993.387-.258.926-.386 1.618-.386.445 0 .937.052 1.476.158l-.237 1.38c-.328-.059-.639-.088-.932-.088-.48 0-.82.102-1.019.307s-.299.589-.299 1.152v.861h1.819v1.23h-1.819V340h-1.573zm11.021-3.006l1.635.202c-.258.955-.736 1.697-1.433 2.224s-1.588.791-2.672.791c-1.365 0-2.449-.419-3.252-1.257-.797-.844-1.195-2.024-1.195-3.542 0-1.57.404-2.789 1.213-3.656s1.857-1.301 3.146-1.301c1.248 0 2.268.425 3.059 1.274s1.187 2.045 1.187 3.586l-.009.422h-6.961c.058 1.026.348 1.811.87 2.356s1.172.817 1.951.817c.58 0 1.075-.152 1.485-.457s.736-.791.976-1.459zm-5.194-2.557h5.212c-.071-.786-.27-1.375-.598-1.767-.504-.609-1.157-.914-1.96-.914-.727 0-1.339.243-1.837.729-.492.487-.765 1.137-.817 1.952zm8.191 2.777l1.565-.246c.087.627.331 1.107.729 1.441.404.334.967.501 1.688.501s1.265-.146 1.617-.439c.351-.299.527-.648.527-1.046 0-.358-.155-.639-.466-.844-.217-.141-.756-.319-1.617-.536-1.16-.293-1.966-.545-2.417-.756-.445-.217-.785-.513-1.019-.888s-.343-.799-.343-1.256c0-.416.094-.8.281-1.152a2.6 2.6 0 0 1 .782-.888c.246-.181.58-.334 1.002-.457.428-.128.885-.193 1.371-.193.733 0 1.374.106 1.925.316.557.211.967.499 1.231.862.263.357.445.838.544 1.441l-1.546.211c-.071-.48-.276-.855-.616-1.125-.334-.269-.808-.404-1.423-.404-.727 0-1.246.12-1.556.36s-.466.522-.466.844a.88.88 0 0 0 .193.554c.129.17.331.31.607.422.158.058.624.193 1.397.404l2.338.738c.446.188.794.463 1.046.826s.378.815.378 1.354c0 .527-.155 1.025-.466 1.494-.304.463-.747.823-1.327 1.081-.58.252-1.236.378-1.969.378-1.213 0-2.138-.252-2.777-.756-.633-.504-1.037-1.251-1.213-2.241zm9 0l1.565-.246c.087.627.331 1.107.729 1.441.404.334.967.501 1.688.501s1.265-.146 1.617-.439c.351-.299.527-.648.527-1.046 0-.358-.155-.639-.466-.844-.217-.141-.756-.319-1.617-.536-1.16-.293-1.966-.545-2.417-.756-.445-.217-.785-.513-1.019-.888s-.343-.799-.343-1.256c0-.416.094-.8.281-1.152a2.6 2.6 0 0 1 .782-.888c.246-.181.58-.334 1.002-.457.428-.128.885-.193 1.371-.193.733 0 1.374.106 1.925.316.557.211.967.499 1.231.862.263.357.445.838.544 1.441l-1.546.211c-.071-.48-.276-.855-.616-1.125-.334-.269-.808-.404-1.423-.404-.727 0-1.246.12-1.556.36s-.466.522-.466.844a.88.88 0 0 0 .193.554c.129.17.331.31.607.422.158.058.624.193 1.397.404l2.338.738c.446.188.794.463 1.046.826s.378.815.378 1.354c0 .527-.155 1.025-.466 1.494-.304.463-.747.823-1.327 1.081-.58.252-1.236.378-1.969.378-1.213 0-2.138-.252-2.777-.756-.633-.504-1.037-1.251-1.213-2.241zm9.642-8.279v-1.82h1.582v1.82h-1.582zm0 11.065v-9.334h1.582V340h-1.582zm3.41-4.667c0-1.729.48-3.009 1.441-3.841.803-.691 1.782-1.037 2.936-1.037 1.283 0 2.332.422 3.146 1.266.815.838 1.222 1.998 1.222 3.48 0 1.201-.182 2.148-.545 2.839-.357.686-.882 1.219-1.573 1.6s-1.436.571-2.25.571c-1.307 0-2.364-.419-3.173-1.257-.803-.838-1.204-2.045-1.204-3.621zm1.626 0c0 1.195.261 2.092.782 2.689a2.51 2.51 0 0 0 1.969.888c.785 0 1.438-.299 1.96-.896s.782-1.509.782-2.734c0-1.154-.264-2.027-.791-2.619a2.48 2.48 0 0 0-1.951-.896c-.791 0-1.447.296-1.969.887s-.782 1.486-.782 2.681zm8.982 4.667v-9.334h1.424v1.327c.686-1.025 1.676-1.538 2.971-1.538.562 0 1.078.103 1.547.308.474.199.829.463 1.063.791s.399.717.492 1.169c.059.293.088.805.088 1.538V340h-1.582v-5.678c0-.644-.061-1.125-.184-1.441-.123-.322-.343-.577-.66-.765-.31-.193-.676-.29-1.098-.29-.674 0-1.257.214-1.749.642s-.73 1.239-.73 2.434V340h-1.582zm10.468 0v-1.802h1.802V340h-1.802z"/></g><path stroke="#353535" stroke-width="2" d="M47 308h368"/><path d="M110.23 452.486l1.327.335c-.278 1.089-.78 1.921-1.504 2.495s-1.602.855-2.646.855c-1.08 0-1.959-.219-2.638-.656s-1.19-1.08-1.545-1.914-.527-1.73-.527-2.687c0-1.044.199-1.953.595-2.727.401-.78.968-1.37 1.702-1.771s1.55-.608 2.434-.608c1.002 0 1.845.255 2.529.765s1.16 1.228 1.429 2.154l-1.306.307c-.232-.729-.57-1.26-1.012-1.593s-.998-.499-1.668-.499c-.77 0-1.415.185-1.934.554s-.877.866-1.087 1.49-.315 1.26-.315 1.921c0 .852.124 1.598.37 2.236s.638 1.107 1.162 1.421 1.091.472 1.702.472c.743 0 1.372-.214 1.887-.642s.863-1.065 1.045-1.908zm2.995 3.514v-10.021h7.246v1.182h-5.92v3.069h5.544v1.176h-5.544v3.411h6.152V456h-7.478zm8.907-4.881c0-1.663.446-2.964 1.34-3.903.893-.944 2.046-1.415 3.459-1.415.925 0 1.759.221 2.502.663s1.308 1.059 1.695 1.852c.392.789.588 1.684.588 2.687 0 1.016-.205 1.925-.615 2.727s-.992 1.411-1.744 1.826-1.563.615-2.433.615c-.944 0-1.787-.228-2.529-.684a4.39 4.39 0 0 1-1.689-1.866 5.65 5.65 0 0 1-.574-2.502zm1.367.021c0 1.207.324 2.16.971 2.857s1.467 1.039 2.447 1.039c.998 0 1.818-.351 2.461-1.053s.971-1.697.971-2.987c0-.816-.139-1.527-.417-2.133s-.677-1.082-1.21-1.415a3.25 3.25 0 0 0-1.784-.506c-.939 0-1.748.324-2.427.971s-1.012 1.718-1.012 3.227z" fill="#353535"/><path stroke="#353535" d="M47 431.5h140"/><path d="M274.08 456v-10.021h3.78c.666 0 1.174.031 1.525.095.492.082.904.239 1.237.472s.599.549.8.964.307.87.307 1.367c0 .852-.271 1.574-.813 2.167s-1.522.882-2.939.882h-2.571V456h-1.326zm1.326-5.257h2.591c.857 0 1.465-.159 1.825-.478s.54-.768.54-1.347c0-.419-.107-.777-.321-1.073a1.47 1.47 0 0 0-.834-.595c-.223-.059-.636-.089-1.237-.089h-2.564v3.582zm7.841 5.257v-7.26h1.107v1.101c.283-.515.543-.855.78-1.019a1.38 1.38 0 0 1 .793-.246c.414 0 .836.132 1.264.397l-.423 1.141c-.301-.177-.602-.266-.903-.266a1.16 1.16 0 0 0-.724.246c-.215.159-.367.383-.458.67a4.78 4.78 0 0 0-.205 1.435V456h-1.231zm9.646-2.338l1.271.157c-.2.743-.572 1.32-1.114 1.73s-1.235.615-2.078.615c-1.062 0-1.905-.326-2.53-.977-.619-.657-.929-1.575-.929-2.755 0-1.222.314-2.17.943-2.844s1.445-1.012 2.447-1.012c.971 0 1.764.331 2.379.991s.923 1.591.923 2.789l-.007.329h-5.414c.046.797.271 1.408.677 1.832s.911.635 1.518.635c.451 0 .836-.118 1.155-.355s.572-.615.759-1.135zm-4.04-1.989h4.053c-.054-.611-.209-1.069-.465-1.374-.392-.474-.9-.711-1.524-.711-.565 0-1.041.189-1.429.567s-.594.884-.635 1.518zm6.371 2.16l1.216-.191c.069.487.258.861.568 1.121s.752.389 1.312.389.985-.114 1.258-.341c.274-.233.41-.504.41-.814 0-.278-.12-.497-.362-.656-.169-.11-.588-.249-1.258-.417-.902-.228-1.529-.424-1.88-.588-.346-.169-.61-.399-.793-.69-.177-.297-.266-.623-.266-.978 0-.324.073-.622.218-.896a2.02 2.02 0 0 1 .609-.69c.191-.141.451-.26.779-.355.333-.101.688-.151 1.067-.151.569 0 1.068.082 1.497.246s.752.388.957.67.346.652.423 1.121l-1.203.164a1.31 1.31 0 0 0-.478-.875c-.26-.209-.629-.314-1.108-.314-.565 0-.968.093-1.21.28s-.362.406-.362.656c0 .16.05.303.151.431s.257.242.471.328c.123.046.486.151 1.087.315l1.819.574c.346.146.617.36.813.642s.294.634.294 1.053a2.07 2.07 0 0 1-.362 1.162c-.237.36-.581.641-1.033.841s-.961.294-1.531.294c-.943 0-1.663-.196-2.16-.588-.492-.392-.807-.973-.943-1.743zm7.499-6.439v-1.415h1.23v1.415h-1.23zm0 8.606v-7.26h1.23V456h-1.23zm7.82 0v-.916c-.46.72-1.137 1.08-2.03 1.08-.579 0-1.112-.159-1.6-.478s-.859-.764-1.128-1.333c-.264-.575-.396-1.233-.396-1.976 0-.725.12-1.381.362-1.969s.604-1.046 1.087-1.36a2.9 2.9 0 0 1 1.62-.472c.438 0 .827.094 1.169.28s.62.422.834.718v-3.595h1.224V456h-1.142zm-3.89-3.623c0 .93.196 1.625.588 2.085s.855.69 1.388.69.993-.218 1.367-.656.567-1.114.567-2.017c0-.993-.191-1.722-.574-2.187s-.854-.697-1.415-.697c-.547 0-1.005.223-1.374.67-.364.446-.547 1.15-.547 2.112zm11.943 1.285l1.271.157c-.2.743-.572 1.32-1.114 1.73s-1.235.615-2.078.615c-1.062 0-1.905-.326-2.529-.977-.62-.657-.93-1.575-.93-2.755 0-1.222.314-2.17.943-2.844s1.445-1.012 2.447-1.012c.971 0 1.764.331 2.379.991s.923 1.591.923 2.789l-.007.329h-5.414c.046.797.271 1.408.677 1.832s.912.635 1.518.635c.451 0 .836-.118 1.155-.355s.572-.615.759-1.135zm-4.04-1.989h4.053c-.054-.611-.209-1.069-.464-1.374-.392-.474-.901-.711-1.525-.711-.565 0-1.041.189-1.429.567-.382.379-.594.884-.635 1.518zm6.863 4.327v-7.26h1.107v1.032c.534-.797 1.304-1.196 2.311-1.196a2.98 2.98 0 0 1 1.203.239c.369.155.645.36.827.616s.31.558.383.909c.046.228.068.626.068 1.196V456h-1.23v-4.416c0-.501-.048-.875-.144-1.121-.095-.251-.266-.449-.512-.595a1.59 1.59 0 0 0-.855-.225c-.524 0-.977.166-1.36.499-.378.332-.568.963-.568 1.893V456h-1.23zm10.479-1.101l.178 1.087c-.346.073-.656.11-.93.11-.446 0-.792-.071-1.039-.212s-.419-.326-.519-.554-.15-.718-.15-1.456v-4.177h-.903v-.957h.903v-1.798l1.223-.738v2.536h1.237v.957h-1.237v4.245c0 .351.021.577.062.677s.116.18.212.239.241.089.423.089c.137 0 .317-.016.54-.048z" fill="#353535"/><path stroke="#353535" d="M233 431.5h140"/><path d="M669 0h48v239l-24.5-19.444L669 239V0z" fill="#3651b1"/><g clip-path="url(#A)" fill="#3651b1"><path d="M692.999 412.624c-18.321 0-33.311-14.991-33.311-33.312S674.678 346 692.999 346s33.312 14.99 33.312 33.312-14.99 33.312-33.312 33.312zm0-58.296c-13.741 0-24.983 11.243-24.983 24.984s11.242 24.984 24.983 24.984 24.984-11.243 24.984-24.984-11.243-24.984-24.984-24.984z"/><path d="M709.655 445.936c-.832 0-1.249 0-1.665-.417L693 438.024l-14.991 7.495c-1.249.833-2.915.417-4.164 0-.833-.833-1.665-2.499-1.665-3.748v-37.475c0-2.499 1.665-4.164 4.164-4.164s4.164 1.665 4.164 4.164v30.813l10.826-5.413a5.77 5.77 0 0 1 3.748 0l10.826 5.413v-30.813c0-2.499 1.666-4.164 4.164-4.164s4.164 1.665 4.164 4.164v37.475c0 1.249-.833 2.915-2.082 3.748-.833 0-1.666.417-2.499.417z"/></g><defs><clipPath id="A"><path fill="#fff" transform="translate(643 346)" d="M0 0h100v100H0z"/></clipPath></defs></svg>