<svg xmlns="http://www.w3.org/2000/svg" xmlns:xlink="http://www.w3.org/1999/xlink" width="1625" height="399" fill="none" xmlns:v="https://vecta.io/nano"><path d="M399.902 234.97h.084c.031-.027 0-.058 0-.089l-.084.089z" fill="url(#A)"/><path d="M399.986 234.868c0 .031.031.062 0 .088h-.084l.084-.088z" fill="url(#B)"/><path d="M399.902 234.97h.084c.031-.027 0-.058 0-.089l-.084.089zm-399.888 0h.084l-.084-.089c0 .031-.031.062 0 .089h0z" fill="url(#C)"/><path d="M253.163 164.848c44.905 25.917 93.412 45.017 143.932 56.674l2.892 13.36-.084.088a737.39 737.39 0 0 1-198.134 138.755c-.584.323-1.167.584-1.769.849v-34.33c-.092-62.447 18.416-123.508 53.163-175.396z" fill="url(#D)"/><path d="M146.837 164.848c14.625 21.804 26.444 45.363 35.178 70.122A315.3 315.3 0 0 1 200 340.244v34.33c-.615-.265-1.198-.526-1.769-.849C124.999 338.695 58.054 291.813.098 234.97l-.084-.088c.884-4.474 1.87-8.917 2.891-13.36a523.32 523.32 0 0 0 143.932-56.674z" fill="url(#E)"/><path d="M94.699 24.426H305.3A528.34 528.34 0 0 1 200 129.727 528.34 528.34 0 0 1 94.699 24.426z" fill="#2563eb"/><path d="M305.301 24.426c12.773 16.993 24.502 34.747 35.12 53.163a523.31 523.31 0 0 1 56.674 143.932c-50.52-11.657-99.027-30.756-143.932-56.673A524.51 524.51 0 0 1 200 129.727c39.896-29.953 75.348-65.405 105.301-105.301h0z" fill="url(#F)"/><path d="M.014 234.868l.084.088H.014c-.031-.013 0-.044 0-.088z" fill="url(#G)"/><path d="M94.701 24.426a528.33 528.33 0 0 0 105.301 105.301 524.4 524.4 0 0 1-53.163 35.121c-44.905 25.917-93.412 45.016-143.932 56.673A524.7 524.7 0 0 1 94.701 24.426z" fill="url(#H)"/><path d="M479.2 301V79h93.9c15 0 27.5 2.7 37.5 8.1 10 5.2 17.9 12.8 23.7 22.8 6 9.8 10.2 21.5 12.6 35.1s3.6 28.6 3.6 45c0 25-2.9 45.7-8.7 62.1-5.6 16.4-14.1 28.7-25.5 36.9-11.4 8-25.8 12-43.2 12h-93.9zm44.4-39.9h45c9.2 0 16.5-2.6 21.9-7.8 5.4-5.4 9.3-13.4 11.7-24 2.6-10.6 3.9-23.7 3.9-39.3 0-14.4-.8-26.2-2.4-35.4-1.6-9.4-4-16.7-7.2-21.9-3-5.2-6.9-8.8-11.7-10.8-4.6-2-10-3-16.2-3h-45v142.2zM683.106 301V79h91.8c8.8 0 17 1.1 24.6 3.3 7.6 2 14.3 5.6 20.1 10.8s10.3 12.4 13.5 21.6c3.4 9.2 5.1 21 5.1 35.4 0 10.2-1 18.9-3 26.1s-4.7 13.1-8.1 17.7c-3.2 4.6-6.9 8.3-11.1 11.1s-8.5 5.1-12.9 6.9l41.4 89.1h-45.3l-35.7-82.2h-8.4c-3-.2-6.1-.3-9.3-.3h-9.6c-3.2 0-6.1-.1-8.7-.3V301h-44.4zm44.4-117.9h39.6c4 0 7.6-.5 10.8-1.5a20.27 20.27 0 0 0 8.4-5.1c2.4-2.6 4.2-6 5.4-10.2 1.4-4.2 2.1-9.6 2.1-16.2 0-6.2-.7-11.3-2.1-15.3-1.2-4.2-3-7.4-5.4-9.6-2.4-2.4-5.2-4-8.4-4.8-3.2-1-6.8-1.5-10.8-1.5h-39.6v64.2zM871.192 301V79h44.4v222h-44.4zm82.91 0V129.7c0-9.8 1.5-18 4.5-24.6s7-11.8 12-15.6 10.5-6.5 16.5-8.1 11.9-2.4 17.698-2.4l26.7.3c10.8 0 22.2.3 34.2.9 12.2.6 23.9 1.5 35.1 2.7v37.2h-83.7c-6.2 0-10.9 1.7-14.1 5.1-3 3.2-4.498 7.5-4.498 12.9v37.8l87.898 2.4v35.1l-87.898 2.4V301h-44.4zm227.398 0c-11.4 0-21.1-1.7-29.1-5.1-7.8-3.6-13.7-9.2-17.7-16.8-3.8-7.8-5.7-18-5.7-30.6V79h44.4v162.3c0 4.8.8 8.7 2.4 11.7 1.8 3 4.2 5.1 7.2 6.3 3 1 6.4 1.5 10.2 1.5h70.2V301h-81.9zm150.3 0v-67.2L1264.9 79h46.2l43.8 109.5L1398.4 79h44.4l-66.6 154.8V301h-44.4zm202.48 1.8c-5.8 0-11.8-.2-18-.6-6-.2-12.2-.6-18.6-1.2l-17.7-2.4c-5.6-1-10.7-2.1-15.3-3.3v-35.1c6 .6 12.8 1.1 20.4 1.5s15.5.7 23.7.9l23.4.3c7.6 0 14.1-.6 19.5-1.8 5.6-1.4 9.9-3.7 12.9-6.9 3-3.4 4.5-8 4.5-13.8v-8.1c0-6.6-2-11.6-6-15-3.8-3.6-9.3-5.4-16.5-5.4h-18.9c-21.2 0-37.5-4.6-48.9-13.8-11.2-9.4-16.8-25.3-16.8-47.7v-10.8c0-21.6 6.2-37.4 18.6-47.4s30.1-15 53.1-15c8.2 0 16.3.4 24.3 1.2 8.2.8 16 1.8 23.4 3 7.6 1 14.1 2.1 19.5 3.3v35.1l-30.9-1.8c-11.2-.6-21.6-.9-31.2-.9-6.8 0-12.9.7-18.3 2.1-5.2 1.2-9.2 3.6-12 7.2s-4.2 8.7-4.2 15.3v6c0 7.8 2.2 13.4 6.6 16.8s10.9 5.1 19.5 5.1h21.9c13.4 0 24.4 2.5 33 7.5 8.8 4.8 15.3 11.5 19.5 20.1 4.4 8.6 6.6 18.4 6.6 29.4v12.6c0 17.4-3.3 30.7-9.9 39.9-6.4 9.2-15.4 15.5-27 18.9-11.4 3.2-24.8 4.8-40.2 4.8z" fill="#2563eb"/><defs><linearGradient id="A" x1="399.951" y1="234.97" x2="399.951" y2="234.886" xlink:href="#I"><stop offset=".04" stop-opacity=".93"/><stop offset=".06" stop-color="#0e0b1c" stop-opacity=".94"/><stop offset=".11" stop-color="#231b45" stop-opacity=".95"/><stop offset=".15" stop-color="#352a6b" stop-opacity=".96"/><stop offset=".21" stop-color="#46368b" stop-opacity=".97"/><stop offset=".26" stop-color="#5341a7" stop-opacity=".98"/><stop offset=".33" stop-color="#5e49bd" stop-opacity=".99"/><stop offset=".41" stop-color="#6750cd" stop-opacity=".99"/><stop offset=".5" stop-color="#6d55d9"/><stop offset=".63" stop-color="#7057e0"/><stop offset="1" stop-color="#7158e2"/></linearGradient><linearGradient id="B" x1="399.951" y1="234.969" x2="399.951" y2="234.885" xlink:href="#I"><stop offset=".04" stop-opacity=".93"/><stop offset=".06" stop-color="#0e0b1c" stop-opacity=".94"/><stop offset=".11" stop-color="#231b45" stop-opacity=".95"/><stop offset=".15" stop-color="#352a6b" stop-opacity=".96"/><stop offset=".21" stop-color="#46368b" stop-opacity=".97"/><stop offset=".26" stop-color="#5341a7" stop-opacity=".98"/><stop offset=".33" stop-color="#5e49bd" stop-opacity=".99"/><stop offset=".41" stop-color="#6750cd" stop-opacity=".99"/><stop offset=".5" stop-color="#6d55d9"/><stop offset=".63" stop-color="#7057e0"/><stop offset="1" stop-color="#7158e2"/></linearGradient><linearGradient id="C" x1="200" y1="234.97" x2="200" y2="234.886" xlink:href="#I"><stop offset=".04" stop-opacity=".93"/><stop offset=".06" stop-color="#0e0b1c" stop-opacity=".94"/><stop offset=".11" stop-color="#231b45" stop-opacity=".95"/><stop offset=".15" stop-color="#352a6b" stop-opacity=".96"/><stop offset=".21" stop-color="#46368b" stop-opacity=".97"/><stop offset=".26" stop-color="#5341a7" stop-opacity=".98"/><stop offset=".33" stop-color="#5e49bd" stop-opacity=".99"/><stop offset=".41" stop-color="#6750cd" stop-opacity=".99"/><stop offset=".5" stop-color="#6d55d9"/><stop offset=".63" stop-color="#7057e0"/><stop offset="1" stop-color="#7158e2"/></linearGradient><linearGradient id="D" x1="200" y1="374.574" x2="364.905" y2="123.458" xlink:href="#I"><stop stop-color="#2563eb"/><stop offset=".342" stop-color="#235cd8"/><stop offset=".461" stop-color="#2156c9"/><stop offset=".565" stop-color="#2357c9"/><stop offset=".665" stop-color="#2a57b9"/><stop offset=".765" stop-color="#2651af"/><stop offset=".836" stop-color="#1f4baa"/><stop offset=".886" stop-color="#1b3e8b"/><stop offset=".922" stop-color="#214595"/><stop offset="1" stop-color="#2851aa"/></linearGradient><linearGradient id="E" x1="8.157" y1="104.978" x2="166.939" y2="335.815" xlink:href="#I"><stop offset=".04" stop-opacity=".93"/><stop offset=".07" stop-color="#051e26" stop-opacity=".94"/><stop offset=".11" stop-color="#0b3d4f" stop-opacity=".95"/><stop offset=".16" stop-color="#105b75" stop-opacity=".96"/><stop offset=".21" stop-color="#1b4194"/><stop offset=".27" stop-color="#1d46a0"/><stop offset=".34" stop-color="#1e4eb8"/><stop offset=".41" stop-color="#2156c9"/><stop offset=".5" stop-color="#2259d1"/><stop offset=".64" stop-color="#285ed6"/><stop offset="1" stop-color="#2563eb"/></linearGradient><linearGradient id="F" x1="175.193" y1="-47.296" x2="375.286" y2="269.764" xlink:href="#I"><stop offset=".04" stop-opacity=".93"/><stop offset=".07" stop-color="#051e26" stop-opacity=".94"/><stop offset=".11" stop-color="#0b3d4f" stop-opacity=".95"/><stop offset=".16" stop-color="#162d60"/><stop offset=".21" stop-color="#12347d"/><stop offset=".27" stop-color="#1c408e"/><stop offset=".34" stop-color="#2049a3"/><stop offset=".41" stop-color="#1f4eb4"/><stop offset=".5" stop-color="#2557c5"/><stop offset=".64" stop-color="#2860db"/><stop offset="1" stop-color="#2563eb"/></linearGradient><linearGradient id="G" x1=".049" y1="234.969" x2=".049" y2="234.885" xlink:href="#I"><stop offset=".04" stop-opacity=".93"/><stop offset=".06" stop-color="#0e0b1c" stop-opacity=".94"/><stop offset=".11" stop-color="#231b45" stop-opacity=".95"/><stop offset=".15" stop-color="#352a6b" stop-opacity=".96"/><stop offset=".21" stop-color="#46368b" stop-opacity=".97"/><stop offset=".26" stop-color="#5341a7" stop-opacity=".98"/><stop offset=".33" stop-color="#5e49bd" stop-opacity=".99"/><stop offset=".41" stop-color="#6750cd" stop-opacity=".99"/><stop offset=".5" stop-color="#6d55d9"/><stop offset=".63" stop-color="#7057e0"/><stop offset="1" stop-color="#7158e2"/></linearGradient><linearGradient id="H" x1="232.094" y1="-33.039" x2="-22.254" y2="297.462" xlink:href="#I"><stop offset=".04" stop-opacity=".93"/><stop offset=".07" stop-color="#051e26" stop-opacity=".94"/><stop offset=".11" stop-color="#0b3d4f" stop-opacity=".95"/><stop offset=".16" stop-color="#112c68"/><stop offset=".21" stop-color="#163985"/><stop offset=".27" stop-color="#17409a"/><stop offset=".34" stop-color="#1e4eb7"/><stop offset=".41" stop-color="#2658c6"/><stop offset=".5" stop-color="#2a5ecf"/><stop offset=".64" stop-color="#2661e3"/><stop offset="1" stop-color="#2563eb"/></linearGradient><linearGradient id="I" gradientUnits="userSpaceOnUse"/></defs></svg>