<svg xmlns="http://www.w3.org/2000/svg" xmlns:xlink="http://www.w3.org/1999/xlink" width="1421" height="392" fill="none" xmlns:v="https://vecta.io/nano"><path d="M399.902 231.47h.084c.031-.026 0-.057 0-.088l-.084.088z" fill="url(#A)"/><path d="M399.986 231.369c0 .03.031.061 0 .088h-.084l.084-.088z" fill="url(#A)"/><path d="M399.902 231.47h.084c.031-.026 0-.057 0-.088l-.084.088zm-399.888 0h.084l-.084-.088c0 .031-.031.062 0 .088h0z" fill="url(#B)"/><path d="M253.163 161.348a523.28 523.28 0 0 0 143.932 56.673l2.891 13.361-.084.088c-57.956 56.843-124.901 103.725-198.134 138.755-.583.323-1.167.583-1.768.849v-34.33c-.092-62.448 18.415-123.508 53.163-175.396z" fill="url(#C)"/><path d="M146.837 161.348c14.625 21.804 26.444 45.363 35.178 70.122A315.29 315.29 0 0 1 200 336.744v34.33c-.614-.266-1.198-.526-1.768-.849C124.999 335.195 58.054 288.313.098 231.47l-.084-.088c.884-4.474 1.87-8.917 2.891-13.361 50.52-11.656 99.027-30.756 143.932-56.673z" fill="url(#D)"/><path d="M94.7 20.926h210.602A528.34 528.34 0 0 1 200 126.227C160.104 96.274 124.652 60.822 94.7 20.926z" fill="#2563eb"/><path d="M305.301 20.926c12.773 16.993 24.502 34.747 35.12 53.163 25.917 44.905 45.017 93.412 56.674 143.931-50.52-11.657-99.027-30.756-143.932-56.673A524.51 524.51 0 0 1 200 126.227 528.34 528.34 0 0 0 305.301 20.926h0z" fill="url(#E)"/><path d="M.014 231.369l.084.088H.014c-.031-.013 0-.044 0-.088z" fill="url(#F)"/><path d="M94.699 20.926A528.33 528.33 0 0 0 200 126.227a524.51 524.51 0 0 1-53.163 35.121c-44.905 25.917-93.412 45.016-143.932 56.673C19.407 146.635 50.676 79.495 94.699 20.926z" fill="url(#G)"/><path d="M466 250V65h78.25c12.5 0 22.917 2.25 31.25 6.75 8.333 4.333 14.917 10.667 19.75 19 5 8.167 8.5 17.917 10.5 29.25s3 23.833 3 37.5c0 20.833-2.417 38.083-7.25 51.75-4.667 13.667-11.75 23.917-21.25 30.75-9.5 6.667-21.5 10-36 10H466zm37-33.25h37.5c7.667 0 13.75-2.167 18.25-6.5 4.5-4.5 7.75-11.167 9.75-20 2.167-8.833 3.25-19.75 3.25-32.75 0-12-.667-21.833-2-29.5-1.333-7.833-3.333-13.917-6-18.25-2.5-4.333-5.75-7.333-9.75-9-3.833-1.667-8.333-2.5-13.5-2.5H503v118.5zM635.922 250V65h76.5c7.333 0 14.167.917 20.5 2.75 6.333 1.667 11.917 4.667 16.75 9s8.583 10.333 11.25 18c2.833 7.667 4.25 17.5 4.25 29.5 0 8.5-.833 15.75-2.5 21.75s-3.917 10.917-6.75 14.75c-2.667 3.833-5.75 6.917-9.25 9.25s-7.083 4.25-10.75 5.75l34.5 74.25h-37.75l-29.75-68.5h-7c-2.5-.167-5.083-.25-7.75-.25h-8c-2.667 0-5.083-.083-7.25-.25v69h-37zm37-98.25h33c3.333 0 6.333-.417 9-1.25s5-2.25 7-4.25c2-2.167 3.5-5 4.5-8.5 1.167-3.5 1.75-8 1.75-13.5 0-5.167-.583-9.417-1.75-12.75-1-3.5-2.5-6.167-4.5-8-2-2-4.333-3.333-7-4-2.667-.833-5.667-1.25-9-1.25h-33v53.5zM792.66 250V65h37v185h-37zm69.092 0V107.25c0-8.167 1.25-15 3.75-20.5s5.833-9.833 10-13a39.23 39.23 0 0 1 13.75-6.75c5-1.333 9.917-2 14.75-2l22.25.25c9 0 18.5.25 28.5.75 10.167.5 19.917 1.25 29.25 2.25v31h-69.75c-5.167 0-9.083 1.417-11.75 4.25-2.5 2.667-3.75 6.25-3.75 10.75v31.5l73.25 2V177l-73.25 2v71h-37zm189.498 0c-9.5 0-17.58-1.417-24.25-4.25-6.5-3-11.41-7.667-14.75-14-3.16-6.5-4.75-15-4.75-25.5V65h37v135.25c0 4 .67 7.25 2 9.75 1.5 2.5 3.5 4.25 6 5.25 2.5.833 5.34 1.25 8.5 1.25h58.5V250h-68.25zm125.25 0v-56l-55.75-129h38.5l36.5 91.25L1232 65h37l-55.5 129v56h-37zm168.74 1.5c-4.84 0-9.84-.167-15-.5-5-.167-10.17-.5-15.5-1l-14.75-2c-4.67-.833-8.92-1.75-12.75-2.75V216c5 .5 10.66.917 17 1.25a702.72 702.72 0 0 0 19.75.75l19.5.25c6.33 0 11.75-.5 16.25-1.5 4.66-1.167 8.25-3.083 10.75-5.75 2.5-2.833 3.75-6.667 3.75-11.5v-6.75c0-5.5-1.67-9.667-5-12.5-3.17-3-7.75-4.5-13.75-4.5h-15.75c-17.67 0-31.25-3.833-40.75-11.5-9.34-7.833-14-21.083-14-39.75v-9c0-18 5.16-31.167 15.5-39.5 10.33-8.333 25.08-12.5 44.25-12.5 6.83 0 13.58.333 20.25 1 6.83.667 13.33 1.5 19.5 2.5 6.33.833 11.75 1.75 16.25 2.75V99l-25.75-1.5c-9.34-.5-18-.75-26-.75-5.67 0-10.75.583-15.25 1.75-4.34 1-7.67 3-10 6-2.34 3-3.5 7.25-3.5 12.75v5c0 6.5 1.83 11.167 5.5 14 3.66 2.833 9.08 4.25 16.25 4.25h18.25c11.16 0 20.33 2.083 27.5 6.25 7.33 4 12.75 9.583 16.25 16.75 3.66 7.167 5.5 15.333 5.5 24.5v10.5c0 14.5-2.75 25.583-8.25 33.25-5.34 7.667-12.84 12.917-22.5 15.75-9.5 2.667-20.67 4-33.5 4zm-880.6 120.8c-.96 0-2.06-.1-3.3-.3-1.24-.16-2.44-.56-3.6-1.2-1.12-.64-2.06-1.6-2.82-2.88-.72-1.32-1.08-3.12-1.08-5.4v-24.78c0-1.96.3-3.6.9-4.92s1.4-2.36 2.4-3.12 2.1-1.3 3.3-1.62a13.7 13.7 0 0 1 3.54-.48l7.92.12 6.24.3 5.04.36v7.44h-16.56c-1.24 0-2.2.3-2.88.9s-1.02 1.52-1.02 2.76v6.42l17.58.48v7.02l-17.58.48V360c0 1.04.16 1.86.48 2.46.36.56.82.96 1.38 1.2.6.2 1.22.3 1.86.3h16.74v7.44l-5.88.48-6.48.3-6.18.12zm31.781-.3v-32.22h7.32l1.56 3.3c1.2-1 2.7-1.88 4.5-2.64 1.84-.8 3.72-1.2 5.64-1.2 2.64 0 4.68.52 6.12 1.56s2.44 2.44 3 4.2c.6 1.72.9 3.64.9 5.76V372h-8.88v-20.1c0-1.04-.2-1.9-.6-2.58a3.67 3.67 0 0 0-1.56-1.56c-.68-.36-1.5-.54-2.46-.54-.84 0-1.66.1-2.46.3-.76.2-1.5.48-2.22.84-.68.36-1.34.78-1.98 1.26V372h-8.88zm54.583.36c-1 0-2.08-.04-3.24-.12l-3.48-.24-3.24-.42c-1-.2-1.84-.42-2.52-.66v-5.22h14.28c.84 0 1.52-.06 2.04-.18.56-.16.96-.42 1.2-.78.28-.4.42-.96.42-1.68v-1.02c0-.8-.26-1.42-.78-1.86s-1.48-.66-2.88-.66h-5.04c-1.84 0-3.5-.28-4.98-.84s-2.66-1.48-3.54-2.76c-.84-1.28-1.26-3-1.26-5.16v-1.86c0-2.04.4-3.76 1.2-5.16s2.14-2.46 4.02-3.18 4.46-1.08 7.74-1.08a39.16 39.16 0 0 1 4.2.24l4.26.54c1.36.2 2.44.44 3.24.72v5.22h-13.5c-1.16 0-2.04.2-2.64.6-.6.36-.9 1.06-.9 2.1v.96c0 .72.14 1.26.42 1.62.28.32.7.56 1.26.72.6.12 1.34.18 2.22.18h5.16c3.28 0 5.66.76 7.14 2.28 1.52 1.48 2.28 3.54 2.28 6.18v2.88c0 2.16-.52 3.88-1.56 5.16-1 1.24-2.48 2.14-4.44 2.7-1.92.52-4.28.78-7.08.78zm34.913 0c-2.88 0-5.14-.84-6.78-2.52-1.64-1.72-2.46-4.14-2.46-7.26v-22.8h8.88v20.16c0 1.8.42 3.02 1.26 3.66.88.6 2.02.9 3.42.9 1.12 0 2.26-.2 3.42-.6 1.2-.44 2.26-1.02 3.18-1.74v-22.38h8.94V372h-7.38l-1.56-3.3c-1.44.96-3.1 1.82-4.98 2.58-1.88.72-3.86 1.08-5.94 1.08zm33.764-.36v-32.22h6.84l2.04 4.92c1.16-1.48 2.46-2.74 3.9-3.78 1.48-1.04 3.22-1.56 5.22-1.56l1.32.06a6.46 6.46 0 0 1 1.32.24v9.12l-1.92-.18a15 15 0 0 0-1.86-.12c-1.16 0-2.22.14-3.18.42-.92.24-1.78.62-2.58 1.14-.76.48-1.5 1.12-2.22 1.92V372h-8.88zm46.131.3c-3.56 0-6.4-.46-8.52-1.38-2.12-.96-3.66-2.64-4.62-5.04-.92-2.4-1.38-5.72-1.38-9.96 0-4.36.44-7.74 1.32-10.14s2.36-4.08 4.44-5.04 4.9-1.44 8.46-1.44c3.2 0 5.76.32 7.68.96s3.3 1.76 4.14 3.36c.88 1.6 1.32 3.86 1.32 6.78 0 2.16-.44 3.88-1.32 5.16-.84 1.24-2.04 2.14-3.6 2.7-1.56.52-3.4.78-5.52.78h-8.1c.08 1.64.32 2.96.72 3.96.44.96 1.22 1.66 2.34 2.1 1.16.4 2.82.6 4.98.6h9.42v5.22c-1.56.32-3.28.64-5.16.96-1.84.28-4.04.42-6.6.42zm-5.82-18.54h7.32c1.2 0 2.08-.24 2.64-.72s.84-1.34.84-2.58c0-1.16-.18-2.08-.54-2.76-.36-.72-.92-1.22-1.68-1.5-.76-.32-1.78-.48-3.06-.48-1.36 0-2.44.24-3.24.72-.8.44-1.38 1.24-1.74 2.4s-.54 2.8-.54 4.92zM724.067 372v-36.42h-12.18v-7.98h33.3v7.98h-12.24V372h-8.88zm32.695 0v-45.72h8.88v16.8c1.16-.96 2.66-1.84 4.5-2.64 1.88-.8 3.8-1.2 5.76-1.2 2.44 0 4.38.48 5.82 1.44s2.48 2.3 3.12 4.02.96 3.72.96 6V372h-8.88v-20.16c0-1.04-.2-1.9-.6-2.58a3.66 3.66 0 0 0-1.62-1.5c-.68-.36-1.48-.54-2.4-.54-.84 0-1.66.12-2.46.36-.76.2-1.5.48-2.22.84a20.06 20.06 0 0 0-1.98 1.2V372h-8.88zm56.444.3c-3.56 0-6.4-.46-8.52-1.38-2.12-.96-3.66-2.64-4.62-5.04-.92-2.4-1.38-5.72-1.38-9.96 0-4.36.44-7.74 1.32-10.14s2.36-4.08 4.44-5.04 4.9-1.44 8.46-1.44c3.2 0 5.76.32 7.68.96s3.3 1.76 4.14 3.36c.88 1.6 1.32 3.86 1.32 6.78 0 2.16-.44 3.88-1.32 5.16-.84 1.24-2.04 2.14-3.6 2.7-1.56.52-3.4.78-5.52.78h-8.1c.08 1.64.32 2.96.72 3.96.44.96 1.22 1.66 2.34 2.1 1.16.4 2.82.6 4.98.6h9.42v5.22c-1.56.32-3.28.64-5.16.96-1.84.28-4.04.42-6.6.42zm-5.82-18.54h7.32c1.2 0 2.08-.24 2.64-.72s.84-1.34.84-2.58c0-1.16-.18-2.08-.54-2.76-.36-.72-.92-1.22-1.68-1.5-.76-.32-1.78-.48-3.06-.48-1.36 0-2.44.24-3.24.72-.8.44-1.38 1.24-1.74 2.4s-.54 2.8-.54 4.92zM871.461 372v-36.42h-12.18v-7.98h33.3v7.98h-12.24V372h-8.88zm31.523 0v-32.22h6.84l2.04 4.92c1.16-1.48 2.46-2.74 3.9-3.78 1.48-1.04 3.22-1.56 5.22-1.56.44 0 .88.02 1.32.06a6.46 6.46 0 0 1 1.32.24v9.12c-.6-.08-1.24-.14-1.92-.18a15 15 0 0 0-1.86-.12c-1.16 0-2.22.14-3.18.42-.92.24-1.78.62-2.58 1.14-.76.48-1.5 1.12-2.22 1.92V372h-8.88zm41.691.36c-2.88 0-5.14-.84-6.78-2.52-1.64-1.72-2.46-4.14-2.46-7.26v-22.8h8.88v20.16c0 1.8.42 3.02 1.26 3.66.88.6 2.02.9 3.42.9 1.12 0 2.26-.2 3.42-.6 1.2-.44 2.26-1.02 3.18-1.74v-22.38h8.94V372h-7.38l-1.56-3.3c-1.44.96-3.1 1.82-4.98 2.58-1.88.72-3.86 1.08-5.94 1.08zm45.464 0c-1 0-2.08-.04-3.24-.12-1.16-.04-2.32-.12-3.48-.24s-2.24-.26-3.24-.42c-1-.2-1.84-.42-2.52-.66v-5.22h14.28c.84 0 1.52-.06 2.04-.18.56-.16.96-.42 1.2-.78.28-.4.42-.96.42-1.68v-1.02c0-.8-.26-1.42-.78-1.86s-1.48-.66-2.88-.66h-5.04c-1.84 0-3.5-.28-4.98-.84s-2.66-1.48-3.54-2.76c-.84-1.28-1.26-3-1.26-5.16v-1.86c0-2.04.4-3.76 1.2-5.16s2.14-2.46 4.02-3.18 4.46-1.08 7.74-1.08a39.16 39.16 0 0 1 4.2.24c1.52.12 2.94.3 4.26.54 1.36.2 2.441.44 3.241.72v5.22h-13.501c-1.16 0-2.04.2-2.64.6-.6.36-.9 1.06-.9 2.1v.96c0 .72.14 1.26.42 1.62.28.32.7.56 1.26.72.6.12 1.34.18 2.22.18h5.16c3.28 0 5.66.76 7.141 2.28 1.52 1.48 2.28 3.54 2.28 6.18v2.88c0 2.16-.52 3.88-1.56 5.16-1 1.24-2.481 2.14-4.441 2.7-1.92.52-4.28.78-7.08.78zm38.031-.36c-2.48 0-4.5-.36-6.06-1.08-1.52-.72-2.62-1.92-3.3-3.6s-.98-3.94-.9-6.78l.3-13.62h-5.04v-5.7l5.34-1.44 1.2-9h7.02v9h7.56v7.14h-7.56v13.56c0 .88.08 1.6.24 2.16s.38 1.02.66 1.38c.32.32.68.56 1.08.72a4.4 4.4 0 0 0 1.2.3l4.08.36v6.6h-5.82zm24.1 0l-8.52-32.22h9.18l5.1 24 6.36-24h7.32l6.36 24 4.62-24h9.18l-8.4 32.22h-9.84l-5.76-19.62-5.94 19.62h-9.66zm63.58.3c-2.64 0-4.9-.26-6.78-.78-1.88-.56-3.42-1.48-4.62-2.76-1.16-1.28-2.02-2.98-2.58-5.1-.52-2.12-.78-4.74-.78-7.86 0-3.28.26-5.98.78-8.1.56-2.16 1.42-3.84 2.58-5.04 1.2-1.24 2.74-2.1 4.62-2.58 1.92-.52 4.18-.78 6.78-.78 2.68 0 4.96.26 6.84.78s3.4 1.4 4.56 2.64c1.2 1.2 2.06 2.88 2.58 5.04.56 2.12.84 4.8.84 8.04 0 3.2-.26 5.88-.78 8.04-.52 2.12-1.36 3.8-2.52 5.04s-2.7 2.12-4.62 2.64c-1.88.52-4.18.78-6.9.78zm0-7.08c1.08 0 1.98-.1 2.7-.3.76-.2 1.36-.6 1.8-1.2.48-.64.84-1.6 1.08-2.88s.36-2.96.36-5.04c0-2.12-.12-3.8-.36-5.04-.24-1.28-.6-2.22-1.08-2.82a3.06 3.06 0 0 0-1.8-1.26c-.72-.2-1.62-.3-2.7-.3-1.04 0-1.94.1-2.7.3-.72.2-1.32.62-1.8 1.26-.48.6-.84 1.54-1.08 2.82-.2 1.24-.3 2.92-.3 5.04 0 2.08.1 3.76.3 5.04.24 1.28.6 2.24 1.08 2.88.48.6 1.08 1 1.8 1.2.76.2 1.66.3 2.7.3zm27.91 6.78v-32.22h6.84l2.04 4.92c1.16-1.48 2.46-2.74 3.9-3.78 1.48-1.04 3.22-1.56 5.22-1.56.44 0 .88.02 1.32.06a6.46 6.46 0 0 1 1.32.24v9.12c-.6-.08-1.24-.14-1.92-.18a15 15 0 0 0-1.86-.12c-1.16 0-2.22.14-3.18.42-.92.24-1.78.62-2.58 1.14-.76.48-1.5 1.12-2.22 1.92V372h-8.88zm45.4 0c-2.48 0-4.5-.36-6.06-1.08-1.52-.72-2.62-1.92-3.3-3.6s-.98-3.94-.9-6.78l.3-13.62h-5.04v-5.7l5.34-1.44 1.2-9h7.02v9h7.56v7.14h-7.56v13.56c0 .88.08 1.6.24 2.16s.38 1.02.66 1.38c.32.32.68.56 1.08.72a4.4 4.4 0 0 0 1.2.3l4.08.36v6.6h-5.82zm18.28 0v-45.72h8.88v16.8c1.16-.96 2.66-1.84 4.5-2.64 1.88-.8 3.8-1.2 5.76-1.2 2.44 0 4.38.48 5.82 1.44s2.48 2.3 3.12 4.02.96 3.72.96 6V372h-8.88v-20.16c0-1.04-.2-1.9-.6-2.58a3.66 3.66 0 0 0-1.62-1.5c-.68-.36-1.48-.54-2.4-.54-.84 0-1.66.12-2.46.36-.76.2-1.5.48-2.22.84a20.06 20.06 0 0 0-1.98 1.2V372h-8.88zm43.96-36.96c-.84 0-1.26-.4-1.26-1.2v-5.88c0-.84.42-1.26 1.26-1.26h6.84c.36 0 .64.12.84.36s.3.54.3.9v5.88c0 .8-.38 1.2-1.14 1.2h-6.84zm-1.08 36.96v-32.22h8.88V372h-8.88zm22.91 0v-32.22h7.32l1.56 3.3c1.2-1 2.7-1.88 4.5-2.64 1.84-.8 3.72-1.2 5.64-1.2 2.64 0 4.68.52 6.12 1.56s2.44 2.44 3 4.2c.6 1.72.9 3.64.9 5.76V372h-8.88v-20.1c0-1.04-.2-1.9-.6-2.58a3.67 3.67 0 0 0-1.56-1.56c-.68-.36-1.5-.54-2.46-.54-.84 0-1.66.1-2.46.3-.76.2-1.5.48-2.22.84-.68.36-1.34.78-1.98 1.26V372h-8.88zm56.44.3c-3.56 0-6.4-.46-8.52-1.38-2.12-.96-3.66-2.64-4.62-5.04-.92-2.4-1.38-5.72-1.38-9.96 0-4.36.44-7.74 1.32-10.14s2.36-4.08 4.44-5.04 4.9-1.44 8.46-1.44c3.2 0 5.76.32 7.68.96s3.3 1.76 4.14 3.36c.88 1.6 1.32 3.86 1.32 6.78 0 2.16-.44 3.88-1.32 5.16-.84 1.24-2.04 2.14-3.6 2.7-1.56.52-3.4.78-5.52.78h-8.1c.08 1.64.32 2.96.72 3.96.44.96 1.22 1.66 2.34 2.1 1.16.4 2.82.6 4.98.6h9.42v5.22c-1.56.32-3.28.64-5.16.96-1.84.28-4.04.42-6.6.42zm-5.82-18.54h7.32c1.2 0 2.08-.24 2.64-.72s.84-1.34.84-2.58c0-1.16-.18-2.08-.54-2.76-.36-.72-.92-1.22-1.68-1.5-.76-.32-1.78-.48-3.06-.48-1.36 0-2.44.24-3.24.72-.8.44-1.38 1.24-1.74 2.4s-.54 2.8-.54 4.92zm43.39 18.6c-1 0-2.08-.04-3.24-.12-1.16-.04-2.32-.12-3.48-.24s-2.24-.26-3.24-.42c-1-.2-1.84-.42-2.52-.66v-5.22h14.28c.84 0 1.52-.06 2.04-.18.56-.16.96-.42 1.2-.78.28-.4.42-.96.42-1.68v-1.02c0-.8-.26-1.42-.78-1.86s-1.48-.66-2.88-.66H1364c-1.84 0-3.5-.28-4.98-.84s-2.66-1.48-3.54-2.76c-.84-1.28-1.26-3-1.26-5.16v-1.86c0-2.04.4-3.76 1.2-5.16s2.14-2.46 4.02-3.18 4.46-1.08 7.74-1.08a39.16 39.16 0 0 1 4.2.24c1.52.12 2.94.3 4.26.54 1.36.2 2.44.44 3.24.72v5.22h-13.5c-1.16 0-2.04.2-2.64.6-.6.36-.9 1.06-.9 2.1v.96c0 .72.14 1.26.42 1.62.28.32.7.56 1.26.72.6.12 1.34.18 2.22.18h5.16c3.28 0 5.66.76 7.14 2.28 1.52 1.48 2.28 3.54 2.28 6.18v2.88c0 2.16-.52 3.88-1.56 5.16-1 1.24-2.48 2.14-4.44 2.7-1.92.52-4.28.78-7.08.78zm37.49 0c-1 0-2.08-.04-3.24-.12-1.16-.04-2.32-.12-3.48-.24s-2.24-.26-3.24-.42c-1-.2-1.84-.42-2.52-.66v-5.22h14.28c.84 0 1.52-.06 2.04-.18.56-.16.96-.42 1.2-.78.28-.4.42-.96.42-1.68v-1.02c0-.8-.26-1.42-.78-1.86s-1.48-.66-2.88-.66h-5.04c-1.84 0-3.5-.28-4.98-.84s-2.66-1.48-3.54-2.76c-.84-1.28-1.26-3-1.26-5.16v-1.86c0-2.04.4-3.76 1.2-5.16s2.14-2.46 4.02-3.18 4.46-1.08 7.74-1.08a39.16 39.16 0 0 1 4.2.24c1.52.12 2.94.3 4.26.54 1.36.2 2.44.44 3.24.72v5.22h-13.5c-1.16 0-2.04.2-2.64.6-.6.36-.9 1.06-.9 2.1v.96c0 .72.14 1.26.42 1.62.28.32.7.56 1.26.72.6.12 1.34.18 2.22.18h5.16c3.28 0 5.66.76 7.14 2.28 1.52 1.48 2.28 3.54 2.28 6.18v2.88c0 2.16-.52 3.88-1.56 5.16-1 1.24-2.48 2.14-4.44 2.7-1.92.52-4.28.78-7.08.78z" fill="#2563eb"/><defs><linearGradient id="A" x1="399.951" y1="231.47" x2="399.951" y2="231.386" xlink:href="#H"><stop offset=".04" stop-opacity=".93"/><stop offset=".06" stop-color="#0e0b1c" stop-opacity=".94"/><stop offset=".11" stop-color="#231b45" stop-opacity=".95"/><stop offset=".15" stop-color="#352a6b" stop-opacity=".96"/><stop offset=".21" stop-color="#46368b" stop-opacity=".97"/><stop offset=".26" stop-color="#5341a7" stop-opacity=".98"/><stop offset=".33" stop-color="#5e49bd" stop-opacity=".99"/><stop offset=".41" stop-color="#6750cd" stop-opacity=".99"/><stop offset=".5" stop-color="#6d55d9"/><stop offset=".63" stop-color="#7057e0"/><stop offset="1" stop-color="#7158e2"/></linearGradient><linearGradient id="B" x1="200" y1="231.47" x2="200" y2="231.386" xlink:href="#H"><stop offset=".04" stop-opacity=".93"/><stop offset=".06" stop-color="#0e0b1c" stop-opacity=".94"/><stop offset=".11" stop-color="#231b45" stop-opacity=".95"/><stop offset=".15" stop-color="#352a6b" stop-opacity=".96"/><stop offset=".21" stop-color="#46368b" stop-opacity=".97"/><stop offset=".26" stop-color="#5341a7" stop-opacity=".98"/><stop offset=".33" stop-color="#5e49bd" stop-opacity=".99"/><stop offset=".41" stop-color="#6750cd" stop-opacity=".99"/><stop offset=".5" stop-color="#6d55d9"/><stop offset=".63" stop-color="#7057e0"/><stop offset="1" stop-color="#7158e2"/></linearGradient><linearGradient id="C" x1="200" y1="371.074" x2="364.905" y2="119.958" xlink:href="#H"><stop stop-color="#2563eb"/><stop offset=".342" stop-color="#235cd8"/><stop offset=".461" stop-color="#2156c9"/><stop offset=".565" stop-color="#2357c9"/><stop offset=".665" stop-color="#2a57b9"/><stop offset=".765" stop-color="#2651af"/><stop offset=".836" stop-color="#1f4baa"/><stop offset=".886" stop-color="#1b3e8b"/><stop offset=".922" stop-color="#214595"/><stop offset="1" stop-color="#2851aa"/></linearGradient><linearGradient id="D" x1="8.157" y1="101.478" x2="166.939" y2="332.314" xlink:href="#H"><stop offset=".04" stop-opacity=".93"/><stop offset=".07" stop-color="#051e26" stop-opacity=".94"/><stop offset=".11" stop-color="#0b3d4f" stop-opacity=".95"/><stop offset=".16" stop-color="#105b75" stop-opacity=".96"/><stop offset=".21" stop-color="#1b4194"/><stop offset=".27" stop-color="#1d46a0"/><stop offset=".34" stop-color="#1e4eb8"/><stop offset=".41" stop-color="#2156c9"/><stop offset=".5" stop-color="#2259d1"/><stop offset=".64" stop-color="#285ed6"/><stop offset="1" stop-color="#2563eb"/></linearGradient><linearGradient id="E" x1="175.193" y1="-50.796" x2="375.286" y2="266.264" xlink:href="#H"><stop offset=".04" stop-opacity=".93"/><stop offset=".07" stop-color="#051e26" stop-opacity=".94"/><stop offset=".11" stop-color="#0b3d4f" stop-opacity=".95"/><stop offset=".16" stop-color="#162d60"/><stop offset=".21" stop-color="#12347d"/><stop offset=".27" stop-color="#1c408e"/><stop offset=".34" stop-color="#2049a3"/><stop offset=".41" stop-color="#1f4eb4"/><stop offset=".5" stop-color="#2557c5"/><stop offset=".64" stop-color="#2860db"/><stop offset="1" stop-color="#2563eb"/></linearGradient><linearGradient id="F" x1=".049" y1="231.47" x2=".049" y2="231.386" xlink:href="#H"><stop offset=".04" stop-opacity=".93"/><stop offset=".06" stop-color="#0e0b1c" stop-opacity=".94"/><stop offset=".11" stop-color="#231b45" stop-opacity=".95"/><stop offset=".15" stop-color="#352a6b" stop-opacity=".96"/><stop offset=".21" stop-color="#46368b" stop-opacity=".97"/><stop offset=".26" stop-color="#5341a7" stop-opacity=".98"/><stop offset=".33" stop-color="#5e49bd" stop-opacity=".99"/><stop offset=".41" stop-color="#6750cd" stop-opacity=".99"/><stop offset=".5" stop-color="#6d55d9"/><stop offset=".63" stop-color="#7057e0"/><stop offset="1" stop-color="#7158e2"/></linearGradient><linearGradient id="G" x1="232.092" y1="-36.538" x2="-22.255" y2="293.962" xlink:href="#H"><stop offset=".04" stop-opacity=".93"/><stop offset=".07" stop-color="#051e26" stop-opacity=".94"/><stop offset=".11" stop-color="#0b3d4f" stop-opacity=".95"/><stop offset=".16" stop-color="#112c68"/><stop offset=".21" stop-color="#163985"/><stop offset=".27" stop-color="#17409a"/><stop offset=".34" stop-color="#1e4eb7"/><stop offset=".41" stop-color="#2658c6"/><stop offset=".5" stop-color="#2a5ecf"/><stop offset=".64" stop-color="#2661e3"/><stop offset="1" stop-color="#2563eb"/></linearGradient><linearGradient id="H" gradientUnits="userSpaceOnUse"/></defs></svg>