<svg xmlns="http://www.w3.org/2000/svg" width="569" height="581" fill="none" xmlns:v="https://vecta.io/nano"><style><![CDATA[.B{color-interpolation-filters:sRGB}.C{flood-opacity:0}]]></style><g filter="url(#A)"><path d="M70.09 40.2L44.49 110h-17L1.89 40.2h15l19.2 55.5 19.1-55.5h14.9zM90.584 48c-2.467 0-4.533-.767-6.2-2.3-1.6-1.6-2.4-3.567-2.4-5.9s.8-4.267 2.4-5.8c1.667-1.6 3.733-2.4 6.2-2.4s4.5.8 6.1 2.4c1.667 1.533 2.5 3.467 2.5 5.8s-.833 4.3-2.5 5.9c-1.6 1.533-3.633 2.3-6.1 2.3zm6.9 6.6V110h-14V54.6h14zm70.332 26.5c0 2-.133 3.8-.4 5.4h-40.5c.333 4 1.733 7.133 4.2 9.4s5.5 3.4 9.1 3.4c5.2 0 8.9-2.233 11.1-6.7h15.1c-1.6 5.333-4.667 9.733-9.2 13.2-4.533 3.4-10.1 5.1-16.7 5.1-5.333 0-10.133-1.167-14.4-3.5-4.2-2.4-7.5-5.767-9.9-10.1-2.333-4.333-3.5-9.333-3.5-15 0-5.733 1.167-10.767 3.5-15.1s5.6-7.667 9.8-10 9.033-3.5 14.5-3.5c5.267 0 9.967 1.133 14.1 3.4 4.2 2.267 7.433 5.5 9.7 9.7 2.333 4.133 3.5 8.9 3.5 14.3zm-14.5-4c-.067-3.6-1.367-6.467-3.9-8.6-2.533-2.2-5.633-3.3-9.3-3.3-3.467 0-6.4 1.067-8.8 3.2-2.333 2.067-3.767 4.967-4.3 8.7h26.3zm106.519-22.5l-16.2 55.4h-15.1l-10.1-38.7-10.1 38.7h-15.2l-16.3-55.4h14.2l9.8 42.2 10.6-42.2h14.8l10.4 42.1 9.8-42.1h13.4z" fill="#2563eb"/></g><g filter="url(#B)"><path d="M49.901 296.7h-27.8l-4.6 13.3h-14.7l25.1-69.9h16.3l25.1 69.9h-14.8l-4.6-13.3zm-3.8-11.2l-10.1-29.2-10.1 29.2h20.2zm68.282-31.7c6.6 0 11.934 2.1 16 6.3 4.067 4.133 6.1 9.933 6.1 17.4V310h-14v-30.6c0-4.4-1.1-7.767-3.3-10.1-2.2-2.4-5.2-3.6-9-3.6-3.866 0-6.933 1.2-9.2 3.6-2.2 2.333-3.3 5.7-3.3 10.1V310h-14v-55.4h14v6.9c1.867-2.4 4.234-4.267 7.1-5.6 2.934-1.4 6.134-2.1 9.6-2.1zm93.413.8l-34.3 81.6h-14.9l12-27.6-22.2-54h15.7l14.3 38.7 14.5-38.7h14.9zm89.347 0l-16.2 55.4h-15.1l-10.1-38.7-10.1 38.7h-15.2l-16.3-55.4h14.2l9.8 42.2 10.6-42.2h14.8l10.4 42.1 9.8-42.1h13.4zm43.775-.8c4.2 0 7.934.933 11.2 2.8 3.267 1.8 5.8 4.5 7.6 8.1 1.867 3.533 2.8 7.8 2.8 12.8V310h-14v-30.6c0-4.4-1.1-7.767-3.3-10.1-2.2-2.4-5.2-3.6-9-3.6-3.866 0-6.933 1.2-9.2 3.6-2.2 2.333-3.3 5.7-3.3 10.1V310h-14v-74h14v25.5c1.8-2.4 4.2-4.267 7.2-5.6 3-1.4 6.334-2.1 10-2.1zm91.414 27.3c0 2-.134 3.8-.4 5.4h-40.5c.333 4 1.733 7.133 4.2 9.4s5.5 3.4 9.1 3.4c5.2 0 8.9-2.233 11.1-6.7h15.1c-1.6 5.333-4.667 9.733-9.2 13.2-4.534 3.4-10.1 5.1-16.7 5.1-5.334 0-10.134-1.167-14.4-3.5-4.2-2.4-7.5-5.767-9.9-10.1-2.334-4.333-3.5-9.333-3.5-15 0-5.733 1.166-10.767 3.5-15.1s5.6-7.667 9.8-10 9.033-3.5 14.5-3.5c5.266 0 9.966 1.133 14.1 3.4 4.2 2.267 7.433 5.5 9.7 9.7 2.333 4.133 3.5 8.9 3.5 14.3zm-14.5-4c-.067-3.6-1.367-6.467-3.9-8.6-2.534-2.2-5.634-3.3-9.3-3.3-3.467 0-6.4 1.067-8.8 3.2-2.334 2.067-3.767 4.967-4.3 8.7h26.3zm43.718-13.9c1.8-2.933 4.134-5.233 7-6.9 2.934-1.667 6.267-2.5 10-2.5v14.7h-3.7c-4.4 0-7.733 1.033-10 3.1-2.2 2.067-3.3 5.667-3.3 10.8V310h-14v-55.4h14v8.6zm82.93 17.9c0 2-.133 3.8-.4 5.4h-40.5c.333 4 1.733 7.133 4.2 9.4s5.5 3.4 9.1 3.4c5.2 0 8.9-2.233 11.1-6.7h15.1c-1.6 5.333-4.667 9.733-9.2 13.2-4.533 3.4-10.1 5.1-16.7 5.1-5.333 0-10.133-1.167-14.4-3.5-4.2-2.4-7.5-5.767-9.9-10.1-2.333-4.333-3.5-9.333-3.5-15 0-5.733 1.167-10.767 3.5-15.1s5.6-7.667 9.8-10 9.033-3.5 14.5-3.5c5.267 0 9.967 1.133 14.1 3.4 4.2 2.267 7.433 5.5 9.7 9.7 2.333 4.133 3.5 8.9 3.5 14.3zm-14.5-4c-.067-3.6-1.367-6.467-3.9-8.6-2.533-2.2-5.633-3.3-9.3-3.3-3.467 0-6.4 1.067-8.8 3.2-2.333 2.067-3.767 4.967-4.3 8.7h26.3z" fill="#000"/></g><g filter="url(#C)"><path d="M50.026 496.7h-27.8l-4.6 13.3h-14.7l25.1-69.9h16.3l25.1 69.9h-14.8l-4.6-13.3zm-3.8-11.2l-10.1-29.2-10.1 29.2h20.2zm68.282-31.7c6.6 0 11.934 2.1 16 6.3 4.067 4.133 6.1 9.933 6.1 17.4V510h-14v-30.6c0-4.4-1.1-7.767-3.3-10.1-2.2-2.4-5.2-3.6-9-3.6-3.866 0-6.933 1.2-9.2 3.6-2.2 2.333-3.3 5.7-3.3 10.1V510h-14v-55.4h14v6.9c1.867-2.4 4.234-4.267 7.1-5.6 2.934-1.4 6.134-2.1 9.6-2.1zm93.413.8l-34.3 81.6h-14.9l12-27.6-22.2-54h15.7l14.3 38.7 14.5-38.7h14.9zm28.847 11.5v26.8c0 1.867.434 3.233 1.3 4.1.934.8 2.467 1.2 4.6 1.2h6.5V510h-8.8c-11.8 0-17.7-5.733-17.7-17.2v-26.7h-6.6v-11.5h6.6v-13.7h14.1v13.7h12.4v11.5h-12.4zm34.57-18.1c-2.467 0-4.533-.767-6.2-2.3-1.6-1.6-2.4-3.567-2.4-5.9s.8-4.267 2.4-5.8c1.667-1.6 3.733-2.4 6.2-2.4s4.5.8 6.1 2.4c1.667 1.533 2.5 3.467 2.5 5.8s-.833 4.3-2.5 5.9c-1.6 1.533-3.633 2.3-6.1 2.3zm6.9 6.6V510h-14v-55.4h14zm87.632-.8c6.8 0 12.267 2.1 16.4 6.3 4.2 4.133 6.3 9.933 6.3 17.4V510h-14v-30.6c0-4.333-1.1-7.633-3.3-9.9-2.2-2.333-5.2-3.5-9-3.5s-6.833 1.167-9.1 3.5c-2.2 2.267-3.3 5.567-3.3 9.9V510h-14v-30.6c0-4.333-1.1-7.633-3.3-9.9-2.2-2.333-5.2-3.5-9-3.5-3.867 0-6.933 1.167-9.2 3.5-2.2 2.267-3.3 5.567-3.3 9.9V510h-14v-55.4h14v6.7c1.8-2.333 4.1-4.167 6.9-5.5 2.867-1.333 6-2 9.4-2 4.333 0 8.2.933 11.6 2.8 3.4 1.8 6.033 4.4 7.9 7.8 1.8-3.2 4.4-5.767 7.8-7.7 3.467-1.933 7.2-2.9 11.2-2.9zm92.485 27.3c0 2-.133 3.8-.4 5.4h-40.5c.333 4 1.733 7.133 4.2 9.4s5.5 3.4 9.1 3.4c5.2 0 8.9-2.233 11.1-6.7h15.1c-1.6 5.333-4.667 9.733-9.2 13.2-4.533 3.4-10.1 5.1-16.7 5.1-5.333 0-10.133-1.167-14.4-3.5-4.2-2.4-7.5-5.767-9.9-10.1-2.333-4.333-3.5-9.333-3.5-15 0-5.733 1.167-10.767 3.5-15.1s5.6-7.667 9.8-10 9.033-3.5 14.5-3.5c5.267 0 9.967 1.133 14.1 3.4 4.2 2.267 7.433 5.5 9.7 9.7 2.333 4.133 3.5 8.9 3.5 14.3zm-14.5-4c-.067-3.6-1.367-6.467-3.9-8.6-2.533-2.2-5.633-3.3-9.3-3.3-3.467 0-6.4 1.067-8.8 3.2-2.333 2.067-3.767 4.967-4.3 8.7h26.3z" fill="#000"/></g><defs><filter id="A" x="1.89" y="31.6" width="281.945" height="123.301" filterUnits="userSpaceOnUse" class="B"><feFlood result="A" class="C"/><feColorMatrix in="SourceAlpha" values="0 0 0 0 0 0 0 0 0 0 0 0 0 0 0 0 0 0 127 0" result="B"/><feOffset dx="20" dy="40"/><feGaussianBlur stdDeviation="2"/><feComposite in2="B" operator="out"/><feColorMatrix values="0 0 0 0 0 0 0 0 0 0 0 0 0 0 0 0 0 0 0.25 0"/><feBlend in2="A"/><feBlend in="SourceGraphic"/></filter><filter id="B" x="2.801" y="236" width="565.679" height="144.2" filterUnits="userSpaceOnUse" class="B"><feFlood result="A" class="C"/><feColorMatrix in="SourceAlpha" values="0 0 0 0 0 0 0 0 0 0 0 0 0 0 0 0 0 0 127 0" result="B"/><feOffset dx="20" dy="40"/><feGaussianBlur stdDeviation="2"/><feComposite in2="B" operator="out"/><feColorMatrix values="0 0 0 0 0 0 0 0 0 0 0 0 0 0 0 0 0 0 0.25 0"/><feBlend in2="A"/><feBlend in="SourceGraphic"/></filter><filter id="C" x="2.926" y="431.6" width="479.429" height="148.601" filterUnits="userSpaceOnUse" class="B"><feFlood result="A" class="C"/><feColorMatrix in="SourceAlpha" values="0 0 0 0 0 0 0 0 0 0 0 0 0 0 0 0 0 0 127 0" result="B"/><feOffset dx="20" dy="40"/><feGaussianBlur stdDeviation="2"/><feComposite in2="B" operator="out"/><feColorMatrix values="0 0 0 0 0 0 0 0 0 0 0 0 0 0 0 0 0 0 0.25 0"/><feBlend in2="A"/><feBlend in="SourceGraphic"/></filter></defs></svg>