<svg width="70" height="70" viewBox="0 0 70 70" fill="none" xmlns="http://www.w3.org/2000/svg">
<circle cx="35" cy="35" r="35" fill="#424151"/>
<path d="M50 35.0911C50 26.8068 43.2843 20.0911 35 20.0911C26.7157 20.0911 20 26.8068 20 35.0911C20 42.5779 25.4853 48.7836 32.6562 49.9089V39.4271H28.8477V35.0911H32.6562V31.7864C32.6562 28.0271 34.8957 25.9505 38.322 25.9505C39.9626 25.9505 41.6797 26.2435 41.6797 26.2435V29.9349H39.7883C37.925 29.9349 37.3438 31.0912 37.3438 32.2786V35.0911H41.5039L40.8389 39.4271H37.3438V49.9089C44.5147 48.7836 50 42.5779 50 35.0911Z" fill="white"/>
</svg>
