<svg width="70" height="70" viewBox="0 0 70 70" fill="none" xmlns="http://www.w3.org/2000/svg">
<circle cx="35" cy="35" r="35" fill="#424151"/>
<path d="M47.7793 20H22.2148C20.9902 20 20 20.9668 20 22.1621V47.832C20 49.0273 20.9902 50 22.2148 50H47.7793C49.0039 50 50 49.0273 50 47.8379V22.1621C50 20.9668 49.0039 20 47.7793 20ZM28.9004 45.5645H24.4473V31.2441H28.9004V45.5645ZM26.6738 29.293C25.2441 29.293 24.0898 28.1387 24.0898 26.7148C24.0898 25.291 25.2441 24.1367 26.6738 24.1367C28.0977 24.1367 29.252 25.291 29.252 26.7148C29.252 28.1328 28.0977 29.293 26.6738 29.293ZM45.5645 45.5645H41.1172V38.6035C41.1172 36.9453 41.0879 34.8066 38.8027 34.8066C36.4883 34.8066 36.1367 36.6172 36.1367 38.4863V45.5645H31.6953V31.2441H35.9609V33.2012H36.0195C36.6113 32.0762 38.0645 30.8867 40.2266 30.8867C44.7324 30.8867 45.5645 33.8516 45.5645 37.707V45.5645Z" fill="white"/>
</svg>
