<svg width="70" height="70" viewBox="0 0 70 70" fill="none" xmlns="http://www.w3.org/2000/svg">
<circle cx="35" cy="35" r="35" fill="#424151"/>
<path d="M29.4377 47.3759C40.7557 47.3759 46.9479 37.9968 46.9479 29.8657C46.9479 29.6021 46.942 29.3325 46.9303 29.0689C48.1348 28.1977 49.1744 27.1187 50 25.8825C48.8782 26.3817 47.6871 26.7076 46.4674 26.8493C47.7516 26.0796 48.7132 24.8703 49.1738 23.4456C47.9657 24.1616 46.6445 24.6667 45.2668 24.9392C44.3385 23.9529 43.1112 23.2998 41.7746 23.081C40.438 22.8621 39.0665 23.0897 37.8722 23.7285C36.6779 24.3673 35.7273 25.3818 35.1673 26.6151C34.6074 27.8483 34.4693 29.2317 34.7744 30.5513C32.3281 30.4285 29.9349 29.793 27.75 28.686C25.565 27.579 23.6371 26.0252 22.0912 24.1253C21.3055 25.48 21.0651 27.083 21.4188 28.6085C21.7725 30.1341 22.6938 31.4677 23.9955 32.3384C23.0183 32.3074 22.0625 32.0443 21.207 31.5708V31.647C21.2062 33.0686 21.6976 34.4466 22.5979 35.5469C23.4982 36.6471 24.7517 37.4016 26.1453 37.6821C25.2401 37.9298 24.29 37.9659 23.3686 37.7876C23.7618 39.0102 24.527 40.0795 25.5572 40.8463C26.5875 41.6131 27.8314 42.0392 29.1154 42.065C26.9355 43.7773 24.2427 44.7061 21.4707 44.7017C20.9791 44.7009 20.488 44.6708 20 44.6114C22.8161 46.4181 26.0919 47.3776 29.4377 47.3759Z" fill="white"/>
</svg>
