<svg width="70" height="70" viewBox="0 0 70 70" fill="none" xmlns="http://www.w3.org/2000/svg">
<circle cx="35" cy="35" r="35" fill="#424151"/>
<path d="M35.5184 20.9167C27.4888 20.9167 20.9522 27.4477 20.9493 35.4772C20.9478 38.0439 21.6201 40.5496 22.8947 42.7575L20.918 50.0834L28.5486 48.2804C30.6763 49.4412 33.0715 50.0506 35.5098 50.052H35.5155C43.5437 50.052 50.0774 43.5196 50.0818 35.4915C50.0847 31.5992 48.5711 27.9396 45.8207 25.1863C43.0703 22.4344 39.4151 20.9181 35.5184 20.9167ZM35.5155 23.8334C38.6305 23.8348 41.5579 25.0493 43.7585 27.2485C45.9592 29.4506 47.168 32.3765 47.1651 35.4886C47.1622 41.9111 41.9381 47.1354 35.5127 47.1354C33.5687 47.1339 31.6431 46.6458 29.9471 45.7197L28.9644 45.1843L27.8792 45.4406L25.0081 46.1185L25.7088 43.5152L26.025 42.3473L25.4211 41.2992C24.4032 39.5375 23.8645 37.5233 23.866 35.4772C23.8689 29.0577 29.0945 23.8334 35.5155 23.8334ZM30.363 28.7552C30.1194 28.7552 29.7256 28.8464 29.3917 29.211C29.0577 29.5741 28.1156 30.4536 28.1156 32.2444C28.1156 34.0352 29.4202 35.7663 29.6025 36.0099C29.7833 36.2519 32.1205 40.0431 35.8203 41.5014C38.8945 42.7133 39.5188 42.4741 40.1868 42.4129C40.8547 42.3531 42.3415 41.5341 42.6449 40.6839C42.9482 39.8337 42.9489 39.1024 42.8585 38.9522C42.7681 38.8005 42.5252 38.7101 42.1606 38.5278C41.7975 38.3455 40.008 37.4668 39.6741 37.3457C39.3401 37.2247 39.0958 37.1634 38.8538 37.528C38.6117 37.8926 37.916 38.7101 37.703 38.9522C37.4901 39.1957 37.2786 39.2285 36.9141 39.0462C36.5495 38.8624 35.3773 38.4771 33.986 37.2375C32.9039 36.2735 32.1738 35.0842 31.9609 34.7196C31.7494 34.3565 31.9409 34.157 32.1232 33.9762C32.2865 33.8128 32.4849 33.5511 32.6672 33.3382C32.8481 33.1252 32.9108 32.9735 33.0318 32.7315C33.1529 32.4894 33.0909 32.2757 33.0005 32.0934C32.9101 31.9112 32.202 30.1137 31.8783 29.3932C31.6055 28.788 31.3175 28.774 31.0579 28.7638C30.8465 28.755 30.605 28.7552 30.363 28.7552Z" fill="white"/>
</svg>
