<svg width="30" height="30" viewBox="0 0 30 30" fill="none" xmlns="http://www.w3.org/2000/svg">
<g clip-path="url(#clip0_100_604)">
<path d="M15.0088 2.70117C19.0166 2.70117 19.4912 2.71875 21.0674 2.78906C22.5322 2.85352 23.3232 3.09961 23.8506 3.30469C24.5479 3.57422 25.0518 3.90234 25.5732 4.42383C26.1006 4.95117 26.4229 5.44922 26.6924 6.14648C26.8975 6.67383 27.1436 7.4707 27.208 8.92969C27.2783 10.5117 27.2959 10.9863 27.2959 14.9883C27.2959 18.9961 27.2783 19.4707 27.208 21.0469C27.1436 22.5117 26.8975 23.3027 26.6924 23.8301C26.4229 24.5273 26.0947 25.0313 25.5732 25.5527C25.0459 26.0801 24.5479 26.4023 23.8506 26.6719C23.3232 26.877 22.5264 27.123 21.0674 27.1875C19.4854 27.2578 19.0107 27.2754 15.0088 27.2754C11.001 27.2754 10.5264 27.2578 8.9502 27.1875C7.48535 27.123 6.69434 26.877 6.16699 26.6719C5.46973 26.4023 4.96582 26.0742 4.44434 25.5527C3.91699 25.0254 3.59473 24.5273 3.3252 23.8301C3.12012 23.3027 2.87402 22.5059 2.80957 21.0469C2.73926 19.4648 2.72168 18.9902 2.72168 14.9883C2.72168 10.9805 2.73926 10.5059 2.80957 8.92969C2.87402 7.46484 3.12012 6.67383 3.3252 6.14648C3.59473 5.44922 3.92285 4.94531 4.44434 4.42383C4.97168 3.89648 5.46973 3.57422 6.16699 3.30469C6.69434 3.09961 7.49121 2.85352 8.9502 2.78906C10.5264 2.71875 11.001 2.70117 15.0088 2.70117ZM15.0088 0C10.9365 0 10.4268 0.0175781 8.82715 0.0878906C7.2334 0.158203 6.1377 0.416016 5.18848 0.785156C4.19824 1.17187 3.36035 1.68164 2.52832 2.51953C1.69043 3.35156 1.18066 4.18945 0.793945 5.17383C0.424805 6.12891 0.166992 7.21875 0.0966797 8.8125C0.0263672 10.418 0.00878906 10.9277 0.00878906 15C0.00878906 19.0723 0.0263672 19.582 0.0966797 21.1816C0.166992 22.7754 0.424805 23.8711 0.793945 24.8203C1.18066 25.8105 1.69043 26.6484 2.52832 27.4805C3.36035 28.3125 4.19824 28.8281 5.18262 29.209C6.1377 29.5781 7.22754 29.8359 8.82129 29.9062C10.4209 29.9766 10.9307 29.9941 15.0029 29.9941C19.0752 29.9941 19.585 29.9766 21.1846 29.9062C22.7783 29.8359 23.874 29.5781 24.8232 29.209C25.8076 28.8281 26.6455 28.3125 27.4775 27.4805C28.3096 26.6484 28.8252 25.8105 29.2061 24.8262C29.5752 23.8711 29.833 22.7813 29.9033 21.1875C29.9736 19.5879 29.9912 19.0781 29.9912 15.0059C29.9912 10.9336 29.9736 10.4238 29.9033 8.82422C29.833 7.23047 29.5752 6.13477 29.2061 5.18555C28.8369 4.18945 28.3272 3.35156 27.4893 2.51953C26.6572 1.6875 25.8193 1.17188 24.835 0.791016C23.8799 0.421875 22.79 0.164062 21.1963 0.09375C19.5908 0.0175781 19.0811 0 15.0088 0Z" fill="white"/>
<path d="M15.0088 7.29492C10.7549 7.29492 7.30371 10.7461 7.30371 15C7.30371 19.2539 10.7549 22.7051 15.0088 22.7051C19.2627 22.7051 22.7139 19.2539 22.7139 15C22.7139 10.7461 19.2627 7.29492 15.0088 7.29492ZM15.0088 19.998C12.249 19.998 10.0107 17.7598 10.0107 15C10.0107 12.2402 12.249 10.002 15.0088 10.002C17.7686 10.002 20.0068 12.2402 20.0068 15C20.0068 17.7598 17.7686 19.998 15.0088 19.998Z" fill="white"/>
<path d="M24.8174 6.99024C24.8174 7.98633 24.0088 8.78907 23.0186 8.78907C22.0225 8.78907 21.2197 7.98047 21.2197 6.99024C21.2197 5.99414 22.0283 5.19141 23.0186 5.19141C24.0088 5.19141 24.8174 6 24.8174 6.99024Z" fill="white"/>
</g>
<defs>
<clipPath id="clip0_100_604">
<rect width="30" height="29.9941" fill="white"/>
</clipPath>
</defs>
</svg>
