<svg width="30" height="31" viewBox="0 0 30 31" fill="none" xmlns="http://www.w3.org/2000/svg">
<path d="M9.4377 27.8759C20.7557 27.8759 26.9479 18.4968 26.9479 10.3657C26.9479 10.1021 26.942 9.83254 26.9303 9.56887C28.1348 8.69774 29.1744 7.61873 30 6.38254C28.8782 6.88167 27.6871 7.20764 26.4674 7.34934C27.7516 6.57955 28.7132 5.37026 29.1738 3.94562C27.9657 4.66161 26.6445 5.16668 25.2668 5.43918C24.3385 4.45287 23.1112 3.79981 21.7746 3.58098C20.438 3.36215 19.0665 3.58973 17.8722 4.22854C16.6779 4.86734 15.7273 5.8818 15.1673 7.11506C14.6074 8.34831 14.4693 9.73168 14.7744 11.0513C12.3281 10.9285 9.93492 10.293 7.74998 9.18604C5.56503 8.07903 3.63712 6.52521 2.09121 4.62531C1.3055 5.97997 1.06507 7.58297 1.41879 9.10853C1.77251 10.6341 2.69383 11.9677 3.99551 12.8384C3.01829 12.8074 2.06247 12.5443 1.20703 12.0708V12.147C1.20616 13.5686 1.69762 14.9466 2.59789 16.0469C3.49815 17.1471 4.75165 17.9016 6.14531 18.1821C5.24007 18.4298 4.28998 18.4659 3.36855 18.2876C3.76182 19.5102 4.52697 20.5795 5.55721 21.3463C6.58746 22.1131 7.8314 22.5392 9.11543 22.565C6.93553 24.2773 4.24272 25.2061 1.4707 25.2017C0.979109 25.2009 0.487999 25.1708 0 25.1114C2.81607 26.9181 6.09191 27.8776 9.4377 27.8759Z" fill="white"/>
</svg>
