<svg width="30" height="31" viewBox="0 0 30 31" fill="none" xmlns="http://www.w3.org/2000/svg">
<path d="M29.7012 9.5C29.7012 9.5 29.4082 7.43164 28.5059 6.52344C27.3633 5.32813 26.0859 5.32227 25.5 5.25195C21.3047 4.94727 15.0059 4.94727 15.0059 4.94727H14.9941C14.9941 4.94727 8.69531 4.94727 4.5 5.25195C3.91406 5.32227 2.63672 5.32813 1.49414 6.52344C0.591797 7.43164 0.304688 9.5 0.304688 9.5C0.304688 9.5 0 11.9316 0 14.3574V16.6309C0 19.0566 0.298828 21.4883 0.298828 21.4883C0.298828 21.4883 0.591797 23.5566 1.48828 24.4648C2.63086 25.6602 4.13086 25.6191 4.79883 25.748C7.20117 25.9766 15 26.0469 15 26.0469C15 26.0469 21.3047 26.0352 25.5 25.7363C26.0859 25.666 27.3633 25.6602 28.5059 24.4648C29.4082 23.5566 29.7012 21.4883 29.7012 21.4883C29.7012 21.4883 30 19.0625 30 16.6309V14.3574C30 11.9316 29.7012 9.5 29.7012 9.5ZM11.9004 19.3906V10.959L20.0039 15.1895L11.9004 19.3906Z" fill="white"/>
</svg>
