<svg xmlns="http://www.w3.org/2000/svg" xmlns:xlink="http://www.w3.org/1999/xlink" viewBox="0 0 1080 1080"><defs><style>.cls-1{fill:url(#linear-gradient);}.cls-2{fill:url(#linear-gradient-3);}.cls-3{fill:url(#linear-gradient-4);}.cls-4{fill:url(#linear-gradient-5);}.cls-5{fill:#21b7ec;}.cls-6{fill:url(#linear-gradient-6);}.cls-7{fill:url(#linear-gradient-7);}.cls-8{fill:url(#linear-gradient-8);}</style><linearGradient id="linear-gradient" x1="-4634.9" y1="6209.34" x2="-4634.71" y2="6209.34" gradientTransform="translate(-5217.07 -4014.67) rotate(-90)" gradientUnits="userSpaceOnUse"><stop offset="0.04" stop-opacity="0.93"/><stop offset="0.06" stop-color="#0e0b1c" stop-opacity="0.94"/><stop offset="0.11" stop-color="#231b45" stop-opacity="0.95"/><stop offset="0.15" stop-color="#352a6b" stop-opacity="0.96"/><stop offset="0.21" stop-color="#46368b" stop-opacity="0.97"/><stop offset="0.26" stop-color="#5341a7" stop-opacity="0.98"/><stop offset="0.33" stop-color="#5e49bd" stop-opacity="0.99"/><stop offset="0.41" stop-color="#6750cd" stop-opacity="0.99"/><stop offset="0.5" stop-color="#6d55d9"/><stop offset="0.63" stop-color="#7057e0"/><stop offset="1" stop-color="#7158e2"/></linearGradient><linearGradient id="linear-gradient-3" x1="-4634.9" y1="5757.07" x2="-4634.71" y2="5757.07" xlink:href="#linear-gradient"/><linearGradient id="linear-gradient-4" x1="-4359.18" y1="6190.61" x2="-4845.54" y2="5825.84" gradientTransform="translate(-5217.07 -4014.67) rotate(-90)" gradientUnits="userSpaceOnUse"><stop offset="0.04" stop-opacity="0.93"/><stop offset="0.07" stop-color="#051e26" stop-opacity="0.94"/><stop offset="0.11" stop-color="#0b3d4f" stop-opacity="0.95"/><stop offset="0.16" stop-color="#105b75" stop-opacity="0.96"/><stop offset="0.21" stop-color="#157495" stop-opacity="0.97"/><stop offset="0.27" stop-color="#1989b1" stop-opacity="0.98"/><stop offset="0.34" stop-color="#1c9ac7" stop-opacity="0.99"/><stop offset="0.41" stop-color="#1ea7d8" stop-opacity="0.99"/><stop offset="0.5" stop-color="#20b0e3"/><stop offset="0.64" stop-color="#21b6ea"/><stop offset="1" stop-color="#21b7ec"/></linearGradient><linearGradient id="linear-gradient-5" x1="106.07" y1="326.2" x2="465.22" y2="848.33" gradientTransform="matrix(1, 0, 0, 1, 0, 0)" xlink:href="#linear-gradient-4"/><linearGradient id="linear-gradient-6" x1="-3996.44" y1="5700.96" x2="-4713.6" y2="6153.55" xlink:href="#linear-gradient-4"/><linearGradient id="linear-gradient-7" x1="-4634.9" y1="5304.8" x2="-4634.71" y2="5304.8" xlink:href="#linear-gradient"/><linearGradient id="linear-gradient-8" x1="-4028.69" y1="5829.66" x2="-4776.25" y2="5254.35" xlink:href="#linear-gradient-4"/></defs><g id="Layer_4" data-name="Layer 4"><path class="cls-1" d="M992.16,620.23h.19c.07-.06,0-.13,0-.2Z"/><path class="cls-1" d="M992.35,620c0,.07.07.14,0,.2h-.19Z"/><path class="cls-2" d="M992.16,620.23h.19c.07-.06,0-.13,0-.2Zm-904.51,0h.19l-.19-.2C87.65,620.1,87.58,620.17,87.65,620.23Z"/><path class="cls-3" d="M660.25,461.62A1183.68,1183.68,0,0,0,985.81,589.81c2.31,10.05,4.49,20.1,6.54,30.22l-.19.2A1667.86,1667.86,0,0,1,544,934.08c-1.32.73-2.64,1.32-4,1.92V858.35A711.11,711.11,0,0,1,660.25,461.62Z"/><path class="cls-4" d="M419.75,461.62a706.9,706.9,0,0,1,79.57,158.61A713.15,713.15,0,0,1,540,858.35V936c-1.39-.6-2.71-1.19-4-1.92A1667.86,1667.86,0,0,1,87.84,620.23l-.19-.2c2-10.12,4.23-20.17,6.54-30.22A1183.68,1183.68,0,0,0,419.75,461.62Z"/><path class="cls-5" d="M301.82,144H778.18A1195.05,1195.05,0,0,1,540,382.18,1195.05,1195.05,0,0,1,301.82,144Z"/><path class="cls-6" d="M778.18,144a1186.15,1186.15,0,0,1,79.44,120.25A1183.68,1183.68,0,0,1,985.81,589.81,1183.68,1183.68,0,0,1,660.25,461.62,1186.15,1186.15,0,0,1,540,382.18,1195.05,1195.05,0,0,0,778.18,144Z"/><path class="cls-7" d="M87.65,620l.19.2h-.19C87.58,620.17,87.65,620.1,87.65,620Z"/><path class="cls-8" d="M301.82,144A1195.05,1195.05,0,0,0,540,382.18a1186.15,1186.15,0,0,1-120.25,79.44A1183.68,1183.68,0,0,1,94.19,589.81,1186.83,1186.83,0,0,1,301.82,144Z"/></g></svg>